{
.appVersion = "1339";
DisplayStrings = (
"/quoteright/napostrophe"
);
classes = (
{
code = "Euro bar cent colon comma degree divide dollar eight equal five four greater less minus multiply nine numbersign one paragraph percent period periodcentered plus plusminus quotedbl quotesingle section semicolon seven six slash sterling three two underscore yen zero";
name = tnum1;
},
{
code = "Euro.tnum bar.tnum cent.tnum colon.tnum comma.tnum degree.tnum divide.tnum dollar.tnum eight.tnum equal.tnum five.tnum four.tnum greater.tnum less.tnum minus.tnum multiply.tnum nine.tnum numbersign.tnum one.tnum paragraph.tnum percent.tnum period.tnum periodcentered.tnum plus.tnum plusminus.tnum quotedbl.tnum quotesingle.tnum section.tnum semicolon.tnum seven.tnum six.tnum slash.tnum sterling.tnum three.tnum two.tnum underscore.tnum yen.tnum zero.tnum";
name = tnum2;
}
);
copyright = "Copyright 2020 The Libre Caslon Text Project Authors (https://github.com/thundernixon/Libre-Caslon)";
customParameters = (
{
name = macintoshFONDFamilyID;
value = 128;
},
{
name = macintoshFONDName;
value = "Libre Caslon Text";
},
{
name = openTypeHeadFlags;
value = (
);
},
{
name = description;
value = "Libre Caslon in Text is optimized for web body text";
},
{
name = openTypeNameSampleText;
value = "";
},
{
name = openTypeNameUniqueID;
value = "PabloImpallari,RodrigoFuenzalida: Libre Caslon Text Italic: 2012";
},
{
name = openTypeOS2FamilyClass;
value = (
0,
0
);
},
{
name = openTypeOS2Panose;
value = (
2,
2,
6,
2,
6,
3,
0,
0,
0,
4
);
},
{
name = openTypeOS2Selection;
value = (
);
},
{
name = openTypeOS2StrikeoutPosition;
value = 250;
},
{
name = openTypeOS2StrikeoutSize;
value = 50;
},
{
name = openTypeOS2SubscriptXOffset;
value = 0;
},
{
name = openTypeOS2SubscriptXSize;
value = 700;
},
{
name = openTypeOS2SubscriptYOffset;
value = 140;
},
{
name = openTypeOS2SubscriptYSize;
value = 650;
},
{
name = openTypeOS2SuperscriptXOffset;
value = 0;
},
{
name = openTypeOS2SuperscriptXSize;
value = 700;
},
{

glyphs = (
{
glyphname = A;
layers = (
{
anchors = (
{
name = bottom;
position = "{926, 0}";
},
{
name = topcap;
position = "{1238, 1643}";
}
);
background = {
paths = (
{
closed = 1;
nodes = (
"1112 1394 LINE",
"150 275 LINE SMOOTH",
"15 117 OFFCURVE",
"-48 82 OFFCURVE",
"-226 55 CURVE",
"-252 0 LINE",
"319 0 LINE",
"344 55 LINE",
"225 71 OFFCURVE",
"175 96 OFFCURVE",
"175 139 CURVE SMOOTH",
"175 172 OFFCURVE",
"195 199 OFFCURVE",
"256 271 CURVE SMOOTH",
"1081 1230 LINE"
);
},
{
closed = 1;
nodes = (
"994 639 LINE",
"540 639 LINE",
"478 565 LINE",
"983 565 LINE"
);
},
{
closed = 1;
nodes = (
"915 208 LINE SMOOTH",
"898 93 OFFCURVE",
"845 58 OFFCURVE",
"684 55 CURVE",
"655 0 LINE",
"1253 0 LINE",
"1282 55 LINE",
"1135 66 OFFCURVE",
"1103 92 OFFCURVE",
"1115 182 CURVE SMOOTH",
"1295 1569 LINE",
"1093 1523 LINE",
"1065 1286 LINE"
);
}
);
};
layerId = master01;
paths = (
{
closed = 1;
nodes = (
"1112 1394 LINE",
"150 275 LINE SMOOTH",
"15 117 OFFCURVE",
"-53 71 OFFCURVE",
"-230 45 CURVE",
"-252 0 LINE",
"319 0 LINE",
"340 45 LINE",
"220 61 OFFCURVE",
"175 96 OFFCURVE",
"175 139 CURVE SMOOTH",
"175 172 OFFCURVE",
"195 199 OFFCURVE",
"256 271 CURVE SMOOTH",
"1081 1230 LINE"
);
},
{
closed = 1;
nodes = (
"994 639 LINE",
"540 639 LINE",
"478 565 LINE",
"983 565 LINE"
);
},
{
closed = 1;
nodes = (
"915 208 LINE SMOOTH",
"898 93 OFFCURVE",
"839 47 OFFCURVE",
"678 45 CURVE",
"655 0 LINE",
"1253 0 LINE",
"1276 45 LINE",
"1130 55 OFFCURVE",
"1103 92 OFFCURVE",
"1115 182 CURVE SMOOTH",
"1295 1569 LINE",
"1093 1523 LINE",
"1065 1286 LINE"
);
}
);
width = 1498;
},
{
anchors = (
{
name = bottom;
position = "{886, 0}";
},
{
name = topcap;
position = "{1198, 1643}";
}
);
associatedMasterId = master01;
layerId = "CA5349ED-4193-4C38-9110-5E52926B6C4B";
name = "Jan 9 19, 13:25";
paths = (
{
closed = 1;
nodes = (
"264 0 LINE",
"289 55 LINE",
"172 71 OFFCURVE",
"122 94 OFFCURVE",
"120 136 CURVE SMOOTH",
"120 172 OFFCURVE",
"138 200 OFFCURVE",
"200 271 CURVE SMOOTH",
"456 565 LINE",
"925 565 LINE",
"875 208 LINE SMOOTH",
"857 85 OFFCURVE",
"793 58 OFFCURVE",
"644 55 CURVE",
"615 0 LINE",
"1224 0 LINE",
"1253 55 LINE",
"1130 63 OFFCURVE",
"1086 78 OFFCURVE",
"1084 149 CURVE SMOOTH",
"1084 159 OFFCURVE",
"1084 169 OFFCURVE",
"1086 182 CURVE SMOOTH",
"1267 1569 LINE",
"1052 1523 LINE",
"1032 1340 LINE",
"115 275 LINE SMOOTH",
"-13 128 OFFCURVE",
"-71 83 OFFCURVE",
"-260 55 CURVE",
"-287 0 LINE"
);
},
{
closed = 1;
nodes = (
"1018 1216 LINE",
"935 639 LINE",
"518 639 LINE"
);
}
);
width = 1480;
},
{
anchors = (
{
name = bottom;
position = "{998, 0}";
},
{
name = topcap;
position = "{1172, 1643}";
}
);
background = {
paths = (
{
closed = 1;
nodes = (
"989 1287 LINE",
"128 292 LINE SMOOTH",
"-7 137 OFFCURVE",
"-38 105 OFFCURVE",
"-237 73 CURVE",
"-267 0 LINE",
"365 0 LINE",
"395 73 LINE",
"272 92 OFFCURVE",
"213 117 OFFCURVE",
"213 165 CURVE SMOOTH",
"213 196 OFFCURVE",
"237 235 OFFCURVE",
"283 289 CURVE SMOOTH",
"1039 1161 LINE"
);
},
{
closed = 1;
nodes = (
"1023 552 LINE",
"385 552 LINE",
"339 440 LINE",
"976 440 LINE"
);
},
{
closed = 1;
nodes = (
"838 226 LINE SMOOTH",
"822 94 OFFCURVE",
"774 78 OFFCURVE",
"600 73 CURVE",
"570 0 LINE",
"1309 0 LINE",
"1339 73 LINE",
"1199 83 OFFCURVE",
"1165 104 OFFCURVE",
"1176 193 CURVE SMOOTH",
"1339 1563 LINE",
"990 1451 LINE",
"955 1152 LINE"
);
},
{
closed = 1;
nodes = (
"988 1287 LINE",
"143 292 LINE SMOOTH",
"-1 123 OFFCURVE",
"-38 102 OFFCURVE",
"-225 68 CURVE",
"-252 0 LINE",
"365 0 LINE",
"393 68 LINE",
"263 94 OFFCURVE",
"213 121 OFFCURVE",
"213 165 CURVE SMOOTH",
"213 193 OFFCURVE",
"234 231 OFFCURVE",
"283 289 CURVE SMOOTH",
"1039 1170 LINE"
);
},
{
closed = 1;
nodes = (
"1023 552 LINE",
"385 552 LINE",
"339 440 LINE",
"976 440 LINE"
);
},
{
closed = 1;
nodes = (
"843 226 LINE SMOOTH",
"828 102 OFFCURVE",
"791 79 OFFCURVE",
"602 68 CURVE",
"575 0 LINE",
"1303 0 LINE",
"1331 68 LINE",
"1189 83 OFFCURVE",
"1160 106 OFFCURVE",
"1170 193 CURVE SMOOTH",
"1333 1563 LINE",
"989 1451 LINE",
"953 1152 LINE"
);
}
);
};
layerId = "D3934E74-9B53-4E98-B19F-CD3DFEE08352";
paths = (
{
closed = 1;
nodes = (
"1016 1320 LINE",
"143 292 LINE SMOOTH",
"-1 122 OFFCURVE",
"-38 102 OFFCURVE",
"-225 68 CURVE",
"-252 0 LINE",
"365 0 LINE",
"393 68 LINE",
"263 94 OFFCURVE",
"213 121 OFFCURVE",
"213 165 CURVE SMOOTH",
"213 193 OFFCURVE",
"234 231 OFFCURVE",
"283 289 CURVE SMOOTH",
"1039 1170 LINE"
);
},
{
closed = 1;
nodes = (
"1023 547 LINE",
"385 547 LINE",
"339 443 LINE",
"976 443 LINE"
);
},
{
closed = 1;
nodes = (
"866 226 LINE SMOOTH",
"851 102 OFFCURVE",
"814 79 OFFCURVE",
"625 68 CURVE",
"598 0 LINE",
"1286 0 LINE",
"1314 68 LINE",
"1172 83 OFFCURVE",
"1142 106 OFFCURVE",
"1153 193 CURVE SMOOTH",
"1316 1563 LINE",
"1012 1451 LINE",
"976 1152 LINE"
);
}
);
width = 1515;
},
{
anchors = (
{
name = bottom;
position = "{886, 0}";
},
{
name = topcap;
position = "{1198, 1643}";
}
);
associatedMasterId = "D3934E74-9B53-4E98-B19F-CD3DFEE08352";
layerId = "682F6276-851F-41F1-906A-C63B3B00156A";
name = "Jan 9 19, 13:25";
paths = (
{
closed = 1;
nodes = (
"264 0 LINE",
"289 55 LINE",
"172 71 OFFCURVE",
"122 94 OFFCURVE",
"120 136 CURVE SMOOTH",
"120 172 OFFCURVE",
"138 200 OFFCURVE",
"200 271 CURVE SMOOTH",
"456 565 LINE",
"925 565 LINE",
"875 208 LINE SMOOTH",
"857 85 OFFCURVE",
"793 58 OFFCURVE",
"644 55 CURVE",
"615 0 LINE",
"1224 0 LINE",
"1253 55 LINE",
"1130 63 OFFCURVE",
"1086 78 OFFCURVE",
"1084 149 CURVE SMOOTH",
"1084 159 OFFCURVE",
"1084 169 OFFCURVE",
"1086 182 CURVE SMOOTH",
"1267 1569 LINE",
"1052 1523 LINE",
"1032 1340 LINE",
"115 275 LINE SMOOTH",
"-13 128 OFFCURVE",
"-71 83 OFFCURVE",
"-260 55 CURVE",
"-287 0 LINE"
);
},
{
closed = 1;
nodes = (
"1018 1216 LINE",
"935 639 LINE",
"518 639 LINE"
);
}
);
width = 1480;
}
);
leftKerningGroup = A;
rightKerningGroup = A;
unicode = 0041;
},
{
glyphname = Aringacute;
layers = (
{
components = (
{
name = A;
},
{
name = ring.cap;
transform = "{1, 0, 0, 1, 1071, 0}";
}
);
layerId = master01;
paths = (
{
closed = 1;
nodes = (
"1458 1734 OFFCURVE",
"1491 1761 OFFCURVE",
"1491 1804 CURVE SMOOTH",
"1491 1848 OFFCURVE",
"1462 1872 OFFCURVE",
"1404 1872 CURVE SMOOTH",
"1385 1872 OFFCURVE",
"1369 1868 OFFCURVE",
"1351 1862 CURVE",
"1354 1734 LINE"
);
},
{
closed = 1;
nodes = (
"1138 1810 LINE",
"1013 1769 LINE",
"1021 1721 LINE",
"1132 1718 LINE"
);
}
);
width = 1498;
},
{
components = (
{
name = A;
},
{
name = ring.cap;
transform = "{1, 0, 0, 1, 461, 0}";
}
);
layerId = "D3934E74-9B53-4E98-B19F-CD3DFEE08352";
paths = (
{
closed = 1;
nodes = (
"1455 1721 OFFCURVE",
"1495 1754 OFFCURVE",
"1495 1807 CURVE SMOOTH",
"1495 1859 OFFCURVE",
"1460 1887 OFFCURVE",
"1390 1887 CURVE SMOOTH",
"1368 1887 OFFCURVE",
"1348 1883 OFFCURVE",
"1327 1876 CURVE",
"1331 1721 LINE SMOOTH"
);
},
{
closed = 1;
nodes = (
"1071 1814 LINE",
"922 1763 LINE",
"932 1707 LINE",
"1064 1703 LINE"
);
}
);
width = 1515;
}
);
leftKerningGroup = A;
leftMetricsKey = A;
rightKerningGroup = A;
rightMetricsKey = A;
unicode = 01FA;
},
{
glyphname = AE;
layers = (
{
background = {
paths = (
{
closed = 1;
nodes = (
"1226 1390 LINE",
"1271 1390 LINE",
"735 93 LINE",
"553 55 LINE",
"529 0 LINE",
"1734 0 LINE",
"1914 456 LINE",
"1857 456 LINE",
"1781 330 OFFCURVE",
"1693 204 OFFCURVE",
"1586 78 CURVE",
"947 78 LINE",
"1227 763 LINE",
"1572 763 LINE",
"1568 685 OFFCURVE",
"1560 606 OFFCURVE",
"1537 526 CURVE",
"1595 526 LINE",
"1818 1069 LINE",
"1762 1069 LINE",
"1717 994 OFFCURVE",
"1662 919 OFFCURVE",
"1595 843 CURVE",
"1263 843 LINE",
"1508 1445 LINE",
"1956 1445 LINE",
"2013 1346 OFFCURVE",
"2047 1229 OFFCURVE",
"2070 1088 CURVE",
"2123 1088 LINE",
"2107 1523 LINE",
"1064 1523 LINE",
"1043 1479 LINE",
"1226 1436 LINE"
);
},
{
closed = 1;
nodes = (
"979 639 LINE",
"563 639 LINE",
"499 561 LINE",
"949 561 LINE"
);
},
{
closed = 1;
nodes = (
"1231 1479 LINE",
"145 275 LINE SMOOTH",
"13 128 OFFCURVE",
"-41 83 OFFCURVE",
"-226 55 CURVE",
"-252 0 LINE",
"306 0 LINE",
"332 55 LINE",
"218 71 OFFCURVE",
"168 94 OFFCURVE",
"168 138 CURVE SMOOTH",
"168 169 OFFCURVE",
"189 203 OFFCURVE",
"253 271 CURVE SMOOTH",
"1314 1445 LINE"
);
}
);
};
layerId = master01;
paths = (
{
closed = 1;
nodes = (
"1226 1390 LINE",
"1271 1390 LINE",
"730 83 LINE",
"548 45 LINE",
"529 0 LINE",
"1734 0 LINE",
"1914 456 LINE",
"1857 456 LINE",
"1781 330 OFFCURVE",
"1693 204 OFFCURVE",
"1586 78 CURVE",
"947 78 LINE",
"1227 763 LINE",
"1572 763 LINE",
"1568 685 OFFCURVE",
"1560 606 OFFCURVE",
"1537 526 CURVE",
"1595 526 LINE",
"1818 1069 LINE",
"1762 1069 LINE",
"1717 994 OFFCURVE",
"1662 919 OFFCURVE",
"1595 843 CURVE",
"1263 843 LINE",
"1508 1445 LINE",
"1956 1445 LINE",
"2013 1346 OFFCURVE",
"2047 1229 OFFCURVE",
"2070 1088 CURVE",
"2123 1088 LINE",
"2107 1523 LINE",
"1064 1523 LINE",
"1043 1479 LINE",
"1226 1436 LINE"
);
},
{
closed = 1;
nodes = (
"979 639 LINE",
"563 639 LINE",
"499 561 LINE",
"949 561 LINE"
);
},
{
closed = 1;
nodes = (
"1231 1479 LINE",
"145 275 LINE SMOOTH",
"13 128 OFFCURVE",
"-46 73 OFFCURVE",
"-230 45 CURVE",
"-252 0 LINE",
"306 0 LINE",
"327 45 LINE",
"213 61 OFFCURVE",
"168 94 OFFCURVE",
"168 138 CURVE SMOOTH",
"168 169 OFFCURVE",
"189 203 OFFCURVE",
"253 271 CURVE SMOOTH",
"1314 1445 LINE"
);
}
);
width = 2055;
},
{
background = {
paths = (
{
closed = 1;
nodes = (
"1210 1389 LINE",
"1253 1389 LINE",
"719 106 LINE",
"540 68 LINE",
"511 0 LINE",
"1787 0 LINE",
"1971 463 LINE",
"1902 463 LINE",
"1824 341 OFFCURVE",
"1733 229 OFFCURVE",
"1613 108 CURVE",
"1059 108 LINE",
"1327 752 LINE",
"1541 752 LINE",
"1561 679 OFFCURVE",
"1567 602 OFFCURVE",
"1558 529 CURVE",
"1641 529 LINE",
"1871 1082 LINE",
"1788 1082 LINE",
"1749 1020 OFFCURVE",
"1682 947 OFFCURVE",
"1586 859 CURVE",
"1371 859 LINE",
"1603 1415 LINE",
"1954 1415 LINE",
"2015 1330 OFFCURVE",
"2066 1225 OFFCURVE",
"2110 1088 CURVE",
"2179 1088 LINE",
"2161 1523 LINE",
"1043 1523 LINE",
"1014 1455 LINE",
"1210 1424 LINE"
);
},
{
closed = 1;
nodes = (
"1024 547 LINE",
"386 547 LINE",
"340 443 LINE",
"978 443 LINE"
);
},
{
closed = 1;
nodes = (
"1185 1495 LINE",
"143 292 LINE SMOOTH",
"-6 122 OFFCURVE",
"-38 102 OFFCURVE",
"-225 68 CURVE",
"-252 0 LINE",
"366 0 LINE",
"394 68 LINE",
"264 94 OFFCURVE",
"214 121 OFFCURVE",
"214 165 CURVE SMOOTH",
"214 193 OFFCURVE",
"235 231 OFFCURVE",
"284 289 CURVE SMOOTH",
"1298 1449 LINE"
);
}
);
};
layerId = "D3934E74-9B53-4E98-B19F-CD3DFEE08352";
paths = (
{
closed = 1;
nodes = (
"1210 1398 LINE",
"1268 1398 LINE",
"730 106 LINE",
"552 68 LINE",
"523 0 LINE",
"1785 0 LINE",
"1969 463 LINE",
"1900 463 LINE",
"1822 341 OFFCURVE",
"1731 229 OFFCURVE",
"1611 104 CURVE",
"1043 104 LINE",
"1314 754 LINE",
"1538 754 LINE",
"1559 679 OFFCURVE",
"1565 602 OFFCURVE",
"1556 529 CURVE",
"1639 529 LINE",
"1869 1082 LINE",
"1786 1082 LINE",
"1747 1020 OFFCURVE",
"1680 947 OFFCURVE",
"1583 858 CURVE",
"1358 858 LINE",
"1591 1420 LINE",
"1952 1420 LINE",
"2013 1330 OFFCURVE",
"2063 1225 OFFCURVE",
"2107 1088 CURVE",
"2176 1088 LINE",
"2159 1523 LINE",
"1009 1523 LINE",
"980 1455 LINE",
"1210 1424 LINE"
);
},
{
closed = 1;
nodes = (
"1024 547 LINE",
"386 547 LINE",
"340 443 LINE",
"978 443 LINE"
);
},
{
closed = 1;
nodes = (
"1185 1495 LINE",
"143 292 LINE SMOOTH",
"-6 122 OFFCURVE",
"-38 102 OFFCURVE",
"-225 68 CURVE",
"-252 0 LINE",
"366 0 LINE",
"394 68 LINE",
"264 94 OFFCURVE",
"214 121 OFFCURVE",
"214 165 CURVE SMOOTH",
"214 193 OFFCURVE",
"235 231 OFFCURVE",
"284 289 CURVE SMOOTH",
"1295 1449 LINE"
);
}
);
width = 2095;
}
);
leftMetricsKey = A;
rightKerningGroup = E;
rightMetricsKey = E;
unicode = 00C6;
},
{
glyphname = B;
layers = (
{
background = {
paths = (
{
closed = 1;
nodes = (
"585 0 LINE SMOOTH",
"968 0 OFFCURVE",
"1223 184 OFFCURVE",
"1223 463 CURVE SMOOTH",
"1223 630 OFFCURVE",
"1134 746 OFFCURVE",
"976 786 CURVE",
"976 793 LINE",
"1238 834 OFFCURVE",
"1431 1013 OFFCURVE",
"1431 1214 CURVE SMOOTH",
"1431 1406 OFFCURVE",
"1252 1523 OFFCURVE",
"971 1523 CURVE SMOOTH",
"496 1523 LINE",
"473 1468 LINE",
"629 1430 LINE",
"70 93 LINE",
"-105 55 LINE",
"-126 0 LINE"
);
},
{
closed = 1;
nodes = (
"368 75 OFFCURVE",
"327 94 OFFCURVE",
"327 146 CURVE SMOOTH",
"327 172 OFFCURVE",
"337 211 OFFCURVE",
"360 267 CURVE SMOOTH",
"567 770 LINE",
"709 770 LINE SMOOTH",
"911 770 OFFCURVE",
"1010 685 OFFCURVE",
"1010 497 CURVE SMOOTH",
"1010 226 OFFCURVE",
"827 75 OFFCURVE",
"480 75 CURVE SMOOTH"
);
},
{
closed = 1;
nodes = (
"850 1443 LINE",
"971 1443 LINE SMOOTH",
"1139 1443 OFFCURVE",
"1225 1369 OFFCURVE",
"1225 1211 CURVE SMOOTH",
"1225 985 OFFCURVE",
"1064 849 OFFCURVE",
"785 849 CURVE SMOOTH",
"600 849 LINE"
);
}
);
};
guideLines = (
{
position = "{1541, 1251}";
}
);
layerId = master01;
paths = (
{
closed = 1;
nodes = (
"585 0 LINE SMOOTH",
"968 0 OFFCURVE",
"1223 184 OFFCURVE",
"1223 463 CURVE SMOOTH",
"1223 630 OFFCURVE",
"1134 746 OFFCURVE",
"976 786 CURVE",
"976 793 LINE",
"1238 834 OFFCURVE",
"1431 1013 OFFCURVE",
"1431 1214 CURVE SMOOTH",
"1431 1406 OFFCURVE",
"1252 1523 OFFCURVE",
"971 1523 CURVE SMOOTH",
"496 1523 LINE",
"478 1479 LINE",
"633 1441 LINE",
"66 83 LINE",
"-109 45 LINE",
"-126 0 LINE"
);
},
{
closed = 1;
nodes = (
"368 75 OFFCURVE",
"327 94 OFFCURVE",
"327 146 CURVE SMOOTH",
"327 172 OFFCURVE",
"337 211 OFFCURVE",
"360 267 CURVE SMOOTH",
"567 770 LINE",
"709 770 LINE SMOOTH",
"911 770 OFFCURVE",
"1010 685 OFFCURVE",
"1010 497 CURVE SMOOTH",
"1010 226 OFFCURVE",
"827 75 OFFCURVE",
"480 75 CURVE SMOOTH"
);
},
{
closed = 1;
nodes = (
"850 1443 LINE",
"971 1443 LINE SMOOTH",
"1139 1443 OFFCURVE",
"1225 1369 OFFCURVE",
"1225 1211 CURVE SMOOTH",
"1225 985 OFFCURVE",
"1064 849 OFFCURVE",
"785 849 CURVE SMOOTH",
"600 849 LINE"
);
}
);
width = 1376;
},
{
background = {
paths = (
{
closed = 1;
nodes = (
"1313 -21 OFFCURVE",
"1796 507 OFFCURVE",
"1796 1025 CURVE SMOOTH",
"1796 1346 OFFCURVE",
"1597 1544 OFFCURVE",
"1246 1544 CURVE SMOOTH",
"667 1544 OFFCURVE",
"180 1023 OFFCURVE",
"180 501 CURVE SMOOTH",
"180 183 OFFCURVE",
"371 -21 OFFCURVE",
"723 -21 CURVE SMOOTH"
);
},
{
closed = 1;
nodes = (
"602 88 OFFCURVE",
"522 200 OFFCURVE",
"522 421 CURVE SMOOTH",
"522 918 OFFCURVE",
"862 1436 OFFCURVE",
"1214 1436 CURVE SMOOTH",
"1373 1436 OFFCURVE",
"1454 1325 OFFCURVE",
"1454 1105 CURVE SMOOTH",
"1454 603 OFFCURVE",
"1116 88 OFFCURVE",
"765 88 CURVE SMOOTH"
);
}
);
};
guideLines = (
{
position = "{736, 703}";
}
);
layerId = "D3934E74-9B53-4E98-B19F-CD3DFEE08352";
paths = (
{
closed = 1;
nodes = (
"600 0 LINE SMOOTH",
"1018 0 OFFCURVE",
"1297 204 OFFCURVE",
"1297 474 CURVE SMOOTH",
"1297 647 OFFCURVE",
"1198 762 OFFCURVE",
"972 791 CURVE",
"972 804 LINE",
"1345 856 OFFCURVE",
"1527 1006 OFFCURVE",
"1527 1213 CURVE SMOOTH",
"1527 1413 OFFCURVE",
"1352 1523 OFFCURVE",
"989 1523 CURVE SMOOTH",
"485 1523 LINE",
"456 1455 LINE",
"622 1416 LINE",
"77 106 LINE",
"-101 68 LINE",
"-130 0 LINE"
);
},
{
closed = 1;
nodes = (
"479 104 OFFCURVE",
"438 126 OFFCURVE",
"438 170 CURVE SMOOTH",
"438 182 OFFCURVE",
"441 199 OFFCURVE",
"450 222 CURVE SMOOTH",
"675 759 LINE",
"736 759 LINE SMOOTH",
"899 759 OFFCURVE",
"976 682 OFFCURVE",
"975 518 CURVE SMOOTH",
"974 272 OFFCURVE",
"807 104 OFFCURVE",
"564 104 CURVE SMOOTH"
);
},
{
closed = 1;
nodes = (
"949 1420 LINE",
"960 1420 LINE SMOOTH",
"1123 1420 OFFCURVE",
"1206 1344 OFFCURVE",
"1206 1193 CURVE SMOOTH",
"1206 993 OFFCURVE",
"1056 862 OFFCURVE",
"821 862 CURVE SMOOTH",
"717 862 LINE"
);
}
);
width = 1429;
}
);
leftKerningGroup = I;
leftMetricsKey = I;
rightKerningGroup = B;
unicode = 0042;
},
{
glyphname = C;
layers = (
{
anchors = (
{
name = bottom;
position = "{618, 0}";
},
{
name = topcap;
position = "{1324, 1643}";
}
);
guideLines = (
{
angle = 68;
position = "{1272, 772}";
}
);
layerId = master01;
paths = (
{
closed = 1;
nodes = (
"785 -21 OFFCURVE",
"921 29 OFFCURVE",
"1078 153 CURVE",
"1086 153 LINE",
"1070 0 LINE",
"1124 0 LINE",
"1343 580 LINE",
"1286 580 LINE",
"1150 265 OFFCURVE",
"915 73 OFFCURVE",
"661 73 CURVE SMOOTH",
"461 73 OFFCURVE",
"359 193 OFFCURVE",
"359 433 CURVE SMOOTH",
"359 944 OFFCURVE",
"804 1457 OFFCURVE",
"1248 1457 CURVE SMOOTH",
"1403 1457 OFFCURVE",
"1474 1396 OFFCURVE",
"1474 1255 CURVE SMOOTH",
"1474 1203 OFFCURVE",
"1465 1142 OFFCURVE",
"1444 1069 CURVE",
"1502 1069 LINE",
"1694 1523 LINE",
"1650 1523 LINE",
"1579 1459 LINE",
"1507 1512 OFFCURVE",
"1394 1544 OFFCURVE",
"1268 1544 CURVE SMOOTH",
"706 1544 OFFCURVE",
"142 982 OFFCURVE",
"142 421 CURVE SMOOTH",
"142 128 OFFCURVE",
"296 -21 OFFCURVE",
"607 -21 CURVE SMOOTH"
);
}
);
width = 1468;
},
{
anchors = (
{
name = bottom;
position = "{600, 0}";
},
{
name = topcap;
position = "{1306, 1643}";
}
);
background = {
paths = (
{
closed = 1;
nodes = (
"859 -21 OFFCURVE",
"1023 38 OFFCURVE",
"1165 129 CURVE",
"1170 129 LINE",
"1172 0 LINE",
"1241 0 LINE",
"1481 611 LINE",
"1412 611 LINE",
"1233 278 OFFCURVE",
"965 88 OFFCURVE",
"752 88 CURVE SMOOTH",
"583 88 OFFCURVE",
"496 199 OFFCURVE",
"496 444 CURVE SMOOTH",
"496 975 OFFCURVE",
"841 1436 OFFCURVE",
"1255 1436 CURVE SMOOTH",
"1460 1436 OFFCURVE",
"1579 1323 OFFCURVE",
"1579 1126 CURVE SMOOTH",
"1579 1093 OFFCURVE",
"1576 1065 OFFCURVE",
"1571 1039 CURVE",
"1640 1039 LINE",
"1838 1523 LINE",
"1769 1523 LINE",
"1648 1397 LINE",
"1541 1510 OFFCURVE",
"1411 1544 OFFCURVE",
"1251 1544 CURVE SMOOTH",
"664 1544 OFFCURVE",
"153 1067 OFFCURVE",
"153 501 CURVE SMOOTH",
"153 169 OFFCURVE",
"340 -21 OFFCURVE",
"674 -21 CURVE SMOOTH"
);
}
);
};
layerId = "D3934E74-9B53-4E98-B19F-CD3DFEE08352";
paths = (
{
closed = 1;
nodes = (
"859 -21 OFFCURVE",
"1023 38 OFFCURVE",
"1165 129 CURVE",
"1170 129 LINE",
"1172 0 LINE",
"1241 0 LINE",
"1481 611 LINE",
"1412 611 LINE",
"1233 278 OFFCURVE",
"965 88 OFFCURVE",
"752 88 CURVE SMOOTH",
"583 88 OFFCURVE",
"496 187 OFFCURVE",
"496 432 CURVE SMOOTH",
"496 964 OFFCURVE",
"872 1438 OFFCURVE",
"1262 1438 CURVE SMOOTH",
"1457 1438 OFFCURVE",
"1556 1324 OFFCURVE",
"1556 1126 CURVE SMOOTH",
"1556 1093 OFFCURVE",
"1553 1065 OFFCURVE",
"1548 1039 CURVE",
"1617 1039 LINE",
"1815 1523 LINE",
"1746 1523 LINE",
"1662 1435 LINE",
"1561 1507 OFFCURVE",
"1413 1544 OFFCURVE",
"1257 1544 CURVE SMOOTH",
"696 1544 OFFCURVE",
"153 1055 OFFCURVE",
"153 488 CURVE SMOOTH",
"153 157 OFFCURVE",
"340 -21 OFFCURVE",
"674 -21 CURVE SMOOTH"
);
}
);
width = 1574;
}
);
leftKerningGroup = C;
leftMetricsKey = O;
rightKerningGroup = C;
unicode = 0043;
},
{
glyphname = D;
layers = (
{
anchors = (
{
name = bottom;
position = "{508, 0}";
},
{
name = topcap;
position = "{1141, 1643}";
}
);
layerId = master01;
paths = (
{
closed = 1;
nodes = (
"482 0 LINE SMOOTH",
"1105 0 OFFCURVE",
"1550 466 OFFCURVE",
"1550 965 CURVE SMOOTH",
"1550 1338 OFFCURVE",
"1298 1523 OFFCURVE",
"906 1523 CURVE SMOOTH",
"499 1523 LINE",
"478 1479 LINE",
"633 1441 LINE",
"71 83 LINE",
"-112 45 LINE",
"-131 0 LINE"
);
},
{
closed = 1;
nodes = (
"370 83 OFFCURVE",
"332 104 OFFCURVE",
"332 159 CURVE SMOOTH",
"332 182 OFFCURVE",
"340 214 OFFCURVE",
"358 256 CURVE SMOOTH",
"850 1445 LINE",
"904 1445 LINE SMOOTH",
"1170 1445 OFFCURVE",
"1331 1313 OFFCURVE",
"1331 1010 CURVE SMOOTH",
"1331 516 OFFCURVE",
"921 83 OFFCURVE",
"476 83 CURVE SMOOTH"
);
}
);
width = 1548;
},
{
anchors = (
{
name = bottom;
position = "{596, 0}";
},
{
name = topcap;
position = "{1230, 1643}";
}
);
layerId = "D3934E74-9B53-4E98-B19F-CD3DFEE08352";
paths = (
{
closed = 1;
nodes = (
"593 0 LINE",
"1261 0 OFFCURVE",
"1749 409 OFFCURVE",
"1749 934 CURVE SMOOTH",
"1749 1318 OFFCURVE",
"1497 1523 OFFCURVE",
"1033 1523 CURVE SMOOTH",
"485 1523 LINE",
"456 1455 LINE",
"622 1416 LINE",
"77 106 LINE",
"-101 68 LINE",
"-130 0 LINE"
);
},
{
closed = 1;
nodes = (
"488 107 OFFCURVE",
"451 131 OFFCURVE",
"451 176 CURVE SMOOTH",
"451 190 OFFCURVE",
"455 207 OFFCURVE",
"463 226 CURVE SMOOTH",
"958 1414 LINE",
"1044 1414 LINE SMOOTH",
"1270 1414 OFFCURVE",
"1407 1278 OFFCURVE",
"1407 994 CURVE SMOOTH",
"1407 522 OFFCURVE",
"1035 107 OFFCURVE",
"561 107 CURVE SMOOTH"
);
}
);
width = 1739;
}
);
leftKerningGroup = I;
leftMetricsKey = I;
rightKerningGroup = D;
rightMetricsKey = O;
unicode = 0044;
},
{
glyphname = Eth;
layers = (
{
components = (
{
name = D;
transform = "{1, 0, 0, 1, 1, 0}";
}
);
layerId = master01;
paths = (
{
closed = 1;
nodes = (
"820 744 LINE",
"857 831 LINE",
"151 831 LINE",
"115 744 LINE"
);
}
);
width = 1549;
},
{
background = {
paths = (
{
closed = 1;
nodes = (
"860 744 LINE",
"897 831 LINE",
"191 831 LINE",
"155 744 LINE"
);
}
);
};
components = (
{
name = D;
transform = "{1, 0, 0, 1, 1, 0}";
}
);
layerId = "D3934E74-9B53-4E98-B19F-CD3DFEE08352";
paths = (
{
closed = 1;
nodes = (
"874 721 LINE",
"929 854 LINE",
"177 854 LINE",
"123 721 LINE"
);
}
);
width = 1740;
}
);
leftKerningGroup = I;
rightKerningGroup = D;
rightMetricsKey = D;
unicode = 00D0;
},
{
glyphname = Dcroat;
layers = (
{
background = {
components = (
{
name = D;
transform = "{1, 0, 0, 1, 5, 0}";
}
);
paths = (
{
closed = 1;
nodes = (
"859 744 LINE",
"896 831 LINE",
"190 831 LINE",
"154 744 LINE"
);
}
);
};
components = (
{
name = Eth;
}
);
layerId = master01;
width = 1549;
},
{
background = {
components = (
{
name = D;
}
);
paths = (
{
closed = 1;
nodes = (
"873 721 LINE",
"928 854 LINE",
"176 854 LINE",
"122 721 LINE"
);
}
);
};
components = (
{
name = Eth;
}
);
layerId = "D3934E74-9B53-4E98-B19F-CD3DFEE08352";
width = 1740;
}
);
leftKerningGroup = I;
leftMetricsKey = D;
rightKerningGroup = D;
rightMetricsKey = D;
unicode = 0110;
},
{
glyphname = E;
layers = (
{
anchors = (
{
name = bottom;
position = "{480, 0}";
},
{
name = topcap;
position = "{1108, 1643}";
}
);
layerId = master01;
paths = (
{
closed = 1;
nodes = (
"1074 0 LINE",
"1254 456 LINE",
"1196 456 LINE",
"1122 330 OFFCURVE",
"1033 204 OFFCURVE",
"926 78 CURVE",
"287 78 LINE",
"568 763 LINE",
"912 763 LINE",
"907 685 OFFCURVE",
"899 606 OFFCURVE",
"879 526 CURVE",
"936 526 LINE",
"1160 1069 LINE",
"1102 1069 LINE",
"1056 994 OFFCURVE",
"1001 919 OFFCURVE",
"936 843 CURVE",
"603 843 LINE",
"849 1445 LINE",
"1295 1445 LINE",
"1353 1346 OFFCURVE",
"1386 1229 OFFCURVE",
"1411 1088 CURVE",
"1465 1088 LINE",
"1449 1523 LINE",
"499 1523 LINE",
"478 1479 LINE",
"633 1441 LINE",
"71 83 LINE",
"-112 45 LINE",
"-131 0 LINE"
);
}
);
width = 1396;
},
{
anchors = (
{
name = bottom;
position = "{606, 0}";
},
{
name = topcap;
position = "{1118, 1643}";
}
);
background = {
paths = (
{
closed = 1;
nodes = (
"1154 0 LINE",
"1338 463 LINE",
"1269 463 LINE",
"1191 341 OFFCURVE",
"1100 229 OFFCURVE",
"980 104 CURVE",
"412 104 LINE",
"682 753 LINE",
"907 753 LINE",
"928 679 OFFCURVE",
"934 602 OFFCURVE",
"925 529 CURVE",
"1008 529 LINE",
"1238 1082 LINE",
"1155 1082 LINE",
"1116 1020 OFFCURVE",
"1049 947 OFFCURVE",
"952 857 CURVE",
"725 857 LINE",
"960 1420 LINE",
"1321 1420 LINE",
"1382 1330 OFFCURVE",
"1432 1225 OFFCURVE",
"1476 1088 CURVE",
"1545 1088 LINE",
"1528 1523 LINE",
"485 1523 LINE",
"456 1455 LINE",
"622 1416 LINE",
"76 106 LINE",
"-102 68 LINE",
"-131 0 LINE"
);
}
);
};
guideLines = (
{
position = "{1084, 699}";
}
);
layerId = "D3934E74-9B53-4E98-B19F-CD3DFEE08352";
paths = (
{
closed = 1;
nodes = (
"1154 0 LINE",
"1338 463 LINE",
"1269 463 LINE",
"1193 344 OFFCURVE",
"1103 233 OFFCURVE",
"980 104 CURVE",
"412 104 LINE",
"682 753 LINE",
"921 753 LINE",
"928 677 OFFCURVE",
"925 577 OFFCURVE",
"917 510 CURVE",
"1000 510 LINE",
"1222 1043 LINE",
"1139 1043 LINE",
"1100 994 OFFCURVE",
"1031 920 OFFCURVE",
"955 857 CURVE",
"725 857 LINE",
"960 1420 LINE",
"1321 1420 LINE",
"1384 1327 OFFCURVE",
"1434 1221 OFFCURVE",
"1476 1088 CURVE",
"1545 1088 LINE",
"1528 1523 LINE",
"485 1523 LINE",
"456 1455 LINE",
"622 1416 LINE",
"76 106 LINE",
"-102 68 LINE",
"-131 0 LINE"
);
}
);
width = 1464;
}
);
leftKerningGroup = I;
leftMetricsKey = I;
rightKerningGroup = E;
unicode = 0045;
},
{
glyphname = F;
layers = (
{
layerId = master01;
paths = (
{
closed = 1;
nodes = (
"499 0 LINE",
"518 45 LINE",
"287 78 LINE",
"557 740 LINE",
"902 740 LINE",
"898 661 OFFCURVE",
"890 582 OFFCURVE",
"868 503 CURVE",
"926 503 LINE",
"1149 1044 LINE",
"1092 1044 LINE",
"1047 970 OFFCURVE",
"990 895 OFFCURVE",
"926 820 CURVE",
"593 820 LINE",
"849 1445 LINE",
"1312 1445 LINE",
"1358 1346 OFFCURVE",
"1391 1229 OFFCURVE",
"1411 1088 CURVE",
"1465 1088 LINE",
"1465 1523 LINE",
"499 1523 LINE",
"478 1479 LINE",
"633 1441 LINE",
"71 83 LINE",
"-112 45 LINE",
"-131 0 LINE"
);
}
);
width = 1236;
},
{
background = {
paths = (
{
closed = 1;
nodes = (
"598 0 LINE",
"626 68 LINE",
"413 106 LINE",
"675 736 LINE",
"900 736 LINE",
"921 663 OFFCURVE",
"927 586 OFFCURVE",
"918 512 CURVE",
"1001 512 LINE",
"1231 1066 LINE",
"1148 1066 LINE",
"1109 1004 OFFCURVE",
"1042 930 OFFCURVE",
"945 843 CURVE",
"720 843 LINE",
"958 1415 LINE",
"1321 1415 LINE",
"1382 1330 OFFCURVE",
"1432 1225 OFFCURVE",
"1476 1088 CURVE",
"1545 1088 LINE",
"1528 1523 LINE",
"485 1523 LINE",
"456 1455 LINE",
"622 1416 LINE",
"76 106 LINE",
"-102 68 LINE",
"-131 0 LINE"
);
}
);
};
layerId = "D3934E74-9B53-4E98-B19F-CD3DFEE08352";
paths = (
{
closed = 1;
nodes = (
"598 0 LINE",
"626 68 LINE",
"413 106 LINE",
"675 737 LINE",
"900 737 LINE",
"921 663 OFFCURVE",
"927 586 OFFCURVE",
"918 512 CURVE",
"1001 512 LINE",
"1231 1066 LINE",
"1148 1066 LINE",
"1109 1004 OFFCURVE",
"1042 930 OFFCURVE",
"945 841 CURVE",
"719 841 LINE",
"960 1420 LINE",
"1321 1420 LINE",
"1382 1330 OFFCURVE",
"1432 1225 OFFCURVE",
"1476 1088 CURVE",
"1545 1088 LINE",
"1528 1523 LINE",
"485 1523 LINE",
"456 1455 LINE",
"622 1416 LINE",
"76 106 LINE",
"-102 68 LINE",
"-131 0 LINE"
);
}
);
width = 1339;
}
);
leftKerningGroup = I;
leftMetricsKey = I;
rightKerningGroup = F;
unicode = 0046;
},
{
glyphname = G;
layers = (
{
anchors = (
{
name = bottom;
position = "{632, 0}";
},
{
name = topcap;
position = "{1325, 1643}";
}
);
background = {
paths = (
{
closed = 1;
nodes = (
"1104 -21 OFFCURVE",
"1594 512 OFFCURVE",
"1594 1051 CURVE SMOOTH",
"1594 1365 OFFCURVE",
"1427 1544 OFFCURVE",
"1138 1544 CURVE SMOOTH",
"647 1544 OFFCURVE",
"157 1005 OFFCURVE",
"157 466 CURVE SMOOTH",
"157 159 OFFCURVE",
"322 -21 OFFCURVE",
"609 -21 CURVE SMOOTH"
);
},
{
closed = 1;
nodes = (
"466 73 OFFCURVE",
"386 184 OFFCURVE",
"386 416 CURVE SMOOTH",
"386 925 OFFCURVE",
"763 1457 OFFCURVE",
"1126 1457 CURVE SMOOTH",
"1292 1457 OFFCURVE",
"1374 1346 OFFCURVE",
"1374 1118 CURVE SMOOTH",
"1374 603 OFFCURVE",
"1002 73 OFFCURVE",
"639 73 CURVE SMOOTH"
);
}
);
};
guideLines = (
{
angle = 68;
position = "{1288, 750}";
}
);
layerId = master01;
paths = (
{
closed = 1;
nodes = (
"828 -21 OFFCURVE",
"1016 28 OFFCURVE",
"1177 117 CURVE",
"1409 681 LINE",
"1599 719 LINE",
"1620 763 LINE",
"1057 763 LINE",
"1038 719 LINE",
"1201 681 LINE",
"1050 314 LINE SMOOTH",
"979 143 OFFCURVE",
"875 68 OFFCURVE",
"707 68 CURVE SMOOTH",
"489 68 OFFCURVE",
"382 198 OFFCURVE",
"382 461 CURVE SMOOTH",
"382 976 OFFCURVE",
"792 1457 OFFCURVE",
"1230 1457 CURVE SMOOTH",
"1401 1457 OFFCURVE",
"1484 1383 OFFCURVE",
"1484 1229 CURVE SMOOTH",
"1484 1177 OFFCURVE",
"1475 1120 OFFCURVE",
"1458 1049 CURVE",
"1517 1049 LINE",
"1711 1523 LINE",
"1664 1523 LINE",
"1563 1435 LINE",
"1475 1511 OFFCURVE",
"1376 1544 OFFCURVE",
"1238 1544 CURVE SMOOTH",
"698 1544 OFFCURVE",
"159 1008 OFFCURVE",
"159 469 CURVE SMOOTH",
"159 159 OFFCURVE",
"343 -21 OFFCURVE",
"664 -21 CURVE SMOOTH"
);
}
);
width = 1579;
},
{
anchors = (
{
name = bottom;
position = "{701, 0}";
},
{
name = topcap;
position = "{1381, 1643}";
}
);
layerId = "D3934E74-9B53-4E98-B19F-CD3DFEE08352";
paths = (
{
closed = 1;
nodes = (
"949 -21 OFFCURVE",
"1214 51 OFFCURVE",
"1391 161 CURVE",
"1590 656 LINE",
"1769 696 LINE",
"1797 763 LINE",
"1118 763 LINE",
"1089 696 LINE",
"1255 656 LINE",
"1119 318 LINE SMOOTH",
"1063 177 OFFCURVE",
"925 88 OFFCURVE",
"763 88 CURVE SMOOTH",
"590 88 OFFCURVE",
"502 199 OFFCURVE",
"502 421 CURVE SMOOTH",
"502 967 OFFCURVE",
"864 1436 OFFCURVE",
"1284 1436 CURVE SMOOTH",
"1495 1436 OFFCURVE",
"1619 1317 OFFCURVE",
"1619 1126 CURVE SMOOTH",
"1619 1099 OFFCURVE",
"1617 1070 OFFCURVE",
"1611 1039 CURVE",
"1678 1039 LINE",
"1879 1523 LINE",
"1809 1523 LINE",
"1677 1420 LINE",
"1561 1507 OFFCURVE",
"1444 1544 OFFCURVE",
"1279 1544 CURVE SMOOTH",
"687 1544 OFFCURVE",
"162 1062 OFFCURVE",
"162 524 CURVE SMOOTH",
"162 166 OFFCURVE",
"349 -21 OFFCURVE",
"719 -21 CURVE SMOOTH"
);
}
);
width = 1745;
}
);
leftKerningGroup = C;
leftMetricsKey = O;
rightKerningGroup = G;
unicode = 0047;
},
{
glyphname = H;
layers = (
{
anchors = (
{
name = bottom;
position = "{618, 0}";
},
{
name = topcap;
position = "{1307, 1643}";
}
);
layerId = master01;
paths = (
{
closed = 1;
nodes = (
"1997 1523 LINE",
"1423 1523 LINE",
"1403 1479 LINE",
"1567 1441 LINE",
"1318 841 LINE",
"613 841 LINE",
"862 1441 LINE",
"1052 1479 LINE",
"1072 1523 LINE",
"499 1523 LINE",
"478 1479 LINE",
"643 1441 LINE",
"82 83 LINE",
"-111 45 LINE",
"-131 0 LINE",
"441 0 LINE",
"462 45 LINE",
"298 83 LINE",
"579 762 LINE",
"1284 762 LINE",
"1003 83 LINE",
"811 45 LINE",
"791 0 LINE",
"1366 0 LINE",
"1384 45 LINE",
"1223 83 LINE",
"1787 1441 LINE",
"1979 1479 LINE"
);
}
);
width = 1664;
},
{
anchors = (
{
name = bottom;
position = "{677, 0}";
},
{
name = topcap;
position = "{1325, 1643}";
}
);
layerId = "D3934E74-9B53-4E98-B19F-CD3DFEE08352";
paths = (
{
closed = 1;
nodes = (
"2092 1523 LINE",
"1412 1523 LINE",
"1383 1455 LINE",
"1549 1416 LINE",
"1315 853 LINE",
"724 853 LINE",
"960 1416 LINE",
"1139 1455 LINE",
"1168 1523 LINE",
"485 1523 LINE",
"456 1455 LINE",
"622 1416 LINE",
"78 106 LINE",
"-100 68 LINE",
"-129 0 LINE",
"554 0 LINE",
"583 68 LINE",
"416 106 LINE",
"682 750 LINE",
"1272 750 LINE",
"1005 106 LINE",
"827 68 LINE",
"798 0 LINE",
"1480 0 LINE",
"1508 68 LINE",
"1341 106 LINE",
"1885 1416 LINE",
"2063 1455 LINE"
);
}
);
width = 1733;
}
);
leftKerningGroup = I;
leftMetricsKey = I;
rightKerningGroup = I;
rightMetricsKey = I;
unicode = 0048;
},
{
glyphname = Hbar;
layers = (
{
components = (
{
name = H;
}
);
layerId = master01;
paths = (
{
closed = 1;
nodes = (
"1817 1088 LINE",
"1855 1176 LINE",
"356 1176 LINE",
"320 1088 LINE"
);
}
);
width = 1665;
},
{
background = {
paths = (
{
closed = 1;
nodes = (
"1826 1088 LINE",
"1864 1176 LINE",
"366 1176 LINE",
"330 1088 LINE"
);
}
);
};
components = (
{
name = H;
}
);
layerId = "D3934E74-9B53-4E98-B19F-CD3DFEE08352";
paths = (
{
closed = 1;
nodes = (
"1898 1065 LINE",
"1954 1199 LINE",
"352 1199 LINE",
"298 1065 LINE"
);
}
);
width = 1768;
}
);
leftKerningGroup = I;
leftMetricsKey = H;
rightKerningGroup = I;
rightMetricsKey = H;
unicode = 0126;
},
{
glyphname = I;
layers = (
{
anchors = (
{
name = bottom;
position = "{160, 0}";
},
{
name = topcap;
position = "{866, 1643}";
}
);
layerId = master01;
paths = (
{
closed = 1;
nodes = (
"441 0 LINE",
"462 45 LINE",
"298 83 LINE",
"862 1441 LINE",
"1052 1479 LINE",
"1072 1523 LINE",
"499 1523 LINE",
"478 1479 LINE",
"643 1441 LINE",
"82 83 LINE",
"-111 45 LINE",
"-131 0 LINE"
);
}
);
width = 742;
},
{
anchors = (
{
name = bottom;
position = "{215, 0}";
},
{
name = topcap;
position = "{875, 1643}";
}
);
layerId = "D3934E74-9B53-4E98-B19F-CD3DFEE08352";
paths = (
{
closed = 1;
nodes = (
"553 0 LINE",
"582 68 LINE",
"415 107 LINE",
"959 1416 LINE",
"1138 1454 LINE",
"1166 1523 LINE",
"485 1523 LINE",
"456 1455 LINE",
"622 1416 LINE",
"78 107 LINE",
"-100 69 LINE",
"-129 0 LINE"
);
}
);
width = 806;
}
);
leftKerningGroup = I;
rightKerningGroup = I;
unicode = 0049;
},
{
glyphname = J;
layers = (
{
anchors = (
{
name = topcap;
position = "{851, 1643}";
}
);
background = {
paths = (
{
closed = 1;
nodes = (
"-368 -463 OFFCURVE",
"-321 -416 OFFCURVE",
"-321 -358 CURVE SMOOTH",
"-321 -301 OFFCURVE",
"-368 -253 OFFCURVE",
"-426 -253 CURVE SMOOTH",
"-484 -253 OFFCURVE",
"-531 -301 OFFCURVE",
"-531 -358 CURVE SMOOTH",
"-531 -416 OFFCURVE",
"-484 -463 OFFCURVE",
"-426 -463 CURVE SMOOTH"
);
}
);
};
layerId = master01;
paths = (
{
closed = 1;
nodes = (
"-75 -507 OFFCURVE",
"131 -334 OFFCURVE",
"246 -54 CURVE SMOOTH",
"868 1441 LINE",
"1058 1479 LINE",
"1079 1523 LINE",
"504 1523 LINE",
"485 1479 LINE",
"649 1441 LINE",
"25 -54 LINE SMOOTH",
"-96 -341 OFFCURVE",
"-149 -427 OFFCURVE",
"-234 -427 CURVE SMOOTH",
"-364 -427 OFFCURVE",
"-286 -252 OFFCURVE",
"-426 -252 CURVE SMOOTH",
"-478 -252 OFFCURVE",
"-527 -287 OFFCURVE",
"-527 -351 CURVE SMOOTH",
"-527 -435 OFFCURVE",
"-436 -507 OFFCURVE",
"-291 -507 CURVE SMOOTH"
);
}
);
width = 767;
},
{
anchors = (
{
name = topcap;
position = "{895, 1643}";
}
);
background = {
paths = (
{
closed = 1;
nodes = (
"-430 -420 OFFCURVE",
"-370 -360 OFFCURVE",
"-370 -287 CURVE SMOOTH",
"-370 -214 OFFCURVE",
"-430 -154 OFFCURVE",
"-503 -154 CURVE SMOOTH",
"-576 -154 OFFCURVE",
"-636 -214 OFFCURVE",
"-636 -287 CURVE SMOOTH",
"-636 -360 OFFCURVE",
"-576 -420 OFFCURVE",
"-503 -420 CURVE SMOOTH"
);
}
);
};
layerId = "D3934E74-9B53-4E98-B19F-CD3DFEE08352";
paths = (
{
closed = 1;
nodes = (
"0 -507 OFFCURVE",
"259 -290 OFFCURVE",
"405 62 CURVE SMOOTH",
"967 1413 LINE",
"1148 1451 LINE",
"1178 1523 LINE",
"509 1523 LINE",
"479 1451 LINE",
"630 1412 LINE",
"36 -17 LINE SMOOTH",
"-85 -309 OFFCURVE",
"-151 -400 OFFCURVE",
"-241 -400 CURVE SMOOTH",
"-386 -400 OFFCURVE",
"-317 -153 OFFCURVE",
"-493 -153 CURVE SMOOTH",
"-579 -153 OFFCURVE",
"-637 -211 OFFCURVE",
"-637 -288 CURVE SMOOTH",
"-637 -417 OFFCURVE",
"-478 -507 OFFCURVE",
"-290 -507 CURVE SMOOTH"
);
}
);
width = 854;
}
);
leftKerningGroup = J;
rightKerningGroup = J;
unicode = 004A;
},
{
glyphname = K;
layers = (
{
anchors = (
{
name = bottom;
position = "{557, 0}";
}
);
layerId = master01;
paths = (
{
closed = 1;
nodes = (
"850 1443 LINE",
"1011 1479 LINE",
"1031 1523 LINE",
"496 1523 LINE",
"478 1479 LINE",
"632 1441 LINE",
"67 83 LINE",
"-108 45 LINE",
"-126 0 LINE",
"501 0 LINE",
"519 45 LINE",
"284 83 LINE"
);
},
{
closed = 1;
nodes = (
"659 793 LINE",
"938 0 LINE",
"1286 0 LINE",
"1300 45 LINE",
"1125 83 LINE",
"808 924 LINE"
);
},
{
closed = 1;
nodes = (
"444 588 LINE",
"1427 1365 LINE SMOOTH",
"1513 1432 OFFCURVE",
"1574 1461 OFFCURVE",
"1689 1468 CURVE",
"1718 1523 LINE",
"1179 1523 LINE",
"1162 1479 LINE",
"1257 1474 OFFCURVE",
"1299 1445 OFFCURVE",
"1299 1406 CURVE SMOOTH",
"1299 1377 OFFCURVE",
"1270 1344 OFFCURVE",
"1210 1297 CURVE SMOOTH",
"519 750 LINE"
);
}
);
width = 1469;
},
{
anchors = (
{
name = bottom;
position = "{777, 0}";
}
);
layerId = "D3934E74-9B53-4E98-B19F-CD3DFEE08352";
paths = (
{
closed = 1;
nodes = (
"936 1416 LINE",
"1115 1455 LINE",
"1143 1523 LINE",
"485 1523 LINE",
"456 1455 LINE",
"622 1416 LINE",
"76 106 LINE",
"-102 68 LINE",
"-131 0 LINE",
"576 0 LINE",
"605 68 LINE",
"390 106 LINE"
);
},
{
closed = 1;
nodes = (
"761 765 LINE",
"964 0 LINE",
"1401 0 LINE",
"1430 68 LINE",
"1262 106 LINE",
"990 962 LINE"
);
},
{
closed = 1;
nodes = (
"578 603 LINE",
"1563 1328 LINE SMOOTH",
"1702 1423 OFFCURVE",
"1747 1441 OFFCURVE",
"1902 1455 CURVE",
"1930 1523 LINE",
"1330 1523 LINE",
"1302 1455 LINE",
"1388 1450 OFFCURVE",
"1432 1431 OFFCURVE",
"1432 1403 CURVE SMOOTH",
"1432 1383 OFFCURVE",
"1414 1360 OFFCURVE",
"1377 1333 CURVE SMOOTH",
"628 778 LINE"
);
}
);
width = 1574;
}
);
leftKerningGroup = I;
leftMetricsKey = I;
rightKerningGroup = K;
unicode = 004B;
},
{
glyphname = L;
layers = (
{
anchors = (
{
name = bottom;
position = "{527, 0}";
},
{
name = middle;
position = "{956, 748}";
},
{
name = topcap;
position = "{808, 1643}";
}
);
layerId = master01;
paths = (
{
closed = 1;
nodes = (
"1074 0 LINE",
"1264 479 LINE",
"1196 479 LINE",
"1122 355 OFFCURVE",
"1023 204 OFFCURVE",
"915 78 CURVE",
"287 78 LINE",
"844 1435 LINE",
"1044 1479 LINE",
"1064 1523 LINE",
"499 1523 LINE",
"478 1479 LINE",
"633 1441 LINE",
"71 83 LINE",
"-112 45 LINE",
"-131 0 LINE"
);
}
);
width = 1315;
},
{
anchors = (
{
name = bottom;
position = "{584, 0}";
},
{
name = middle;
position = "{1056, 748}";
},
{
name = topcap;
position = "{839, 1643}";
}
);
background = {
paths = (
{
closed = 1;
nodes = (
"1131 0 LINE",
"1322 479 LINE",
"1253 479 LINE",
"1168 341 OFFCURVE",
"1077 229 OFFCURVE",
"957 108 CURVE",
"413 108 LINE",
"959 1416 LINE",
"1138 1455 LINE",
"1166 1523 LINE",
"485 1523 LINE",
"456 1455 LINE",
"622 1416 LINE",
"76 106 LINE",
"-102 68 LINE",
"-131 0 LINE"
);
}
);
};
layerId = "D3934E74-9B53-4E98-B19F-CD3DFEE08352";
paths = (
{
closed = 1;
nodes = (
"1131 0 LINE",
"1322 479 LINE",
"1253 479 LINE",
"1168 341 OFFCURVE",
"1077 229 OFFCURVE",
"957 104 CURVE",
"411 104 LINE",
"959 1416 LINE",
"1138 1455 LINE",
"1166 1523 LINE",
"485 1523 LINE",
"456 1455 LINE",
"622 1416 LINE",
"76 106 LINE",
"-102 68 LINE",
"-131 0 LINE"
);
}
);
width = 1360;
}
);
leftKerningGroup = I;
leftMetricsKey = I;
rightKerningGroup = L;
unicode = 004C;
},
{
glyphname = Lslash;
layers = (
{
background = {
paths = (
{
closed = 1;
nodes = (
"873 912 LINE",
"877 1010 LINE",
"93 638 LINE",
"93 542 LINE"
);
}
);
};
components = (
{
name = L;
transform = "{1, 0, 0, 1, 13, 0}";
}
);
layerId = master01;
paths = (
{
closed = 1;
nodes = (
"455 714 LINE",
"525 702 LINE",
"896 877 LINE",
"900 975 LINE",
"537 803 LINE",
"468 815 LINE",
"93 638 LINE",
"93 542 LINE"
);
}
);
width = 1328;
},
{
background = {
paths = (
{
closed = 1;
nodes = (
"500 699 LINE",
"620 757 LINE",
"1034 958 LINE",
"1039 1102 LINE",
"615 896 LINE",
"502 842 LINE",
"82 638 LINE",
"82 496 LINE"
);
}
);
};
components = (
{
name = L;
transform = "{1, 0, 0, 1, 31, 0}";
}
);
layerId = "D3934E74-9B53-4E98-B19F-CD3DFEE08352";
paths = (
{
closed = 1;
nodes = (
"500 699 LINE",
"654 710 LINE",
"1069 912 LINE",
"1073 1056 LINE",
"649 850 LINE",
"502 842 LINE",
"82 638 LINE",
"82 496 LINE"
);
}
);
width = 1391;
}
);
leftKerningGroup = I;
rightKerningGroup = L;
rightMetricsKey = L;
unicode = 0141;
},
{
glyphname = M;
layers = (
{
background = {
paths = (
{
closed = 1;
nodes = (
"714 -21 LINE",
"1818 1406 LINE",
"1826 1406 LINE",
"1275 83 LINE",
"1082 45 LINE",
"1063 0 LINE",
"1624 0 LINE",
"1644 45 LINE",
"1482 83 LINE",
"2045 1441 LINE",
"2237 1479 LINE",
"2256 1523 LINE",
"1807 1523 LINE",
"864 304 LINE",
"857 304 LINE",
"1018 1523 LINE",
"553 1523 LINE",
"534 1479 LINE",
"712 1441 LINE",
"17 83 LINE",
"-174 45 LINE",
"-195 0 LINE",
"256 0 LINE",
"274 45 LINE",
"113 83 LINE",
"774 1366 LINE",
"782 1366 LINE",
"609 -21 LINE"
);
}
);
};
layerId = master01;
paths = (
{
closed = 1;
nodes = (
"704 -21 LINE",
"1807 1406 LINE",
"1815 1406 LINE",
"1263 83 LINE",
"1071 45 LINE",
"1051 0 LINE",
"1612 0 LINE",
"1633 45 LINE",
"1470 83 LINE",
"2034 1441 LINE",
"2226 1479 LINE",
"2244 1523 LINE",
"1795 1523 LINE",
"852 304 LINE",
"845 304 LINE",
"1006 1523 LINE",
"553 1523 LINE",
"534 1479 LINE",
"712 1441 LINE",
"17 83 LINE",
"-174 45 LINE",
"-195 0 LINE",
"256 0 LINE",
"274 45 LINE",
"113 83 LINE",
"774 1366 LINE",
"782 1366 LINE",
"609 -21 LINE"
);
}
);
width = 1924;
},
{
background = {
paths = (
{
closed = 1;
nodes = (
"1837 1523 LINE",
"978 486 LINE",
"971 486 LINE",
"1036 1523 LINE",
"506 1523 LINE",
"477 1455 LINE",
"643 1416 LINE",
"-17 106 LINE",
"-195 68 LINE",
"-223 0 LINE",
"243 0 LINE",
"272 68 LINE",
"105 106 LINE",
"670 1229 LINE",
"678 1229 LINE",
"598 -21 LINE",
"699 -21 LINE",
"1739 1229 LINE",
"1747 1229 LINE",
"1277 106 LINE",
"1100 68 LINE",
"1071 0 LINE",
"1756 0 LINE",
"1785 68 LINE",
"1618 106 LINE",
"2152 1416 LINE",
"2331 1455 LINE",
"2359 1523 LINE"
);
}
);
};
guideLines = (
{
position = "{1123, 1067}";
}
);
layerId = "D3934E74-9B53-4E98-B19F-CD3DFEE08352";
paths = (
{
closed = 1;
nodes = (
"710 -21 LINE",
"1739 1229 LINE",
"1747 1229 LINE",
"1293 106 LINE",
"1116 68 LINE",
"1087 0 LINE",
"1742 0 LINE",
"1771 68 LINE",
"1604 106 LINE",
"2135 1416 LINE",
"2306 1455 LINE",
"2335 1523 LINE",
"1840 1523 LINE",
"978 476 LINE",
"959 476 LINE",
"1009 1523 LINE",
"534 1523 LINE",
"506 1455 LINE",
"671 1416 LINE",
"12 106 LINE",
"-166 68 LINE",
"-195 0 LINE",
"272 0 LINE",
"301 68 LINE",
"134 106 LINE",
"699 1229 LINE",
"707 1229 LINE",
"646 -21 LINE"
);
}
);
width = 2042;
}
);
leftKerningGroup = M;
rightKerningGroup = I;
unicode = 004D;
userData = {
com.typemytype.robofont.guides = (
{
angle = 0;
isGlobal = 0;
magnetic = 5;
x = 0;
y = 23;
},
{
angle = 0;
isGlobal = 0;
magnetic = 5;
x = 0;
y = 728;
}
);
};
},
{
glyphname = N;
layers = (
{
anchors = (
{
name = bottom;
position = "{593, -21}";
},
{
name = topcap;
position = "{1299, 1643}";
}
);
background = {
paths = (
{
closed = 1;
nodes = (
"1107 -21 LINE",
"1713 1441 LINE",
"1903 1479 LINE",
"1923 1523 LINE",
"1472 1523 LINE",
"1453 1479 LINE",
"1617 1441 LINE",
"1160 339 LINE",
"1152 339 LINE",
"887 1523 LINE",
"499 1523 LINE",
"478 1479 LINE",
"643 1441 LINE",
"81 83 LINE",
"-111 45 LINE",
"-131 0 LINE",
"319 0 LINE",
"337 45 LINE",
"176 83 LINE",
"708 1366 LINE",
"715 1366 LINE",
"1036 -21 LINE"
);
}
);
};
layerId = master01;
paths = (
{
closed = 1;
nodes = (
"1107 -21 LINE",
"1713 1441 LINE",
"1903 1479 LINE",
"1923 1523 LINE",
"1472 1523 LINE",
"1453 1479 LINE",
"1617 1441 LINE",
"1164 351 LINE",
"1156 351 LINE",
"887 1523 LINE",
"499 1523 LINE",
"478 1479 LINE",
"643 1441 LINE",
"81 83 LINE",
"-111 45 LINE",
"-131 0 LINE",
"319 0 LINE",
"337 45 LINE",
"176 83 LINE",
"704 1353 LINE",
"710 1353 LINE",
"1036 -21 LINE"
);
}
);
width = 1599;
},
{
anchors = (
{
name = bottom;
position = "{637, -21}";
},
{
name = topcap;
position = "{1343, 1643}";
}
);
layerId = "D3934E74-9B53-4E98-B19F-CD3DFEE08352";
paths = (
{
closed = 1;
nodes = (
"1132 -21 LINE",
"1739 1416 LINE",
"1917 1455 LINE",
"1946 1523 LINE",
"1477 1523 LINE",
"1449 1455 LINE",
"1614 1416 LINE",
"1217 462 LINE",
"1208 462 LINE",
"876 1523 LINE",
"485 1523 LINE",
"456 1455 LINE",
"622 1416 LINE",
"84 106 LINE",
"-93 68 LINE",
"-122 0 LINE",
"340 0 LINE",
"368 68 LINE",
"202 106 LINE",
"658 1200 LINE",
"663 1200 LINE",
"1046 -21 LINE"
);
}
);
width = 1565;
}
);
leftKerningGroup = N;
leftMetricsKey = I;
rightKerningGroup = N;
rightMetricsKey = I;
unicode = 004E;
},
{
glyphname = Eng;
layers = (
{
components = (
{
name = N;
}
);
layerId = master01;
paths = (
{
closed = 1;
nodes = (
"781 -507 OFFCURVE",
"974 -336 OFFCURVE",
"1092 -56 CURVE SMOOTH",
"1107 -21 LINE",
"1031 253 LINE",
"903 -54 LINE SMOOTH",
"781 -348 OFFCURVE",
"714 -427 OFFCURVE",
"623 -427 CURVE SMOOTH",
"504 -427 OFFCURVE",
"560 -252 OFFCURVE",
"431 -252 CURVE SMOOTH",
"379 -252 OFFCURVE",
"329 -287 OFFCURVE",
"329 -351 CURVE SMOOTH",
"329 -435 OFFCURVE",
"421 -507 OFFCURVE",
"567 -507 CURVE SMOOTH"
);
}
);
width = 1599;
},
{
background = {
paths = (
{
closed = 1;
nodes = (
"691 -507 OFFCURVE",
"896 -336 OFFCURVE",
"1013 -56 CURVE SMOOTH",
"1028 -21 LINE",
"941 253 LINE",
"813 -54 LINE SMOOTH",
"691 -348 OFFCURVE",
"624 -427 OFFCURVE",
"533 -427 CURVE SMOOTH",
"415 -427 OFFCURVE",
"470 -252 OFFCURVE",
"341 -252 CURVE SMOOTH",
"289 -252 OFFCURVE",
"240 -287 OFFCURVE",
"240 -351 CURVE SMOOTH",
"240 -435 OFFCURVE",
"332 -507 OFFCURVE",
"477 -507 CURVE SMOOTH"
);
}
);
};
components = (
{
name = N;
}
);
layerId = "D3934E74-9B53-4E98-B19F-CD3DFEE08352";
paths = (
{
closed = 1;
nodes = (
"783 -507 OFFCURVE",
"988 -364 OFFCURVE",
"1132 -21 CURVE SMOOTH",
"1160 45 LINE",
"1023 345 LINE",
"909 50 LINE SMOOTH",
"762 -332 OFFCURVE",
"675 -415 OFFCURVE",
"603 -415 CURVE SMOOTH",
"492 -415 OFFCURVE",
"569 -207 OFFCURVE",
"410 -207 CURVE SMOOTH",
"334 -207 OFFCURVE",
"291 -256 OFFCURVE",
"291 -316 CURVE SMOOTH",
"291 -432 OFFCURVE",
"447 -507 OFFCURVE",
"584 -507 CURVE SMOOTH"
);
}
);
width = 1588;
}
);
leftKerningGroup = N;
leftMetricsKey = N;
rightKerningGroup = N;
rightMetricsKey = N;
unicode = 014A;
},
{
glyphname = O;
layers = (
{
anchors = (
{
name = bottom;
position = "{583, 0}";
},
{
name = topcap;
position = "{1262, 1643}";
}
);
background = {
paths = (
{
closed = 1;
nodes = (
"1960 1523 LINE",
"1386 1523 LINE",
"1366 1479 LINE",
"1530 1441 LINE",
"1282 841 LINE",
"576 841 LINE",
"826 1441 LINE",
"1016 1479 LINE",
"1035 1523 LINE",
"462 1523 LINE",
"441 1479 LINE",
"606 1441 LINE",
"45 83 LINE",
"-147 45 LINE",
"-168 0 LINE",
"404 0 LINE",
"425 45 LINE",
"261 83 LINE",
"542 762 LINE",
"1247 762 LINE",
"966 83 LINE",
"774 45 LINE",
"754 0 LINE",
"1329 0 LINE",
"1347 45 LINE",
"1186 83 LINE",
"1750 1441 LINE",
"1943 1479 LINE"
);
}
);
};
guideLines = (
{
angle = 68;
position = "{786, 680}";
},
{
position = "{1216, 1265}";
}
);
layerId = master01;
paths = (
{
closed = 1;
nodes = (
"1114 -21 OFFCURVE",
"1603 512 OFFCURVE",
"1603 1051 CURVE SMOOTH",
"1603 1365 OFFCURVE",
"1436 1544 OFFCURVE",
"1147 1544 CURVE SMOOTH",
"656 1544 OFFCURVE",
"166 1005 OFFCURVE",
"166 466 CURVE SMOOTH",
"166 159 OFFCURVE",
"332 -21 OFFCURVE",
"618 -21 CURVE SMOOTH"
);
},
{
closed = 1;
nodes = (
"476 73 OFFCURVE",
"395 184 OFFCURVE",
"395 416 CURVE SMOOTH",
"395 925 OFFCURVE",
"773 1457 OFFCURVE",
"1135 1457 CURVE SMOOTH",
"1301 1457 OFFCURVE",
"1383 1346 OFFCURVE",
"1383 1118 CURVE SMOOTH",
"1383 603 OFFCURVE",
"1011 73 OFFCURVE",
"648 73 CURVE SMOOTH"
);
}
);
width = 1573;
},
{
anchors = (
{
name = bottom;
position = "{653, 0}";
},
{
name = topcap;
position = "{1318, 1643}";
}
);
background = {
paths = (
{
closed = 1;
nodes = (
"1290 -21 OFFCURVE",
"1773 507 OFFCURVE",
"1773 1025 CURVE SMOOTH",
"1773 1346 OFFCURVE",
"1574 1544 OFFCURVE",
"1223 1544 CURVE SMOOTH",
"644 1544 OFFCURVE",
"157 1023 OFFCURVE",
"157 501 CURVE SMOOTH",
"157 183 OFFCURVE",
"348 -21 OFFCURVE",
"700 -21 CURVE SMOOTH"
);
},
{
closed = 1;
nodes = (
"579 88 OFFCURVE",
"499 200 OFFCURVE",
"499 421 CURVE SMOOTH",
"499 918 OFFCURVE",
"839 1436 OFFCURVE",
"1191 1436 CURVE SMOOTH",
"1350 1436 OFFCURVE",
"1431 1325 OFFCURVE",
"1431 1105 CURVE SMOOTH",
"1431 603 OFFCURVE",
"1093 88 OFFCURVE",
"742 88 CURVE SMOOTH"
);
}
);
};
layerId = "D3934E74-9B53-4E98-B19F-CD3DFEE08352";
paths = (
{
closed = 1;
nodes = (
"1290 -21 OFFCURVE",
"1773 507 OFFCURVE",
"1773 1025 CURVE SMOOTH",
"1773 1346 OFFCURVE",
"1574 1544 OFFCURVE",
"1223 1544 CURVE SMOOTH",
"644 1544 OFFCURVE",
"157 1023 OFFCURVE",
"157 501 CURVE SMOOTH",
"157 183 OFFCURVE",
"348 -21 OFFCURVE",
"700 -21 CURVE SMOOTH"
);
},
{
closed = 1;
nodes = (
"579 88 OFFCURVE",
"499 200 OFFCURVE",
"499 421 CURVE SMOOTH",
"499 918 OFFCURVE",
"839 1436 OFFCURVE",
"1191 1436 CURVE SMOOTH",
"1350 1436 OFFCURVE",
"1431 1325 OFFCURVE",
"1431 1105 CURVE SMOOTH",
"1431 603 OFFCURVE",
"1093 88 OFFCURVE",
"742 88 CURVE SMOOTH"
);
}
);
width = 1732;
}
);
leftKerningGroup = O;
rightKerningGroup = O;
unicode = 004F;
},
{
glyphname = Oslash;
layers = (
{
components = (
{
name = O;
}
);
layerId = master01;
paths = (
{
closed = 1;
nodes = (
"208 -295 LINE",
"1669 1759 LINE",
"1559 1759 LINE",
"104 -295 LINE"
);
}
);
width = 1573;
},
{
background = {
paths = (
{
closed = 1;
nodes = (
"208 -295 LINE",
"1669 1759 LINE",
"1559 1759 LINE",
"104 -295 LINE"
);
}
);
};
components = (
{
name = O;
}
);
layerId = "D3934E74-9B53-4E98-B19F-CD3DFEE08352";
paths = (
{
closed = 1;
nodes = (
"278 -295 LINE",
"1738 1759 LINE",
"1594 1759 LINE",
"138 -295 LINE"
);
}
);
width = 1732;
}
);
leftKerningGroup = O;
leftMetricsKey = O;
rightKerningGroup = O;
rightMetricsKey = O;
unicode = 00D8;
},
{
glyphname = Oslashacute;
layers = (
{
components = (
{
name = O;
}
);
layerId = master01;
paths = (
{
closed = 1;
nodes = (
"208 -295 LINE",
"1669 1759 LINE",
"1559 1759 LINE",
"104 -295 LINE"
);
},
{
closed = 1;
nodes = (
"1341 1703 LINE SMOOTH",
"1445 1732 OFFCURVE",
"1476 1769 OFFCURVE",
"1476 1815 CURVE SMOOTH",
"1476 1864 OFFCURVE",
"1435 1900 OFFCURVE",
"1391 1900 CURVE SMOOTH",
"1360 1900 OFFCURVE",
"1335 1890 OFFCURVE",
"1305 1868 CURVE SMOOTH",
"1019 1656 LINE",
"1041 1614 LINE"
);
}
);
width = 1573;
},
{
components = (
{
name = O;
}
);
layerId = "D3934E74-9B53-4E98-B19F-CD3DFEE08352";
paths = (
{
closed = 1;
nodes = (
"278 -295 LINE",
"1738 1759 LINE",
"1594 1759 LINE",
"138 -295 LINE"
);
},
{
closed = 1;
nodes = (
"1391 1692 LINE SMOOTH",
"1446 1702 OFFCURVE",
"1482 1746 OFFCURVE",
"1482 1803 CURVE SMOOTH",
"1482 1871 OFFCURVE",
"1431 1924 OFFCURVE",
"1363 1924 CURVE SMOOTH",
"1322 1924 OFFCURVE",
"1283 1903 OFFCURVE",
"1240 1870 CURVE SMOOTH",
"994 1674 LINE",
"1033 1622 LINE"
);
}
);
width = 1732;
}
);
leftKerningGroup = O;
leftMetricsKey = O;
rightKerningGroup = O;
rightMetricsKey = O;
unicode = 01FE;
},
{
glyphname = OE;
layers = (
{
layerId = master01;
paths = (
{
closed = 1;
nodes = (
"716 -21 OFFCURVE",
"780 -14 OFFCURVE",
"845 0 CURVE",
"1900 0 LINE",
"2080 456 LINE",
"2022 456 LINE",
"1941 320 OFFCURVE",
"1850 196 OFFCURVE",
"1751 78 CURVE",
"1112 78 LINE",
"1392 763 LINE",
"1738 763 LINE",
"1733 664 OFFCURVE",
"1723 592 OFFCURVE",
"1704 526 CURVE",
"1762 526 LINE",
"1985 1069 LINE",
"1928 1069 LINE",
"1882 994 OFFCURVE",
"1826 919 OFFCURVE",
"1762 843 CURVE",
"1429 843 LINE",
"1674 1445 LINE",
"2121 1445 LINE",
"2173 1352 OFFCURVE",
"2209 1241 OFFCURVE",
"2236 1088 CURVE",
"2290 1088 LINE",
"2274 1523 LINE",
"1411 1523 LINE",
"1360 1536 OFFCURVE",
"1303 1544 OFFCURVE",
"1237 1544 CURVE SMOOTH",
"686 1544 OFFCURVE",
"164 1021 OFFCURVE",
"164 471 CURVE SMOOTH",
"164 161 OFFCURVE",
"344 -21 OFFCURVE",
"655 -21 CURVE SMOOTH"
);
},
{
closed = 1;
nodes = (
"486 73 OFFCURVE",
"394 185 OFFCURVE",
"394 419 CURVE SMOOTH",
"394 925 OFFCURVE",
"793 1457 OFFCURVE",
"1173 1457 CURVE SMOOTH",
"1286 1457 OFFCURVE",
"1363 1419 OFFCURVE",
"1413 1341 CURVE",
"879 128 LINE",
"821 91 OFFCURVE",
"757 73 OFFCURVE",
"681 73 CURVE SMOOTH"
);
}
);
width = 2221;
},
{
background = {
paths = (
{
closed = 1;
nodes = (
"1963 0 LINE",
"2148 463 LINE",
"2078 463 LINE",
"2002 344 OFFCURVE",
"1913 233 OFFCURVE",
"1789 104 CURVE",
"1222 104 LINE",
"1491 753 LINE",
"1731 753 LINE",
"1738 677 OFFCURVE",
"1734 577 OFFCURVE",
"1726 510 CURVE",
"1809 510 LINE",
"2031 1043 LINE",
"1948 1043 LINE",
"1909 994 OFFCURVE",
"1840 920 OFFCURVE",
"1764 857 CURVE",
"1535 857 LINE",
"1770 1420 LINE",
"2130 1420 LINE",
"2194 1327 OFFCURVE",
"2243 1221 OFFCURVE",
"2286 1088 CURVE",
"2355 1088 LINE",
"2338 1523 LINE",
"1294 1523 LINE",
"1265 1455 LINE",
"1431 1416 LINE",
"886 106 LINE",
"707 68 LINE",
"678 0 LINE"
);
}
);
};
layerId = "D3934E74-9B53-4E98-B19F-CD3DFEE08352";
paths = (
{
closed = 1;
nodes = (
"773 -21 OFFCURVE",
"841 -14 OFFCURVE",
"906 0 CURVE",
"1963 0 LINE",
"2148 463 LINE",
"2078 463 LINE",
"2000 341 OFFCURVE",
"1909 229 OFFCURVE",
"1789 104 CURVE",
"1245 104 LINE",
"1515 754 LINE",
"1730 754 LINE",
"1738 677 OFFCURVE",
"1735 575 OFFCURVE",
"1726 510 CURVE",
"1809 510 LINE",
"2031 1043 LINE",
"1948 1043 LINE",
"1909 994 OFFCURVE",
"1840 920 OFFCURVE",
"1762 857 CURVE",
"1558 857 LINE",
"1793 1420 LINE",
"2130 1420 LINE",
"2191 1330 OFFCURVE",
"2242 1225 OFFCURVE",
"2286 1088 CURVE",
"2355 1088 LINE",
"2338 1523 LINE",
"1409 1523 LINE",
"1354 1537 OFFCURVE",
"1293 1544 OFFCURVE",
"1226 1544 CURVE SMOOTH",
"647 1544 OFFCURVE",
"161 1023 OFFCURVE",
"161 524 CURVE SMOOTH",
"161 183 OFFCURVE",
"351 -21 OFFCURVE",
"704 -21 CURVE SMOOTH"
);
},
{
closed = 1;
nodes = (
"582 88 OFFCURVE",
"499 200 OFFCURVE",
"499 421 CURVE SMOOTH",
"499 918 OFFCURVE",
"843 1436 OFFCURVE",
"1194 1436 CURVE SMOOTH",
"1297 1436 OFFCURVE",
"1368 1390 OFFCURVE",
"1405 1298 CURVE",
"947 195 LINE",
"891 127 OFFCURVE",
"812 88 OFFCURVE",
"727 88 CURVE SMOOTH"
);
}
);
width = 2273;
}
);
leftKerningGroup = O;
leftMetricsKey = O;
rightKerningGroup = E;
rightMetricsKey = E;
unicode = 0152;
},
{
glyphname = P;
layers = (
{
layerId = master01;
paths = (
{
closed = 1;
nodes = (
"501 0 LINE",
"519 45 LINE",
"284 83 LINE",
"525 675 LINE",
"720 675 LINE SMOOTH",
"1143 675 OFFCURVE",
"1426 875 OFFCURVE",
"1426 1176 CURVE SMOOTH",
"1426 1396 OFFCURVE",
"1259 1523 OFFCURVE",
"971 1523 CURVE SMOOTH",
"496 1523 LINE",
"478 1479 LINE",
"632 1441 LINE",
"67 83 LINE",
"-108 45 LINE",
"-126 0 LINE"
);
},
{
closed = 1;
nodes = (
"850 1443 LINE",
"971 1443 LINE SMOOTH",
"1133 1443 OFFCURVE",
"1221 1358 OFFCURVE",
"1221 1203 CURVE SMOOTH",
"1221 960 OFFCURVE",
"1009 762 OFFCURVE",
"747 762 CURVE SMOOTH",
"563 762 LINE"
);
}
);
width = 1295;
},
{
background = {
paths = (
{
closed = 1;
nodes = (
"1428 -21 OFFCURVE",
"1911 507 OFFCURVE",
"1911 1025 CURVE SMOOTH",
"1911 1346 OFFCURVE",
"1712 1544 OFFCURVE",
"1361 1544 CURVE SMOOTH",
"782 1544 OFFCURVE",
"295 1023 OFFCURVE",
"295 501 CURVE SMOOTH",
"295 183 OFFCURVE",
"486 -21 OFFCURVE",
"838 -21 CURVE SMOOTH"
);
},
{
closed = 1;
nodes = (
"717 88 OFFCURVE",
"637 200 OFFCURVE",
"637 421 CURVE SMOOTH",
"637 918 OFFCURVE",
"978 1436 OFFCURVE",
"1329 1436 CURVE SMOOTH",
"1488 1436 OFFCURVE",
"1569 1325 OFFCURVE",
"1569 1105 CURVE SMOOTH",
"1569 603 OFFCURVE",
"1231 88 OFFCURVE",
"880 88 CURVE SMOOTH"
);
}
);
};
layerId = "D3934E74-9B53-4E98-B19F-CD3DFEE08352";
paths = (
{
closed = 1;
nodes = (
"587 0 LINE",
"616 68 LINE",
"403 106 LINE",
"639 676 LINE",
"820 676 LINE SMOOTH",
"1271 676 OFFCURVE",
"1515 894 OFFCURVE",
"1515 1173 CURVE SMOOTH",
"1515 1393 OFFCURVE",
"1377 1523 OFFCURVE",
"1023 1523 CURVE SMOOTH",
"485 1523 LINE",
"456 1455 LINE",
"622 1416 LINE",
"78 106 LINE",
"-100 68 LINE",
"-129 0 LINE"
);
},
{
closed = 1;
nodes = (
"948 1420 LINE",
"982 1420 LINE SMOOTH",
"1119 1420 OFFCURVE",
"1193 1335 OFFCURVE",
"1193 1183 CURVE SMOOTH",
"1193 965 OFFCURVE",
"1027 780 OFFCURVE",
"801 780 CURVE SMOOTH",
"682 780 LINE"
);
}
);
width = 1375;
}
);
leftKerningGroup = I;
leftMetricsKey = I;
rightKerningGroup = P;
unicode = 0050;
},
{
glyphname = Thorn;
layers = (
{
layerId = master01;
paths = (
{
closed = 1;
nodes = (
"573 0 LINE",
"593 45 LINE",
"358 83 LINE",
"463 330 LINE",
"658 330 LINE SMOOTH",
"1080 330 OFFCURVE",
"1363 531 OFFCURVE",
"1363 831 CURVE SMOOTH",
"1363 1051 OFFCURVE",
"1195 1179 OFFCURVE",
"909 1179 CURVE SMOOTH",
"821 1179 LINE",
"932 1441 LINE",
"1105 1479 LINE",
"1124 1523 LINE",
"499 1523 LINE",
"478 1479 LINE",
"715 1441 LINE",
"140 83 LINE",
"-35 45 LINE",
"-51 0 LINE"
);
},
{
closed = 1;
nodes = (
"788 1099 LINE",
"909 1099 LINE SMOOTH",
"1071 1099 OFFCURVE",
"1157 1013 OFFCURVE",
"1157 859 CURVE SMOOTH",
"1157 615 OFFCURVE",
"947 417 OFFCURVE",
"684 417 CURVE SMOOTH",
"501 417 LINE"
);
}
);
width = 1388;
},
{
background = {
paths = (
{
closed = 1;
nodes = (
"634 0 LINE",
"663 68 LINE",
"450 106 LINE",
"539 319 LINE",
"782 319 LINE SMOOTH",
"1215 319 OFFCURVE",
"1506 524 OFFCURVE",
"1506 828 CURVE SMOOTH",
"1506 1066 OFFCURVE",
"1329 1189 OFFCURVE",
"985 1189 CURVE SMOOTH",
"899 1189 LINE",
"994 1416 LINE",
"1172 1455 LINE",
"1201 1523 LINE",
"473 1523 LINE",
"444 1455 LINE",
"658 1416 LINE",
"114 106 LINE",
"-64 68 LINE",
"-93 0 LINE"
);
},
{
closed = 1;
nodes = (
"856 1082 LINE",
"944 1082 LINE SMOOTH",
"1084 1082 OFFCURVE",
"1155 998 OFFCURVE",
"1155 841 CURVE SMOOTH",
"1155 605 OFFCURVE",
"986 427 OFFCURVE",
"763 427 CURVE SMOOTH",
"584 427 LINE"
);
}
);
};
layerId = "D3934E74-9B53-4E98-B19F-CD3DFEE08352";
paths = (
{
closed = 1;
nodes = (
"634 0 LINE",
"663 68 LINE",
"450 106 LINE",
"539 319 LINE",
"782 319 LINE SMOOTH",
"1215 319 OFFCURVE",
"1477 524 OFFCURVE",
"1477 828 CURVE SMOOTH",
"1477 1066 OFFCURVE",
"1329 1189 OFFCURVE",
"985 1189 CURVE SMOOTH",
"899 1189 LINE",
"994 1416 LINE",
"1172 1455 LINE",
"1201 1523 LINE",
"485 1523 LINE",
"456 1455 LINE",
"669 1416 LINE",
"126 106 LINE",
"-53 68 LINE",
"-82 0 LINE"
);
},
{
closed = 1;
nodes = (
"857 1086 LINE",
"944 1086 LINE SMOOTH",
"1084 1086 OFFCURVE",
"1155 998 OFFCURVE",
"1155 841 CURVE SMOOTH",
"1155 605 OFFCURVE",
"986 423 OFFCURVE",
"763 423 CURVE SMOOTH",
"582 423 LINE"
);
}
);
width = 1495;
}
);
leftKerningGroup = Thorn;
leftMetricsKey = I;
rightKerningGroup = Thorn;
unicode = 00DE;
},
{
glyphname = Q;
layers = (
{
layerId = master01;
paths = (
{
closed = 1;
nodes = (
"919 -450 OFFCURVE",
"1064 -216 OFFCURVE",
"1088 -124 CURVE",
"1020 -124 LINE",
"967 -198 OFFCURVE",
"833 -252 OFFCURVE",
"659 -252 CURVE SMOOTH",
"541 -252 OFFCURVE",
"465 -227 OFFCURVE",
"390 -172 CURVE",
"856 16 LINE SMOOTH",
"1249 174 OFFCURVE",
"1603 592 OFFCURVE",
"1603 1049 CURVE SMOOTH",
"1603 1365 OFFCURVE",
"1436 1544 OFFCURVE",
"1150 1544 CURVE SMOOTH",
"656 1544 OFFCURVE",
"166 1005 OFFCURVE",
"166 469 CURVE SMOOTH",
"166 180 OFFCURVE",
"307 13 OFFCURVE",
"549 -16 CURVE",
"549 -24 LINE",
"172 -177 LINE SMOOTH",
"83 -213 OFFCURVE",
"39 -256 OFFCURVE",
"39 -314 CURVE SMOOTH",
"39 -357 OFFCURVE",
"60 -398 OFFCURVE",
"114 -398 CURVE SMOOTH",
"159 -398 OFFCURVE",
"192 -366 OFFCURVE",
"192 -328 CURVE SMOOTH",
"192 -311 OFFCURVE",
"184 -292 OFFCURVE",
"184 -276 CURVE SMOOTH",
"184 -260 OFFCURVE",
"192 -250 OFFCURVE",
"229 -250 CURVE SMOOTH",
"393 -250 OFFCURVE",
"416 -450 OFFCURVE",
"659 -450 CURVE SMOOTH"
);
},
{
closed = 1;
nodes = (
"476 73 OFFCURVE",
"395 185 OFFCURVE",
"395 419 CURVE SMOOTH",
"395 925 OFFCURVE",
"773 1457 OFFCURVE",
"1138 1457 CURVE SMOOTH",
"1303 1457 OFFCURVE",
"1383 1346 OFFCURVE",
"1383 1112 CURVE SMOOTH",
"1383 603 OFFCURVE",
"1010 73 OFFCURVE",
"645 73 CURVE SMOOTH"
);
}
);
width = 1572;
},
{
background = {
paths = (
{
closed = 0;
nodes = (
"837 -450 LINE SMOOTH",
"1097 -450 OFFCURVE",
"1242 -216 OFFCURVE",
"1267 -124 CURVE",
"1199 -124 LINE",
"1146 -198 OFFCURVE",
"1011 -252 OFFCURVE",
"837 -252 CURVE SMOOTH"
);
}
);
};
layerId = "D3934E74-9B53-4E98-B19F-CD3DFEE08352";
paths = (
{
closed = 1;
nodes = (
"1010 -465 OFFCURVE",
"1192 -329 OFFCURVE",
"1278 -124 CURVE",
"1198 -124 LINE",
"1134 -196 OFFCURVE",
"1017 -241 OFFCURVE",
"890 -241 CURVE SMOOTH",
"762 -241 OFFCURVE",
"626 -202 OFFCURVE",
"556 -145 CURVE",
"1000 24 LINE SMOOTH",
"1460 200 OFFCURVE",
"1778 608 OFFCURVE",
"1778 1025 CURVE SMOOTH",
"1778 1352 OFFCURVE",
"1574 1544 OFFCURVE",
"1229 1544 CURVE SMOOTH",
"679 1544 OFFCURVE",
"162 1050 OFFCURVE",
"162 524 CURVE SMOOTH",
"162 222 OFFCURVE",
"310 37 OFFCURVE",
"593 -17 CURVE",
"593 -25 LINE",
"299 -139 LINE SMOOTH",
"115 -211 OFFCURVE",
"70 -248 OFFCURVE",
"70 -326 CURVE SMOOTH",
"70 -402 OFFCURVE",
"114 -443 OFFCURVE",
"183 -443 CURVE SMOOTH",
"253 -443 OFFCURVE",
"307 -400 OFFCURVE",
"307 -345 CURVE SMOOTH",
"307 -322 OFFCURVE",
"297 -297 OFFCURVE",
"297 -274 CURVE SMOOTH",
"297 -251 OFFCURVE",
"309 -237 OFFCURVE",
"337 -237 CURVE SMOOTH",
"458 -237 OFFCURVE",
"582 -465 OFFCURVE",
"826 -465 CURVE SMOOTH"
);
},
{
closed = 1;
nodes = (
"584 88 OFFCURVE",
"501 200 OFFCURVE",
"501 421 CURVE SMOOTH",
"501 926 OFFCURVE",
"851 1436 OFFCURVE",
"1196 1436 CURVE SMOOTH",
"1356 1436 OFFCURVE",
"1437 1324 OFFCURVE",
"1437 1105 CURVE SMOOTH",
"1437 595 OFFCURVE",
"1093 88 OFFCURVE",
"747 88 CURVE SMOOTH"
);
}
);
width = 1734;
}
);
leftKerningGroup = O;
leftMetricsKey = O;
rightKerningGroup = O;
rightMetricsKey = O;
unicode = 0051;
},
{
glyphname = R;
layers = (
{
anchors = (
{
name = bottom;
position = "{659, -21}";
},
{
name = topcap;
position = "{1017, 1643}";
}
);
layerId = master01;
paths = (
{
closed = 1;
nodes = (
"501 0 LINE",
"519 45 LINE",
"284 83 LINE",
"535 700 LINE",
"689 700 LINE",
"920 0 LINE",
"1306 0 LINE",
"1320 45 LINE",
"1107 83 LINE",
"880 710 LINE",
"1215 758 OFFCURVE",
"1420 942 OFFCURVE",
"1420 1201 CURVE SMOOTH",
"1420 1409 OFFCURVE",
"1277 1523 OFFCURVE",
"971 1523 CURVE SMOOTH",
"496 1523 LINE",
"478 1479 LINE",
"632 1441 LINE",
"67 83 LINE",
"-108 45 LINE",
"-126 0 LINE"
);
},
{
closed = 1;
nodes = (
"850 1443 LINE",
"971 1443 LINE SMOOTH",
"1133 1443 OFFCURVE",
"1221 1358 OFFCURVE",
"1221 1203 CURVE SMOOTH",
"1221 978 OFFCURVE",
"1009 788 OFFCURVE",
"757 788 CURVE SMOOTH",
"573 788 LINE"
);
}
);
width = 1420;
},
{
anchors = (
{
name = bottom;
position = "{740, -21}";
},
{
name = topcap;
position = "{1093, 1643}";
}
);
background = {
paths = (
{
closed = 1;
nodes = (
"576 0 LINE",
"605 68 LINE",
"392 106 LINE",
"623 664 LINE",
"739 664 LINE",
"930 0 LINE",
"1398 0 LINE",
"1427 68 LINE",
"1214 106 LINE",
"1040 696 LINE",
"1341 762 OFFCURVE",
"1510 937 OFFCURVE",
"1510 1170 CURVE SMOOTH",
"1510 1409 OFFCURVE",
"1336 1523 OFFCURVE",
"1000 1523 CURVE SMOOTH",
"473 1523 LINE",
"444 1455 LINE",
"610 1416 LINE",
"67 106 LINE",
"-112 68 LINE",
"-140 0 LINE"
);
},
{
closed = 1;
nodes = (
"936 1420 LINE",
"971 1420 LINE SMOOTH",
"1109 1420 OFFCURVE",
"1181 1332 OFFCURVE",
"1181 1183 CURVE SMOOTH",
"1181 953 OFFCURVE",
"1011 769 OFFCURVE",
"785 769 CURVE SMOOTH",
"667 769 LINE"
);
}
);
};
layerId = "D3934E74-9B53-4E98-B19F-CD3DFEE08352";
paths = (
{
closed = 1;
nodes = (
"576 0 LINE",
"605 68 LINE",
"392 106 LINE",
"623 664 LINE",
"739 664 LINE",
"930 0 LINE",
"1398 0 LINE",
"1427 68 LINE",
"1214 106 LINE",
"1040 696 LINE",
"1341 762 OFFCURVE",
"1510 937 OFFCURVE",
"1510 1170 CURVE SMOOTH",
"1510 1409 OFFCURVE",
"1336 1523 OFFCURVE",
"1000 1523 CURVE SMOOTH",
"485 1523 LINE",
"456 1455 LINE",
"622 1416 LINE",
"78 106 LINE",
"-100 68 LINE",
"-129 0 LINE"
);
},
{
closed = 1;
nodes = (
"936 1420 LINE",
"971 1420 LINE SMOOTH",
"1109 1420 OFFCURVE",
"1181 1332 OFFCURVE",
"1181 1183 CURVE SMOOTH",
"1181 953 OFFCURVE",
"1011 769 OFFCURVE",
"785 769 CURVE SMOOTH",
"667 769 LINE"
);
}
);
width = 1502;
}
);
leftKerningGroup = I;
leftMetricsKey = I;
rightKerningGroup = R;
unicode = 0052;
},
{
glyphname = S;
layers = (
{
anchors = (
{
name = bottom;
position = "{357, 0}";
},
{
name = topcap;
position = "{941, 1643}";
}
);
guideLines = (
{
angle = 68;
position = "{258, 835}";
}
);
layerId = master01;
paths = (
{
closed = 1;
nodes = (
"720 -21 OFFCURVE",
"955 174 OFFCURVE",
"955 433 CURVE SMOOTH",
"955 565 OFFCURVE",
"905 659 OFFCURVE",
"727 867 CURVE SMOOTH",
"610 1003 OFFCURVE",
"576 1078 OFFCURVE",
"576 1169 CURVE SMOOTH",
"576 1344 OFFCURVE",
"679 1464 OFFCURVE",
"867 1464 CURVE SMOOTH",
"1024 1464 OFFCURVE",
"1109 1391 OFFCURVE",
"1109 1261 CURVE SMOOTH",
"1109 1214 OFFCURVE",
"1097 1138 OFFCURVE",
"1084 1088 CURVE",
"1143 1088 LINE",
"1313 1523 LINE",
"1249 1523 LINE",
"1158 1421 LINE",
"1081 1506 OFFCURVE",
"988 1544 OFFCURVE",
"860 1544 CURVE SMOOTH",
"571 1544 OFFCURVE",
"367 1356 OFFCURVE",
"367 1093 CURVE SMOOTH",
"367 910 OFFCURVE",
"466 803 OFFCURVE",
"562 699 CURVE SMOOTH",
"653 601 OFFCURVE",
"740 506 OFFCURVE",
"740 351 CURVE SMOOTH",
"740 169 OFFCURVE",
"618 60 OFFCURVE",
"417 60 CURVE SMOOTH",
"235 60 OFFCURVE",
"145 149 OFFCURVE",
"145 326 CURVE SMOOTH",
"145 382 OFFCURVE",
"153 446 OFFCURVE",
"170 516 CURVE",
"113 516 LINE",
"-96 0 LINE",
"-36 0 LINE",
"66 143 LINE",
"121 36 OFFCURVE",
"237 -21 OFFCURVE",
"404 -21 CURVE SMOOTH"
);
}
);
width = 1119;
},
{
anchors = (
{
name = bottom;
position = "{463, 0}";
},
{
name = topcap;
position = "{1024, 1643}";
}
);
background = {
paths = (
{
closed = 0;
nodes = (
"478 -21 LINE SMOOTH",
"322 -21 OFFCURVE",
"204 18 OFFCURVE",
"104 102 CURVE",
"-24 0 LINE",
"-93 0 LINE",
"102 485 LINE",
"183 485 LINE",
"142 228 OFFCURVE",
"226 88 OFFCURVE",
"424 88 CURVE SMOOTH"
);
}
);
};
layerId = "D3934E74-9B53-4E98-B19F-CD3DFEE08352";
paths = (
{
closed = 1;
nodes = (
"843 -18 OFFCURVE",
"1125 188 OFFCURVE",
"1125 463 CURVE SMOOTH",
"1125 599 OFFCURVE",
"1056 710 OFFCURVE",
"876 864 CURVE SMOOTH",
"731 988 OFFCURVE",
"671 1063 OFFCURVE",
"671 1177 CURVE SMOOTH",
"671 1331 OFFCURVE",
"780 1436 OFFCURVE",
"943 1436 CURVE SMOOTH",
"1103 1436 OFFCURVE",
"1188 1338 OFFCURVE",
"1188 1156 CURVE SMOOTH",
"1188 1120 OFFCURVE",
"1185 1081 OFFCURVE",
"1178 1039 CURVE",
"1259 1039 LINE",
"1454 1523 LINE",
"1385 1523 LINE",
"1257 1421 LINE",
"1157 1505 OFFCURVE",
"1039 1544 OFFCURVE",
"888 1544 CURVE SMOOTH",
"568 1544 OFFCURVE",
"363 1373 OFFCURVE",
"363 1114 CURVE SMOOTH",
"363 964 OFFCURVE",
"427 851 OFFCURVE",
"596 701 CURVE SMOOTH",
"753 563 OFFCURVE",
"801 489 OFFCURVE",
"801 387 CURVE SMOOTH",
"801 208 OFFCURVE",
"655 91 OFFCURVE",
"443 91 CURVE SMOOTH",
"260 91 OFFCURVE",
"176 173 OFFCURVE",
"176 351 CURVE SMOOTH",
"176 396 OFFCURVE",
"182 448 OFFCURVE",
"192 507 CURVE",
"112 507 LINE",
"-92 0 LINE",
"-23 0 LINE",
"105 102 LINE",
"204 17 OFFCURVE",
"313 -18 OFFCURVE",
"469 -18 CURVE SMOOTH"
);
}
);
width = 1263;
}
);
leftKerningGroup = S;
rightKerningGroup = S;
unicode = 0053;
},
{
glyphname = uni1E9E;
layers = (
{
layerId = master01;
paths = (
{
closed = 1;
nodes = (
"894 720 LINE",
"920 725 OFFCURVE",
"948 729 OFFCURVE",
"979 729 CURVE SMOOTH",
"1139 729 OFFCURVE",
"1230 638 OFFCURVE",
"1230 479 CURVE SMOOTH",
"1230 257 OFFCURVE",
"1063 68 OFFCURVE",
"881 68 CURVE SMOOTH",
"697 68 OFFCURVE",
"752 260 OFFCURVE",
"618 260 CURVE SMOOTH",
"554 260 OFFCURVE",
"515 218 OFFCURVE",
"515 157 CURVE SMOOTH",
"515 50 OFFCURVE",
"633 -21 OFFCURVE",
"807 -21 CURVE SMOOTH",
"1162 -21 OFFCURVE",
"1459 260 OFFCURVE",
"1459 554 CURVE SMOOTH",
"1459 776 OFFCURVE",
"1283 889 OFFCURVE",
"1076 912 CURVE",
"1050 876 LINE",
"1604 1419 LINE",
"1644 1523 LINE",
"1177 1523 LINE SMOOTH",
"750 1523 OFFCURVE",
"603 1370 OFFCURVE",
"417 915 CURVE SMOOTH",
"76 83 LINE",
"-116 45 LINE",
"-137 0 LINE",
"258 0 LINE",
"639 909 LINE SMOOTH",
"816 1330 OFFCURVE",
"965 1437 OFFCURVE",
"1186 1437 CURVE SMOOTH",
"1540 1437 LINE",
"1517 1461 LINE",
"906 853 LINE",
"937 902 LINE",
"868 737 LINE"
);
}
);
width = 1578;
},
{
background = {
paths = (
{
closed = 1;
nodes = (
"2092 1523 LINE",
"1412 1523 LINE",
"1383 1455 LINE",
"1549 1416 LINE",
"1315 853 LINE",
"724 853 LINE",
"960 1416 LINE",
"1139 1455 LINE",
"1168 1523 LINE",
"485 1523 LINE",
"456 1455 LINE",
"622 1416 LINE",
"78 106 LINE",
"-100 68 LINE",
"-129 0 LINE",
"554 0 LINE",
"583 68 LINE",
"416 106 LINE",
"682 750 LINE",
"1272 750 LINE",
"1005 106 LINE",
"827 68 LINE",
"798 0 LINE",
"1480 0 LINE",
"1508 68 LINE",
"1341 106 LINE",
"1885 1416 LINE",
"2063 1455 LINE"
);
}
);
};
layerId = "D3934E74-9B53-4E98-B19F-CD3DFEE08352";
paths = (
{
closed = 1;
nodes = (
"975 696 LINE",
"998 699 OFFCURVE",
"1020 701 OFFCURVE",
"1043 701 CURVE SMOOTH",
"1186 701 OFFCURVE",
"1275 615 OFFCURVE",
"1275 462 CURVE SMOOTH",
"1275 266 OFFCURVE",
"1132 89 OFFCURVE",
"949 89 CURVE SMOOTH",
"759 89 OFFCURVE",
"845 288 OFFCURVE",
"691 288 CURVE SMOOTH",
"617 288 OFFCURVE",
"568 243 OFFCURVE",
"568 176 CURVE SMOOTH",
"568 54 OFFCURVE",
"732 -21 OFFCURVE",
"912 -21 CURVE SMOOTH",
"1269 -21 OFFCURVE",
"1584 272 OFFCURVE",
"1584 567 CURVE SMOOTH",
"1584 777 OFFCURVE",
"1426 915 OFFCURVE",
"1165 921 CURVE",
"1141 869 LINE",
"1679 1419 LINE",
"1719 1523 LINE",
"1234 1523 LINE SMOOTH",
"807 1523 OFFCURVE",
"569 1367 OFFCURVE",
"385 912 CURVE SMOOTH",
"59 107 LINE",
"-120 69 LINE",
"-149 0 LINE",
"351 0 LINE",
"719 909 LINE SMOOTH",
"889 1331 OFFCURVE",
"1070 1414 OFFCURVE",
"1291 1414 CURVE SMOOTH",
"1557 1414 LINE",
"1556 1461 LINE",
"965 857 LINE",
"1033 980 LINE",
"935 730 LINE"
);
}
);
width = 1690;
}
);
leftKerningGroup = uni1E9E;
leftMetricsKey = H;
rightKerningGroup = uni1E9E;
unicode = 1E9E;
},
{
glyphname = Schwa;
layers = (
{
background = {
paths = (
{
closed = 1;
nodes = (
"911 -21 OFFCURVE",
"1400 512 OFFCURVE",
"1400 1051 CURVE SMOOTH",
"1400 1365 OFFCURVE",
"1233 1544 OFFCURVE",
"944 1544 CURVE SMOOTH",
"454 1544 OFFCURVE",
"-37 1005 OFFCURVE",
"-37 466 CURVE SMOOTH",
"-37 159 OFFCURVE",
"129 -21 OFFCURVE",
"416 -21 CURVE SMOOTH"
);
},
{
closed = 1;
nodes = (
"273 73 OFFCURVE",
"192 184 OFFCURVE",
"192 416 CURVE SMOOTH",
"192 925 OFFCURVE",
"570 1457 OFFCURVE",
"933 1457 CURVE SMOOTH",
"1099 1457 OFFCURVE",
"1180 1346 OFFCURVE",
"1180 1118 CURVE SMOOTH",
"1180 603 OFFCURVE",
"808 73 OFFCURVE",
"446 73 CURVE SMOOTH"
);
}
);
};
layerId = master01;
paths = (
{
closed = 1;
nodes = (
"768 -21 OFFCURVE",
"1398 636 OFFCURVE",
"1398 1160 CURVE SMOOTH",
"1398 1401 OFFCURVE",
"1275 1542 OFFCURVE",
"1040 1542 CURVE SMOOTH",
"796 1542 OFFCURVE",
"553 1393 OFFCURVE",
"321 1102 CURVE",
"394 1059 LINE",
"579 1307 OFFCURVE",
"790 1445 OFFCURVE",
"996 1445 CURVE SMOOTH",
"1142 1445 OFFCURVE",
"1202 1375 OFFCURVE",
"1202 1239 CURVE SMOOTH",
"1202 1123 OFFCURVE",
"1154 936 OFFCURVE",
"1079 750 CURVE",
"435 651 OFFCURVE",
"-6 416 OFFCURVE",
"-6 174 CURVE SMOOTH",
"-6 54 OFFCURVE",
"99 -21 OFFCURVE",
"268 -21 CURVE SMOOTH"
);
},
{
closed = 1;
nodes = (
"281 81 OFFCURVE",
"252 107 OFFCURVE",
"252 165 CURVE SMOOTH",
"252 357 OFFCURVE",
"611 584 OFFCURVE",
"1016 656 CURVE",
"925 489 LINE SMOOTH",
"804 268 OFFCURVE",
"549 81 OFFCURVE",
"352 81 CURVE SMOOTH"
);
}
);
width = 1308;
},
{
layerId = "D3934E74-9B53-4E98-B19F-CD3DFEE08352";
paths = (
{
closed = 1;
nodes = (
"930 -21 OFFCURVE",
"1489 633 OFFCURVE",
"1489 1141 CURVE SMOOTH",
"1489 1397 OFFCURVE",
"1336 1546 OFFCURVE",
"1064 1546 CURVE SMOOTH",
"784 1546 OFFCURVE",
"547 1393 OFFCURVE",
"320 1108 CURVE",
"413 1050 LINE",
"601 1278 OFFCURVE",
"822 1438 OFFCURVE",
"1004 1438 CURVE SMOOTH",
"1120 1438 OFFCURVE",
"1176 1370 OFFCURVE",
"1176 1231 CURVE SMOOTH",
"1176 1087 OFFCURVE",
"1150 942 OFFCURVE",
"1105 806 CURVE",
"462 706 OFFCURVE",
"-46 474 OFFCURVE",
"-46 204 CURVE SMOOTH",
"-46 75 OFFCURVE",
"70 -21 OFFCURVE",
"311 -21 CURVE SMOOTH"
);
},
{
closed = 1;
nodes = (
"332 88 OFFCURVE",
"274 138 OFFCURVE",
"274 215 CURVE SMOOTH",
"274 396 OFFCURVE",
"590 587 OFFCURVE",
"1064 693 CURVE",
"1063 690 LINE",
"920 348 OFFCURVE",
"662 88 OFFCURVE",
"433 88 CURVE SMOOTH"
);
}
);
width = 1393;
}
);
leftKerningGroup = Schwa;
rightKerningGroup = O;
rightMetricsKey = O;
unicode = 018F;
},
{
glyphname = T;
layers = (
{
anchors = (
{
name = bottom;
position = "{496, 0}";
},
{
name = topcap;
position = "{1166, 1643}";
}
);
layerId = master01;
paths = (
{
closed = 1;
nodes = (
"804 0 LINE",
"823 45 LINE",
"622 83 LINE",
"1185 1445 LINE",
"1538 1445 LINE",
"1567 1360 OFFCURVE",
"1575 1267 OFFCURVE",
"1575 1177 CURVE SMOOTH",
"1575 1148 OFFCURVE",
"1575 1117 OFFCURVE",
"1573 1088 CURVE",
"1620 1088 LINE",
"1727 1523 LINE",
"489 1523 LINE",
"235 1088 LINE",
"283 1088 LINE",
"367 1201 OFFCURVE",
"487 1331 OFFCURVE",
"617 1445 CURVE",
"970 1445 LINE",
"406 83 LINE",
"193 45 LINE",
"174 0 LINE"
);
}
);
width = 1397;
},
{
anchors = (
{
name = bottom;
position = "{611, 0}";
},
{
name = topcap;
position = "{1259, 1643}";
}
);
layerId = "D3934E74-9B53-4E98-B19F-CD3DFEE08352";
paths = (
{
closed = 1;
nodes = (
"924 0 LINE",
"952 68 LINE",
"763 106 LINE",
"1308 1415 LINE",
"1613 1415 LINE",
"1647 1324 OFFCURVE",
"1666 1218 OFFCURVE",
"1673 1119 CURVE SMOOTH",
"1674 1104 OFFCURVE",
"1675 1086 OFFCURVE",
"1675 1069 CURVE",
"1745 1069 LINE",
"1856 1523 LINE",
"504 1523 LINE",
"238 1069 LINE",
"307 1069 LINE",
"404 1177 OFFCURVE",
"539 1307 OFFCURVE",
"669 1415 CURVE",
"972 1415 LINE",
"427 106 LINE",
"226 68 LINE",
"197 0 LINE"
);
}
);
width = 1552;
}
);
leftKerningGroup = T;
rightKerningGroup = T;
unicode = 0054;
},
{
glyphname = Tbar;
layers = (
{
components = (
{
name = T;
}
);
layerId = master01;
paths = (
{
closed = 1;
nodes = (
"1353 831 LINE",
"1391 919 LINE",
"348 919 LINE",
"312 831 LINE"
);
}
);
width = 1397;
},
{
background = {
paths = (
{
closed = 1;
nodes = (
"1383 831 LINE",
"1421 919 LINE",
"378 919 LINE",
"342 831 LINE"
);
}
);
};
components = (
{
name = T;
}
);
layerId = "D3934E74-9B53-4E98-B19F-CD3DFEE08352";
paths = (
{
closed = 1;
nodes = (
"1431 808 LINE",
"1488 942 LINE",
"398 942 LINE",
"344 808 LINE"
);
}
);
width = 1552;
}
);
leftKerningGroup = T;
leftMetricsKey = T;
rightKerningGroup = T;
rightMetricsKey = T;
unicode = 0166;
},
{
glyphname = U;
layers = (
{
anchors = (
{
name = bottom;
position = "{628, 0}";
},
{
name = topcap;
position = "{1307, 1643}";
}
);
layerId = master01;
paths = (
{
closed = 1;
nodes = (
"871 -21 OFFCURVE",
"1085 73 OFFCURVE",
"1248 456 CURVE SMOOTH",
"1667 1441 LINE",
"1855 1479 LINE",
"1872 1523 LINE",
"1435 1523 LINE",
"1414 1479 LINE",
"1579 1441 LINE",
"1178 512 LINE SMOOTH",
"1033 177 OFFCURVE",
"902 73 OFFCURVE",
"689 73 CURVE SMOOTH",
"497 73 OFFCURVE",
"404 143 OFFCURVE",
"404 284 CURVE SMOOTH",
"404 355 OFFCURVE",
"427 449 OFFCURVE",
"462 532 CURVE SMOOTH",
"839 1439 LINE",
"1029 1479 LINE",
"1049 1523 LINE",
"485 1523 LINE",
"468 1479 LINE",
"630 1441 LINE",
"287 633 LINE SMOOTH",
"230 500 OFFCURVE",
"202 386 OFFCURVE",
"202 297 CURVE SMOOTH",
"202 91 OFFCURVE",
"350 -21 OFFCURVE",
"630 -21 CURVE SMOOTH"
);
}
);
width = 1527;
},
{
anchors = (
{
name = bottom;
position = "{671, 0}";
},
{
name = topcap;
position = "{1339, 1643}";
}
);
background = {
paths = (
{
closed = 1;
nodes = (
"914 -21 OFFCURVE",
"1128 73 OFFCURVE",
"1292 456 CURVE SMOOTH",
"1711 1441 LINE",
"1899 1479 LINE",
"1916 1523 LINE",
"1479 1523 LINE",
"1458 1479 LINE",
"1622 1441 LINE",
"1222 512 LINE SMOOTH",
"1077 177 OFFCURVE",
"945 73 OFFCURVE",
"732 73 CURVE SMOOTH",
"541 73 OFFCURVE",
"448 143 OFFCURVE",
"448 284 CURVE SMOOTH",
"448 355 OFFCURVE",
"471 449 OFFCURVE",
"506 532 CURVE SMOOTH",
"883 1439 LINE",
"1073 1479 LINE",
"1093 1523 LINE",
"529 1523 LINE",
"511 1479 LINE",
"674 1441 LINE",
"330 633 LINE SMOOTH",
"274 500 OFFCURVE",
"245 386 OFFCURVE",
"245 297 CURVE SMOOTH",
"245 91 OFFCURVE",
"394 -21 OFFCURVE",
"674 -21 CURVE SMOOTH"
);
}
);
};
layerId = "D3934E74-9B53-4E98-B19F-CD3DFEE08352";
paths = (
{
closed = 1;
nodes = (
"987 -21 OFFCURVE",
"1177 138 OFFCURVE",
"1352 560 CURVE SMOOTH",
"1708 1416 LINE",
"1886 1455 LINE",
"1915 1523 LINE",
"1445 1523 LINE",
"1416 1455 LINE",
"1582 1416 LINE",
"1249 614 LINE SMOOTH",
"1093 236 OFFCURVE",
"937 88 OFFCURVE",
"702 88 CURVE SMOOTH",
"564 88 OFFCURVE",
"496 143 OFFCURVE",
"496 251 CURVE SMOOTH",
"496 305 OFFCURVE",
"512 371 OFFCURVE",
"546 450 CURVE SMOOTH",
"947 1416 LINE",
"1125 1455 LINE",
"1154 1523 LINE",
"473 1523 LINE",
"444 1455 LINE",
"610 1416 LINE",
"242 529 LINE SMOOTH",
"208 449 OFFCURVE",
"192 375 OFFCURVE",
"192 310 CURVE SMOOTH",
"192 104 OFFCURVE",
"350 -21 OFFCURVE",
"647 -21 CURVE SMOOTH"
);
}
);
width = 1568;
}
);
leftKerningGroup = U;
rightKerningGroup = U;
unicode = 0055;
},
{
glyphname = Uogonek;
layers = (
{
anchors = (
{
name = _bottom;
position = "{637, 0}";
}
);
background = {
paths = (
{
closed = 1;
nodes = (
"658 -507 OFFCURVE",
"750 -466 OFFCURVE",
"839 -392 CURVE {name = hr00;}",
"829 -357 LINE",
"768 -388 OFFCURVE",
"736 -398 OFFCURVE",
"700 -398 CURVE SMOOTH",
"651 -398 OFFCURVE",
"628 -380 OFFCURVE",
"628 -341 CURVE SMOOTH",
"628 -258 OFFCURVE",
"734 -127 OFFCURVE",
"894 0 CURVE",
"819 0 LINE",
"595 -117 OFFCURVE",
"436 -281 OFFCURVE",
"436 -404 CURVE SMOOTH",
"436 -471 OFFCURVE",
"484 -507 OFFCURVE",
"569 -507 CURVE SMOOTH"
);
}
);
};
components = (
{
alignment = -1;
name = U;
}
);
layerId = master01;
paths = (
{
closed = 1;
nodes = (
"644 -507 OFFCURVE",
"736 -466 OFFCURVE",
"826 -392 CURVE {name = hr00;}",
"815 -357 LINE",
"754 -388 OFFCURVE",
"722 -398 OFFCURVE",
"686 -398 CURVE SMOOTH",
"637 -398 OFFCURVE",
"614 -380 OFFCURVE",
"614 -341 CURVE SMOOTH",
"614 -258 OFFCURVE",
"759 -97 OFFCURVE",
"962 81 CURVE",
"805 10 LINE",
"570 -117 OFFCURVE",
"423 -281 OFFCURVE",
"423 -404 CURVE SMOOTH",
"423 -471 OFFCURVE",
"470 -507 OFFCURVE",
"555 -507 CURVE SMOOTH"
);
}
);
width = 1527;
},
{
anchors = (
{
name = _bottom;
position = "{637, 0}";
}
);
background = {
paths = (
{
closed = 1;
nodes = (
"734 -507 OFFCURVE",
"844 -459 OFFCURVE",
"952 -368 CURVE {name = hr00;}",
"942 -321 LINE",
"877 -354 OFFCURVE",
"839 -365 OFFCURVE",
"798 -365 CURVE SMOOTH",
"742 -365 OFFCURVE",
"712 -345 OFFCURVE",
"712 -307 CURVE SMOOTH",
"712 -243 OFFCURVE",
"804 -120 OFFCURVE",
"1070 61 CURVE",
"898 0 LINE",
"625 -129 OFFCURVE",
"470 -258 OFFCURVE",
"470 -383 CURVE SMOOTH",
"470 -464 OFFCURVE",
"525 -507 OFFCURVE",
"629 -507 CURVE SMOOTH"
);
}
);
};
components = (
{
name = U;
}
);
layerId = "D3934E74-9B53-4E98-B19F-CD3DFEE08352";
paths = (
{
closed = 1;
nodes = (
"731 -507 OFFCURVE",
"842 -459 OFFCURVE",
"950 -368 CURVE {name = hr00;}",
"940 -321 LINE",
"875 -354 OFFCURVE",
"837 -365 OFFCURVE",
"796 -365 CURVE SMOOTH",
"739 -365 OFFCURVE",
"709 -334 OFFCURVE",
"709 -296 CURVE SMOOTH",
"709 -208 OFFCURVE",
"807 -97 OFFCURVE",
"1024 83 CURVE",
"899 32 LINE",
"577 -106 OFFCURVE",
"468 -246 OFFCURVE",
"468 -355 CURVE SMOOTH",
"468 -444 OFFCURVE",
"531 -507 OFFCURVE",
"638 -507 CURVE SMOOTH"
);
}
);
width = 1568;
}
);
leftKerningGroup = U;
leftMetricsKey = U;
rightKerningGroup = U;
rightMetricsKey = U;
unicode = 0172;
},
{
glyphname = V;
layers = (
{
background = {
paths = (
{
closed = 1;
nodes = (
"523 -21 LINE",
"1523 1249 LINE SMOOTH",
"1643 1401 OFFCURVE",
"1710 1441 OFFCURVE",
"1898 1468 CURVE",
"1925 1523 LINE",
"1348 1523 LINE",
"1322 1468 LINE",
"1497 1446 OFFCURVE",
"1526 1384 OFFCURVE",
"1423 1253 CURVE SMOOTH",
"645 264 LINE",
"638 264 LINE",
"782 1316 LINE SMOOTH",
"798 1431 OFFCURVE",
"851 1466 OFFCURVE",
"1014 1468 CURVE",
"1041 1523 LINE",
"443 1523 LINE",
"416 1468 LINE",
"557 1460 OFFCURVE",
"593 1432 OFFCURVE",
"582 1341 CURVE SMOOTH",
"406 -21 LINE"
);
}
);
};
layerId = master01;
paths = (
{
closed = 1;
nodes = (
"500 -21 LINE",
"1500 1249 LINE SMOOTH",
"1620 1401 OFFCURVE",
"1692 1451 OFFCURVE",
"1879 1479 CURVE",
"1902 1523 LINE",
"1325 1523 LINE",
"1303 1479 LINE",
"1479 1457 OFFCURVE",
"1503 1384 OFFCURVE",
"1400 1253 CURVE SMOOTH",
"622 264 LINE",
"615 264 LINE",
"759 1316 LINE SMOOTH",
"775 1431 OFFCURVE",
"833 1476 OFFCURVE",
"996 1479 CURVE",
"1018 1523 LINE",
"420 1523 LINE",
"397 1479 LINE",
"539 1470 OFFCURVE",
"570 1432 OFFCURVE",
"558 1341 CURVE SMOOTH",
"383 -21 LINE"
);
}
);
width = 1487;
},
{
background = {
paths = (
{
closed = 1;
nodes = (
"561 -21 LINE",
"1569 1231 LINE SMOOTH",
"1701 1393 OFFCURVE",
"1748 1422 OFFCURVE",
"1939 1451 CURVE",
"1969 1523 LINE",
"1340 1523 LINE",
"1310 1451 LINE",
"1506 1423 OFFCURVE",
"1530 1377 OFFCURVE",
"1419 1234 CURVE SMOOTH",
"770 409 LINE",
"762 409 LINE",
"890 1318 LINE SMOOTH",
"904 1413 OFFCURVE",
"937 1437 OFFCURVE",
"1127 1451 CURVE",
"1157 1523 LINE",
"373 1523 LINE",
"343 1451 LINE",
"479 1441 OFFCURVE",
"516 1419 OFFCURVE",
"506 1330 CURVE SMOOTH",
"352 -21 LINE"
);
}
);
};
layerId = "D3934E74-9B53-4E98-B19F-CD3DFEE08352";
paths = (
{
closed = 1;
nodes = (
"506 -21 LINE",
"1518 1231 LINE SMOOTH",
"1649 1393 OFFCURVE",
"1696 1422 OFFCURVE",
"1890 1455 CURVE",
"1917 1523 LINE",
"1294 1523 LINE",
"1267 1455 LINE",
"1461 1423 OFFCURVE",
"1485 1376 OFFCURVE",
"1373 1234 CURVE SMOOTH",
"714 409 LINE",
"709 409 LINE",
"837 1318 LINE SMOOTH",
"851 1415 OFFCURVE",
"890 1437 OFFCURVE",
"1077 1455 CURVE",
"1104 1523 LINE",
"404 1523 LINE",
"377 1455 LINE",
"516 1439 OFFCURVE",
"548 1415 OFFCURVE",
"537 1330 CURVE SMOOTH",
"347 -21 LINE"
);
}
);
width = 1491;
}
);
leftKerningGroup = V;
rightKerningGroup = V;
unicode = 0056;
},
{
glyphname = W;
layers = (
{
anchors = (
{
name = topcap;
position = "{1459, 1643}";
}
);
background = {
paths = (
{
closed = 1;
nodes = (
"515 -21 LINE",
"1210 927 LINE",
"1177 937 LINE",
"1054 -21 LINE",
"1187 -21 LINE",
"2125 1249 LINE SMOOTH",
"2236 1406 OFFCURVE",
"2293 1450 OFFCURVE",
"2464 1479 CURVE",
"2486 1523 LINE",
"1943 1523 LINE",
"1923 1479 LINE",
"2096 1454 OFFCURVE",
"2118 1403 OFFCURVE",
"2019 1253 CURVE SMOOTH",
"1300 264 LINE",
"1442 1316 LINE SMOOTH",
"1458 1438 OFFCURVE",
"1517 1476 OFFCURVE",
"1679 1479 CURVE",
"1701 1523 LINE",
"1152 1523 LINE",
"1128 1479 LINE",
"1223 1470 OFFCURVE",
"1240 1435 OFFCURVE",
"1230 1341 CURVE SMOOTH",
"1191 1041 LINE",
"624 265 LINE",
"769 1316 LINE SMOOTH",
"785 1439 OFFCURVE",
"833 1476 OFFCURVE",
"967 1479 CURVE",
"988 1523 LINE",
"418 1523 LINE",
"397 1479 LINE",
"544 1470 OFFCURVE",
"569 1444 OFFCURVE",
"557 1341 CURVE SMOOTH",
"381 -21 LINE"
);
}
);
};
layerId = master01;
paths = (
{
closed = 1;
nodes = (
"503 -21 LINE",
"1196 927 LINE",
"1165 937 LINE",
"1042 -21 LINE",
"1164 -21 LINE",
"2101 1249 LINE SMOOTH",
"2215 1404 OFFCURVE",
"2270 1450 OFFCURVE",
"2441 1479 CURVE",
"2463 1523 LINE",
"1920 1523 LINE",
"1900 1479 LINE",
"2073 1454 OFFCURVE",
"2111 1398 OFFCURVE",
"2004 1253 CURVE SMOOTH",
"1274 263 LINE",
"1419 1316 LINE SMOOTH",
"1436 1438 OFFCURVE",
"1493 1476 OFFCURVE",
"1656 1479 CURVE",
"1678 1523 LINE",
"1140 1523 LINE",
"1117 1479 LINE",
"1211 1470 OFFCURVE",
"1231 1435 OFFCURVE",
"1218 1341 CURVE SMOOTH",
"1179 1041 LINE",
"613 265 LINE",
"758 1316 LINE SMOOTH",
"775 1439 OFFCURVE",
"821 1476 OFFCURVE",
"956 1479 CURVE",
"976 1523 LINE",
"418 1523 LINE",
"397 1479 LINE",
"544 1470 OFFCURVE",
"569 1444 OFFCURVE",
"557 1341 CURVE SMOOTH",
"381 -21 LINE"
);
}
);
width = 2047;
},
{
anchors = (
{
name = topcap;
position = "{1548, 1643}";
}
);
guideLines = (
{
position = "{1066, 1284}";
}
);
layerId = "D3934E74-9B53-4E98-B19F-CD3DFEE08352";
paths = (
{
closed = 1;
nodes = (
"504 -21 LINE",
"1309 972 LINE",
"1294 982 LINE",
"1154 -21 LINE",
"1332 -21 LINE",
"2275 1231 LINE SMOOTH",
"2401 1397 OFFCURVE",
"2454 1422 OFFCURVE",
"2647 1455 CURVE",
"2675 1523 LINE",
"2078 1523 LINE",
"2051 1455 LINE",
"2222 1423 OFFCURVE",
"2242 1381 OFFCURVE",
"2134 1234 CURVE SMOOTH",
"1515 401 LINE",
"1644 1318 LINE SMOOTH",
"1658 1415 OFFCURVE",
"1697 1437 OFFCURVE",
"1861 1455 CURVE",
"1888 1523 LINE",
"1234 1523 LINE",
"1207 1455 LINE",
"1323 1439 OFFCURVE",
"1355 1415 OFFCURVE",
"1344 1330 CURVE SMOOTH",
"1320 1157 LINE",
"708 402 LINE",
"837 1318 LINE SMOOTH",
"851 1415 OFFCURVE",
"890 1437 OFFCURVE",
"1054 1455 CURVE",
"1081 1523 LINE",
"404 1523 LINE",
"377 1455 LINE",
"516 1439 OFFCURVE",
"548 1415 OFFCURVE",
"537 1330 CURVE SMOOTH",
"347 -21 LINE"
);
}
);
width = 2249;
}
);
leftKerningGroup = V;
leftMetricsKey = V;
rightKerningGroup = V;
rightMetricsKey = V;
unicode = 0057;
},
{
glyphname = X;
layers = (
{
background = {
paths = (
{
closed = 1;
nodes = (
"737 740 LINE",
"211 225 LINE SMOOTH",
"85 102 OFFCURVE",
"2 64 OFFCURVE",
"-146 45 CURVE",
"-165 0 LINE",
"326 0 LINE",
"344 45 LINE",
"205 45 OFFCURVE",
"204 97 OFFCURVE",
"342 235 CURVE SMOOTH",
"758 649 LINE"
);
},
{
closed = 1;
nodes = (
"917 769 LINE",
"1363 1193 LINE SMOOTH",
"1621 1438 OFFCURVE",
"1704 1472 OFFCURVE",
"1848 1479 CURVE",
"1869 1523 LINE",
"1249 1523 LINE",
"1229 1479 LINE",
"1415 1447 OFFCURVE",
"1432 1378 OFFCURVE",
"1284 1234 CURVE SMOOTH",
"894 858 LINE"
);
},
{
closed = 1;
nodes = (
"841 227 LINE SMOOTH",
"871 102 OFFCURVE",
"841 58 OFFCURVE",
"702 45 CURVE",
"684 0 LINE",
"1265 0 LINE",
"1287 47 LINE",
"1132 64 OFFCURVE",
"1095 102 OFFCURVE",
"1070 211 CURVE SMOOTH",
"811 1297 LINE SMOOTH",
"781 1422 OFFCURVE",
"813 1455 OFFCURVE",
"976 1479 CURVE",
"995 1523 LINE",
"403 1523 LINE",
"382 1479 LINE",
"510 1455 OFFCURVE",
"552 1422 OFFCURVE",
"583 1294 CURVE SMOOTH"
);
}
);
};
guideLines = (
{
position = "{584, 39}";
},
{
position = "{1559, 1284}";
}
);
layerId = master01;
paths = (
{
closed = 1;
nodes = (
"912 783 LINE",
"1438 1299 LINE SMOOTH",
"1564 1421 OFFCURVE",
"1647 1459 OFFCURVE",
"1795 1479 CURVE",
"1814 1523 LINE",
"1323 1523 LINE",
"1305 1479 LINE",
"1444 1479 OFFCURVE",
"1445 1427 OFFCURVE",
"1307 1289 CURVE SMOOTH",
"891 874 LINE"
);
},
{
closed = 1;
nodes = (
"732 754 LINE",
"286 330 LINE SMOOTH",
"28 85 OFFCURVE",
"-55 52 OFFCURVE",
"-199 45 CURVE",
"-220 0 LINE",
"400 0 LINE",
"420 45 LINE",
"234 76 OFFCURVE",
"219 143 OFFCURVE",
"365 289 CURVE SMOOTH",
"755 666 LINE"
);
},
{
closed = 1;
nodes = (
"808 1297 LINE SMOOTH",
"778 1421 OFFCURVE",
"808 1466 OFFCURVE",
"947 1479 CURVE",
"965 1523 LINE",
"383 1523 LINE",
"362 1476 LINE",
"517 1459 OFFCURVE",
"554 1421 OFFCURVE",
"579 1313 CURVE SMOOTH",
"838 227 LINE SMOOTH",
"866 101 OFFCURVE",
"836 68 OFFCURVE",
"672 45 CURVE",
"654 0 LINE",
"1246 0 LINE",
"1267 45 LINE",
"1139 68 OFFCURVE",
"1097 101 OFFCURVE",
"1066 229 CURVE SMOOTH"
);
}
);
width = 1443;
},
{
guideLines = (
{
position = "{621, 39}";
},
{
position = "{1596, 1284}";
}
);
layerId = "D3934E74-9B53-4E98-B19F-CD3DFEE08352";
paths = (
{
closed = 1;
nodes = (
"899 740 LINE",
"1406 1221 LINE SMOOTH",
"1586 1391 OFFCURVE",
"1663 1427 OFFCURVE",
"1847 1455 CURVE",
"1875 1523 LINE",
"1277 1523 LINE",
"1249 1455 LINE",
"1400 1427 OFFCURVE",
"1403 1377 OFFCURVE",
"1233 1216 CURVE SMOOTH",
"864 865 LINE"
);
},
{
closed = 1;
nodes = (
"730 759 LINE",
"263 305 LINE SMOOTH",
"86 134 OFFCURVE",
"1 97 OFFCURVE",
"-206 68 CURVE",
"-234 0 LINE",
"402 0 LINE",
"430 68 LINE",
"274 97 OFFCURVE",
"264 158 OFFCURVE",
"423 307 CURVE SMOOTH",
"772 637 LINE"
);
},
{
closed = 1;
nodes = (
"884 1270 LINE SMOOTH",
"848 1411 OFFCURVE",
"876 1439 OFFCURVE",
"1040 1455 CURVE",
"1067 1523 LINE",
"370 1523 LINE",
"342 1455 LINE",
"508 1439 OFFCURVE",
"540 1412 OFFCURVE",
"571 1291 CURVE SMOOTH",
"839 254 LINE SMOOTH",
"875 114 OFFCURVE",
"846 84 OFFCURVE",
"660 68 CURVE",
"632 0 LINE",
"1332 0 LINE",
"1360 68 LINE",
"1217 84 OFFCURVE",
"1185 112 OFFCURVE",
"1154 233 CURVE SMOOTH"
);
}
);
width = 1515;
}
);
leftKerningGroup = X;
rightKerningGroup = X;
unicode = 0058;
},
{
glyphname = Y;
layers = (
{
anchors = (
{
name = topcap;
position = "{1173, 1643}";
}
);
guideLines = (
{
angle = 68.9625;
position = "{1556, 1284}";
}
);
layerId = master01;
paths = (
{
closed = 1;
nodes = (
"772 0 LINE",
"791 45 LINE",
"596 83 LINE",
"879 766 LINE",
"803 644 LINE",
"1419 1263 LINE SMOOTH",
"1589 1435 OFFCURVE",
"1633 1464 OFFCURVE",
"1792 1479 CURVE",
"1809 1523 LINE",
"1270 1523 LINE",
"1253 1479 LINE",
"1430 1469 OFFCURVE",
"1464 1423 OFFCURVE",
"1352 1315 CURVE SMOOTH",
"783 743 LINE",
"814 728 LINE",
"748 1267 LINE SMOOTH",
"729 1430 OFFCURVE",
"759 1470 OFFCURVE",
"897 1479 CURVE",
"918 1523 LINE",
"370 1523 LINE",
"351 1479 LINE",
"489 1472 OFFCURVE",
"509 1447 OFFCURVE",
"529 1315 CURVE SMOOTH",
"633 622 LINE",
"640 721 LINE",
"375 83 LINE",
"183 45 LINE",
"164 0 LINE"
);
}
);
width = 1371;
},
{
anchors = (
{
name = topcap;
position = "{1264, 1643}";
}
);
background = {
paths = (
{
closed = 0;
nodes = (
"896 1270 LINE SMOOTH",
"861 1411 OFFCURVE",
"888 1439 OFFCURVE",
"1051 1455 CURVE",
"1079 1523 LINE",
"340 1523 LINE",
"312 1455 LINE",
"478 1439 OFFCURVE",
"511 1412 OFFCURVE",
"541 1291 CURVE SMOOTH"
);
},
{
closed = 0;
nodes = (
"1492 1221 LINE SMOOTH",
"1672 1388 OFFCURVE",
"1749 1427 OFFCURVE",
"1933 1455 CURVE",
"1961 1523 LINE",
"1355 1523 LINE",
"1328 1455 LINE",
"1479 1427 OFFCURVE",
"1481 1374 OFFCURVE",
"1312 1216 CURVE SMOOTH"
);
}
);
};
guideLines = (
{
angle = 68.9625;
position = "{1635, 1284}";
}
);
layerId = "D3934E74-9B53-4E98-B19F-CD3DFEE08352";
paths = (
{
closed = 1;
nodes = (
"843 0 LINE",
"873 73 LINE",
"724 115 LINE",
"972 709 LINE",
"879 613 LINE",
"1458 1219 LINE SMOOTH",
"1606 1376 OFFCURVE",
"1689 1422 OFFCURVE",
"1906 1455 CURVE",
"1936 1523 LINE",
"1331 1523 LINE",
"1301 1455 LINE",
"1453 1439 OFFCURVE",
"1453 1385 OFFCURVE",
"1302 1223 CURVE SMOOTH",
"937 831 LINE",
"922 831 LINE",
"862 1264 LINE SMOOTH",
"842 1413 OFFCURVE",
"862 1437 OFFCURVE",
"1023 1455 CURVE",
"1052 1523 LINE",
"359 1523 LINE",
"329 1455 LINE",
"508 1447 OFFCURVE",
"539 1426 OFFCURVE",
"556 1295 CURVE SMOOTH",
"649 613 LINE",
"659 767 LINE",
"387 115 LINE",
"202 73 LINE",
"172 0 LINE"
);
}
);
width = 1508;
}
);
leftKerningGroup = Y;
rightKerningGroup = Y;
unicode = 0059;
},
{
glyphname = Z;
layers = (
{
anchors = (
{
name = bottom;
position = "{517, 0}";
},
{
name = topcap;
position = "{1120, 1643}";
}
);
background = {
anchors = (
{
name = bottom;
position = "{1128, 1523}";
},
{
name = topcap;
position = "{525, -120}";
}
);
paths = (
{
closed = 1;
nodes = (
"573 1523 LINE",
"329 1041 LINE",
"396 1041 LINE",
"489 1172 OFFCURVE",
"610 1309 OFFCURVE",
"748 1441 CURVE",
"1366 1441 LINE",
"136 102 LINE",
"92 0 LINE",
"1073 0 LINE",
"1310 430 LINE",
"1256 430 LINE",
"1168 314 OFFCURVE",
"1046 185 OFFCURVE",
"917 78 CURVE",
"383 78 LINE",
"1621 1422 LINE",
"1665 1523 LINE"
);
}
);
};
layerId = master01;
paths = (
{
closed = 1;
nodes = (
"1072 0 LINE",
"1316 482 LINE",
"1249 482 LINE",
"1156 351 OFFCURVE",
"1035 214 OFFCURVE",
"897 83 CURVE",
"280 83 LINE",
"1510 1421 LINE",
"1553 1523 LINE",
"572 1523 LINE",
"335 1094 LINE",
"389 1094 LINE",
"478 1209 OFFCURVE",
"600 1338 OFFCURVE",
"729 1445 CURVE",
"1262 1445 LINE",
"24 101 LINE",
"-20 0 LINE"
);
}
);
width = 1431;
},
{
anchors = (
{
name = bottom;
position = "{540, 0}";
},
{
name = topcap;
position = "{1143, 1643}";
}
);
background = {
paths = (
{
closed = 0;
nodes = (
"1095 0 LINE",
"1279 463 LINE",
"1210 463 LINE",
"1132 341 OFFCURVE",
"1041 229 OFFCURVE",
"921 108 CURVE"
);
},
{
closed = 1;
nodes = (
"1095 0 LINE",
"1358 518 LINE",
"1289 518 LINE",
"1183 371 OFFCURVE",
"1061 235 OFFCURVE",
"921 108 CURVE",
"378 108 LINE",
"1599 1392 LINE",
"1652 1523 LINE",
"573 1523 LINE",
"311 1051 LINE",
"380 1051 LINE",
"500 1198 OFFCURVE",
"621 1317 OFFCURVE",
"747 1415 CURVE",
"1215 1415 LINE",
"-13 127 LINE",
"-63 0 LINE"
);
}
);
};
layerId = "D3934E74-9B53-4E98-B19F-CD3DFEE08352";
paths = (
{
closed = 1;
nodes = (
"1094 0 LINE",
"1356 517 LINE",
"1290 517 LINE SMOOTH",
"1185 374 OFFCURVE",
"1076 248 OFFCURVE",
"920 104 CURVE SMOOTH",
"373 104 LINE",
"1598 1393 LINE",
"1654 1523 LINE",
"572 1523 LINE",
"311 1051 LINE",
"380 1051 LINE SMOOTH",
"500 1198 OFFCURVE",
"618 1313 OFFCURVE",
"747 1420 CURVE SMOOTH",
"1218 1420 LINE",
"-13 127 LINE",
"-63 0 LINE"
);
}
);
width = 1452;
},
{
anchors = (
{
name = bottom;
position = "{540, 0}";
},
{
name = topcap;
position = "{1143, 1643}";
}
);
associatedMasterId = "D3934E74-9B53-4E98-B19F-CD3DFEE08352";
background = {
paths = (
{
closed = 0;
nodes = (
"1095 0 LINE",
"1279 463 LINE",
"1210 463 LINE",
"1132 341 OFFCURVE",
"1041 229 OFFCURVE",
"921 108 CURVE"
);
},
{
closed = 1;
nodes = (
"1095 0 LINE",
"1358 518 LINE",
"1289 518 LINE",
"1183 371 OFFCURVE",
"1061 235 OFFCURVE",
"921 108 CURVE",
"378 108 LINE",
"1599 1392 LINE",
"1652 1523 LINE",
"573 1523 LINE",
"311 1051 LINE",
"380 1051 LINE",
"500 1198 OFFCURVE",
"621 1317 OFFCURVE",
"747 1415 CURVE",
"1215 1415 LINE",
"-13 127 LINE",
"-63 0 LINE"
);
}
);
};
layerId = "747861B9-7182-4281-8EE8-82C3AAB3D81C";
name = "Apr 22 20, 11:07";
paths = (
{
closed = 1;
nodes = (
"1095 0 LINE",
"1358 518 LINE",
"1289 518 LINE",
"1183 371 OFFCURVE",
"1061 235 OFFCURVE",
"921 104 CURVE",
"373 104 LINE",
"1599 1392 LINE",
"1652 1523 LINE",
"573 1523 LINE",
"311 1051 LINE",
"380 1051 LINE",
"500 1198 OFFCURVE",
"621 1317 OFFCURVE",
"747 1420 CURVE",
"1219 1420 LINE",
"-13 127 LINE",
"-63 0 LINE"
);
},
{
closed = 0;
nodes = (
"4875 -2886 LINE"
);
}
);
width = 1452;
}
);
leftKerningGroup = Z;
rightKerningGroup = Z;
unicode = 005A;
},
{
glyphname = AE.001;
layers = (
{
background = {
paths = (
{
closed = 1;
nodes = (
"1226 1390 LINE",
"1271 1390 LINE",
"735 93 LINE",
"553 55 LINE",
"529 0 LINE",
"1734 0 LINE",
"1914 456 LINE",
"1857 456 LINE",
"1781 330 OFFCURVE",
"1693 204 OFFCURVE",
"1586 78 CURVE",
"947 78 LINE",
"1227 763 LINE",
"1572 763 LINE",
"1568 685 OFFCURVE",
"1560 606 OFFCURVE",
"1537 526 CURVE",
"1595 526 LINE",
"1818 1069 LINE",
"1762 1069 LINE",
"1717 994 OFFCURVE",
"1662 919 OFFCURVE",
"1595 843 CURVE",
"1263 843 LINE",
"1508 1445 LINE",
"1956 1445 LINE",
"2013 1346 OFFCURVE",
"2047 1229 OFFCURVE",
"2070 1088 CURVE",
"2123 1088 LINE",
"2107 1523 LINE",
"1064 1523 LINE",
"1043 1479 LINE",
"1226 1436 LINE"
);
},
{
closed = 1;
nodes = (
"979 639 LINE",
"563 639 LINE",
"499 561 LINE",
"949 561 LINE"
);
},
{
closed = 1;
nodes = (
"1231 1479 LINE",
"145 275 LINE SMOOTH",
"13 128 OFFCURVE",
"-41 83 OFFCURVE",
"-226 55 CURVE",
"-252 0 LINE",
"306 0 LINE",
"332 55 LINE",
"218 71 OFFCURVE",
"168 94 OFFCURVE",
"168 138 CURVE SMOOTH",
"168 169 OFFCURVE",
"189 203 OFFCURVE",
"253 271 CURVE SMOOTH",
"1314 1445 LINE"
);
}
);
};
layerId = master01;
paths = (
{
closed = 1;
nodes = (
"1226 1390 LINE",
"1271 1390 LINE",
"730 83 LINE",
"548 45 LINE",
"529 0 LINE",
"1734 0 LINE",
"1914 456 LINE",
"1857 456 LINE",
"1781 330 OFFCURVE",
"1693 204 OFFCURVE",
"1586 78 CURVE",
"947 78 LINE",
"1227 763 LINE",
"1572 763 LINE",
"1568 685 OFFCURVE",
"1560 606 OFFCURVE",
"1537 526 CURVE",
"1595 526 LINE",
"1818 1069 LINE",
"1762 1069 LINE",
"1717 994 OFFCURVE",
"1662 919 OFFCURVE",
"1595 843 CURVE",
"1263 843 LINE",
"1508 1445 LINE",
"1956 1445 LINE",
"2013 1346 OFFCURVE",
"2047 1229 OFFCURVE",
"2070 1088 CURVE",
"2123 1088 LINE",
"2107 1523 LINE",
"1064 1523 LINE",
"1043 1479 LINE",
"1226 1436 LINE"
);
},
{
closed = 1;
nodes = (
"979 639 LINE",
"563 639 LINE",
"499 561 LINE",
"949 561 LINE"
);
},
{
closed = 1;
nodes = (
"1231 1479 LINE",
"145 275 LINE SMOOTH",
"13 128 OFFCURVE",
"-46 73 OFFCURVE",
"-230 45 CURVE",
"-252 0 LINE",
"306 0 LINE",
"327 45 LINE",
"213 61 OFFCURVE",
"168 94 OFFCURVE",
"168 138 CURVE SMOOTH",
"168 169 OFFCURVE",
"189 203 OFFCURVE",
"253 271 CURVE SMOOTH",
"1314 1445 LINE"
);
}
);
width = 2055;
},
{
background = {
paths = (
{
closed = 1;
nodes = (
"1210 1389 LINE",
"1253 1389 LINE",
"719 106 LINE",
"540 68 LINE",
"511 0 LINE",
"1787 0 LINE",
"1971 463 LINE",
"1902 463 LINE",
"1824 341 OFFCURVE",
"1733 229 OFFCURVE",
"1613 108 CURVE",
"1059 108 LINE",
"1327 752 LINE",
"1541 752 LINE",
"1561 679 OFFCURVE",
"1567 602 OFFCURVE",
"1558 529 CURVE",
"1641 529 LINE",
"1871 1082 LINE",
"1788 1082 LINE",
"1749 1020 OFFCURVE",
"1682 947 OFFCURVE",
"1586 859 CURVE",
"1371 859 LINE",
"1603 1415 LINE",
"1954 1415 LINE",
"2015 1330 OFFCURVE",
"2066 1225 OFFCURVE",
"2110 1088 CURVE",
"2179 1088 LINE",
"2161 1523 LINE",
"1043 1523 LINE",
"1014 1455 LINE",
"1210 1424 LINE"
);
},
{
closed = 1;
nodes = (
"1024 547 LINE",
"386 547 LINE",
"340 443 LINE",
"978 443 LINE"
);
},
{
closed = 1;
nodes = (
"1185 1495 LINE",
"143 292 LINE SMOOTH",
"-6 122 OFFCURVE",
"-38 102 OFFCURVE",
"-225 68 CURVE",
"-252 0 LINE",
"366 0 LINE",
"394 68 LINE",
"264 94 OFFCURVE",
"214 121 OFFCURVE",
"214 165 CURVE SMOOTH",
"214 193 OFFCURVE",
"235 231 OFFCURVE",
"284 289 CURVE SMOOTH",
"1298 1449 LINE"
);
}
);
};
layerId = "D3934E74-9B53-4E98-B19F-CD3DFEE08352";
paths = (
{
closed = 1;
nodes = (
"1210 1398 LINE",
"1268 1398 LINE",
"730 106 LINE",
"552 68 LINE",
"523 0 LINE",
"1785 0 LINE",
"1969 463 LINE",
"1900 463 LINE",
"1822 341 OFFCURVE",
"1731 229 OFFCURVE",
"1611 104 CURVE",
"1043 104 LINE",
"1314 754 LINE",
"1538 754 LINE",
"1559 679 OFFCURVE",
"1565 602 OFFCURVE",
"1556 529 CURVE",
"1639 529 LINE",
"1869 1082 LINE",
"1786 1082 LINE",
"1747 1020 OFFCURVE",
"1680 947 OFFCURVE",
"1583 858 CURVE",
"1358 858 LINE",
"1591 1420 LINE",
"1952 1420 LINE",
"2013 1330 OFFCURVE",
"2063 1225 OFFCURVE",
"2107 1088 CURVE",
"2176 1088 LINE",
"2159 1523 LINE",
"1009 1523 LINE",
"980 1455 LINE",
"1210 1424 LINE"
);
},
{
closed = 1;
nodes = (
"1024 547 LINE",
"386 547 LINE",
"340 443 LINE",
"978 443 LINE"
);
},
{
closed = 1;
nodes = (
"1185 1495 LINE",
"143 292 LINE SMOOTH",
"-6 122 OFFCURVE",
"-38 102 OFFCURVE",
"-225 68 CURVE",
"-252 0 LINE",
"366 0 LINE",
"394 68 LINE",
"264 94 OFFCURVE",
"214 121 OFFCURVE",
"214 165 CURVE SMOOTH",
"214 193 OFFCURVE",
"235 231 OFFCURVE",
"284 289 CURVE SMOOTH",
"1295 1449 LINE"
);
}
);
width = 2095;
}
);
leftMetricsKey = A;
rightKerningGroup = E;
rightMetricsKey = E;
},
{
glyphname = C.001;
layers = (
{
anchors = (
{
name = bottom;
position = "{618, 0}";
},
{
name = topcap;
position = "{1324, 1643}";
}
);
guideLines = (
{
angle = 68;
position = "{1241, 772}";
}
);
layerId = master01;
paths = (
{
closed = 1;
nodes = (
"785 -21 OFFCURVE",
"921 29 OFFCURVE",
"1078 153 CURVE",
"1086 153 LINE",
"1070 0 LINE",
"1124 0 LINE",
"1343 580 LINE",
"1286 580 LINE",
"1150 265 OFFCURVE",
"915 73 OFFCURVE",
"661 73 CURVE SMOOTH",
"461 73 OFFCURVE",
"359 193 OFFCURVE",
"359 433 CURVE SMOOTH",
"359 944 OFFCURVE",
"804 1457 OFFCURVE",
"1248 1457 CURVE SMOOTH",
"1403 1457 OFFCURVE",
"1474 1396 OFFCURVE",
"1474 1255 CURVE SMOOTH",
"1474 1203 OFFCURVE",
"1465 1142 OFFCURVE",
"1444 1069 CURVE",
"1502 1069 LINE",
"1694 1523 LINE",
"1650 1523 LINE",
"1579 1459 LINE",
"1507 1512 OFFCURVE",
"1394 1544 OFFCURVE",
"1268 1544 CURVE SMOOTH",
"706 1544 OFFCURVE",
"142 982 OFFCURVE",
"142 421 CURVE SMOOTH",
"142 128 OFFCURVE",
"296 -21 OFFCURVE",
"607 -21 CURVE SMOOTH"
);
}
);
width = 1468;
},
{
anchors = (
{
name = bottom;
position = "{608, 0}";
},
{
name = topcap;
position = "{1314, 1643}";
}
);
background = {
paths = (
{
closed = 1;
nodes = (
"867 -21 OFFCURVE",
"1031 38 OFFCURVE",
"1185 140 CURVE",
"1189 140 LINE",
"1180 0 LINE",
"1249 0 LINE",
"1489 611 LINE",
"1420 611 LINE",
"1241 278 OFFCURVE",
"973 88 OFFCURVE",
"760 88 CURVE SMOOTH",
"591 88 OFFCURVE",
"504 199 OFFCURVE",
"504 444 CURVE SMOOTH",
"504 975 OFFCURVE",
"849 1436 OFFCURVE",
"1263 1436 CURVE SMOOTH",
"1468 1436 OFFCURVE",
"1587 1323 OFFCURVE",
"1587 1126 CURVE SMOOTH",
"1587 1093 OFFCURVE",
"1584 1065 OFFCURVE",
"1579 1039 CURVE",
"1648 1039 LINE",
"1846 1523 LINE",
"1777 1523 LINE",
"1644 1420 LINE",
"1526 1510 OFFCURVE",
"1419 1544 OFFCURVE",
"1259 1544 CURVE SMOOTH",
"672 1544 OFFCURVE",
"161 1067 OFFCURVE",
"161 501 CURVE SMOOTH",
"161 169 OFFCURVE",
"348 -21 OFFCURVE",
"682 -21 CURVE SMOOTH"
);
}
);
};
layerId = "D3934E74-9B53-4E98-B19F-CD3DFEE08352";
paths = (
{
closed = 1;
nodes = (
"867 -21 OFFCURVE",
"1031 38 OFFCURVE",
"1173 129 CURVE",
"1178 129 LINE",
"1180 0 LINE",
"1249 0 LINE",
"1489 611 LINE",
"1420 611 LINE",
"1241 278 OFFCURVE",
"973 88 OFFCURVE",
"760 88 CURVE SMOOTH",
"591 88 OFFCURVE",
"504 199 OFFCURVE",
"504 444 CURVE SMOOTH",
"504 975 OFFCURVE",
"849 1436 OFFCURVE",
"1263 1436 CURVE SMOOTH",
"1468 1436 OFFCURVE",
"1587 1323 OFFCURVE",
"1587 1126 CURVE SMOOTH",
"1587 1093 OFFCURVE",
"1584 1065 OFFCURVE",
"1579 1039 CURVE",
"1648 1039 LINE",
"1846 1523 LINE",
"1777 1523 LINE",
"1656 1397 LINE",
"1549 1510 OFFCURVE",
"1419 1544 OFFCURVE",
"1259 1544 CURVE SMOOTH",
"672 1544 OFFCURVE",
"161 1067 OFFCURVE",
"161 501 CURVE SMOOTH",
"161 169 OFFCURVE",
"348 -21 OFFCURVE",
"682 -21 CURVE SMOOTH"
);
}
);
width = 1582;
}
);
leftKerningGroup = C;
leftMetricsKey = O;
rightKerningGroup = C;
},
{
glyphname = a;
layers = (
{
anchors = (
{
name = bottom;
position = "{722, 0}";
},
{
name = top;
position = "{888, 1289}";
}
);
background = {
paths = (
{
closed = 1;
nodes = (
"623 -21 OFFCURVE",
"996 388 OFFCURVE",
"996 744 CURVE SMOOTH",
"996 944 OFFCURVE",
"889 1069 OFFCURVE",
"701 1069 CURVE SMOOTH",
"373 1069 OFFCURVE",
"2 659 OFFCURVE",
"2 307 CURVE SMOOTH",
"2 105 OFFCURVE",
"107 -21 OFFCURVE",
"295 -21 CURVE SMOOTH {name = hr00;}"
);
},
{
closed = 1;
nodes = (
"208 50 OFFCURVE",
"183 99 OFFCURVE",
"183 193 CURVE SMOOTH",
"183 503 OFFCURVE",
"516 1000 OFFCURVE",
"724 1000 CURVE SMOOTH",
"792 1000 OFFCURVE",
"820 953 OFFCURVE",
"820 865 CURVE SMOOTH",
"820 572 OFFCURVE",
"470 50 OFFCURVE",
"272 50 CURVE SMOOTH"
);
}
);
};
layerId = master01;
paths = (
{
closed = 1;
nodes = (
"386 -21 OFFCURVE",
"506 75 OFFCURVE",
"660 302 CURVE",
"672 295 LINE",
"618 211 OFFCURVE",
"605 153 OFFCURVE",
"605 94 CURVE SMOOTH",
"605 18 OFFCURVE",
"648 -21 OFFCURVE",
"722 -21 CURVE SMOOTH",
"831 -21 OFFCURVE",
"959 71 OFFCURVE",
"1097 245 CURVE",
"1058 273 LINE",
"947 151 OFFCURVE",
"877 97 OFFCURVE",
"838 97 CURVE SMOOTH",
"800 97 OFFCURVE",
"791 128 OFFCURVE",
"827 216 CURVE SMOOTH",
"1166 1049 LINE",
"965 1049 LINE",
"933 976 LINE",
"886 1043 OFFCURVE",
"842 1069 OFFCURVE",
"769 1069 CURVE SMOOTH",
"442 1069 OFFCURVE",
"35 600 OFFCURVE",
"35 242 CURVE SMOOTH",
"35 77 OFFCURVE",
"117 -21 OFFCURVE",
"252 -21 CURVE SMOOTH"
);
},
{
closed = 1;
nodes = (
"237 50 OFFCURVE",
"216 85 OFFCURVE",
"216 165 CURVE SMOOTH",
"216 451 OFFCURVE",
"592 1005 OFFCURVE",
"790 1005 CURVE SMOOTH",
"842 1005 OFFCURVE",
"881 968 OFFCURVE",
"881 906 CURVE SMOOTH",
"881 869 OFFCURVE",
"877 828 OFFCURVE",
"838 737 CURVE SMOOTH",
"678 362 OFFCURVE",
"425 50 OFFCURVE",
"290 50 CURVE SMOOTH"
);
}
);
width = 1191;
},
{
anchors = (
{
name = bottom;
position = "{804, 0}";
},
{
name = top;
position = "{947, 1289}";
}
);
background = {
paths = (
{
closed = 1;
nodes = (
"428 -21 OFFCURVE",
"552 79 OFFCURVE",
"725 328 CURVE",
"738 325 LINE",
"676 219 OFFCURVE",
"653 159 OFFCURVE",
"653 105 CURVE SMOOTH",
"653 22 OFFCURVE",
"706 -21 OFFCURVE",
"808 -21 CURVE SMOOTH",
"941 -21 OFFCURVE",
"1056 54 OFFCURVE",
"1225 251 CURVE {name = hr03;}",
"1170 284 LINE",
"1018 128 OFFCURVE",
"973 91 OFFCURVE",
"934 91 CURVE SMOOTH",
"911 91 OFFCURVE",
"904 108 OFFCURVE",
"915 135 CURVE SMOOTH",
"1292 1049 LINE",
"1002 1049 LINE",
"970 976 LINE",
"917 1041 OFFCURVE",
"851 1069 OFFCURVE",
"752 1069 CURVE SMOOTH",
"438 1069 OFFCURVE",
"43 618 OFFCURVE",
"43 260 CURVE SMOOTH",
"43 86 OFFCURVE",
"139 -21 OFFCURVE",
"296 -21 CURVE SMOOTH"
);
},
{
closed = 1;
nodes = (
"345 73 OFFCURVE",
"326 111 OFFCURVE",
"326 173 CURVE SMOOTH",
"326 463 OFFCURVE",
"638 976 OFFCURVE",
"814 976 CURVE SMOOTH",
"873 976 OFFCURVE",
"905 943 OFFCURVE",
"905 882 CURVE SMOOTH",
"905 848 OFFCURVE",
"896 815 OFFCURVE",
"862 737 CURVE SMOOTH",
"725 419 OFFCURVE",
"472 73 OFFCURVE",
"378 73 CURVE SMOOTH"
);
}
);
};
layerId = "D3934E74-9B53-4E98-B19F-CD3DFEE08352";
paths = (
{
closed = 1;
nodes = (
"428 -21 OFFCURVE",
"552 79 OFFCURVE",
"714 328 CURVE",
"727 325 LINE",
"676 219 OFFCURVE",
"653 159 OFFCURVE",
"653 105 CURVE SMOOTH",
"653 22 OFFCURVE",
"706 -21 OFFCURVE",
"808 -21 CURVE SMOOTH",
"941 -21 OFFCURVE",
"1056 54 OFFCURVE",
"1225 251 CURVE {name = hr03;}",
"1170 284 LINE",
"1018 128 OFFCURVE",
"973 91 OFFCURVE",
"934 91 CURVE SMOOTH",
"911 91 OFFCURVE",
"904 108 OFFCURVE",
"915 135 CURVE SMOOTH",
"1292 1049 LINE",
"1002 1049 LINE",
"970 976 LINE",
"917 1041 OFFCURVE",
"851 1069 OFFCURVE",
"752 1069 CURVE SMOOTH",
"438 1069 OFFCURVE",
"43 618 OFFCURVE",
"43 260 CURVE SMOOTH",
"43 86 OFFCURVE",
"139 -21 OFFCURVE",
"296 -21 CURVE SMOOTH"
);
},
{
closed = 1;
nodes = (
"345 73 OFFCURVE",
"326 111 OFFCURVE",
"326 173 CURVE SMOOTH",
"326 463 OFFCURVE",
"638 976 OFFCURVE",
"814 976 CURVE SMOOTH",
"873 976 OFFCURVE",
"905 943 OFFCURVE",
"905 882 CURVE SMOOTH",
"905 848 OFFCURVE",
"896 815 OFFCURVE",
"862 737 CURVE SMOOTH",
"725 419 OFFCURVE",
"472 73 OFFCURVE",
"378 73 CURVE SMOOTH"
);
}
);
width = 1305;
}
);
leftKerningGroup = a;
rightKerningGroup = i;
rightMetricsKey = u;
unicode = 0061;
},
{
glyphname = aogonek;
layers = (
{
components = (
{
alignment = -1;
name = a;
}
);
layerId = master01;
paths = (
{
closed = 1;
nodes = (
"588 -507 OFFCURVE",
"681 -466 OFFCURVE",
"770 -392 CURVE {name = hr00;}",
"760 -357 LINE",
"699 -388 OFFCURVE",
"667 -398 OFFCURVE",
"631 -398 CURVE SMOOTH",
"582 -398 OFFCURVE",
"558 -380 OFFCURVE",
"558 -341 CURVE SMOOTH",
"558 -258 OFFCURVE",
"704 -97 OFFCURVE",
"917 89 CURVE",
"750 0 LINE",
"515 -117 OFFCURVE",
"367 -281 OFFCURVE",
"367 -404 CURVE SMOOTH",
"367 -471 OFFCURVE",
"415 -507 OFFCURVE",
"500 -507 CURVE SMOOTH"
);
}
);
width = 1191;
},
{
components = (
{
name = a;
}
);
layerId = "D3934E74-9B53-4E98-B19F-CD3DFEE08352";
paths = (
{
closed = 1;
nodes = (
"766 -507 OFFCURVE",
"876 -459 OFFCURVE",
"985 -368 CURVE {name = hr00;}",
"974 -321 LINE",
"910 -354 OFFCURVE",
"872 -365 OFFCURVE",
"830 -365 CURVE SMOOTH",
"774 -365 OFFCURVE",
"744 -334 OFFCURVE",
"744 -296 CURVE SMOOTH",
"744 -208 OFFCURVE",
"842 -97 OFFCURVE",
"1061 84 CURVE",
"942 30 LINE",
"611 -106 OFFCURVE",
"502 -246 OFFCURVE",
"502 -355 CURVE SMOOTH",
"502 -444 OFFCURVE",
"565 -507 OFFCURVE",
"672 -507 CURVE SMOOTH"
);
}
);
width = 1322;
}
);
leftKerningGroup = a;
leftMetricsKey = a;
rightKerningGroup = u;
rightMetricsKey = a;
unicode = 0105;
},
{
glyphname = ae;
layers = (
{
layerId = master01;
paths = (
{
closed = 1;
nodes = (
"385 -21 OFFCURVE",
"506 75 OFFCURVE",
"660 302 CURVE",
"671 295 LINE",
"670 283 OFFCURVE",
"670 271 OFFCURVE",
"670 248 CURVE SMOOTH",
"670 75 OFFCURVE",
"761 -21 OFFCURVE",
"920 -21 CURVE SMOOTH",
"1089 -21 OFFCURVE",
"1259 85 OFFCURVE",
"1422 287 CURVE",
"1378 314 LINE",
"1261 159 OFFCURVE",
"1093 50 OFFCURVE",
"970 50 CURVE SMOOTH",
"894 50 OFFCURVE",
"856 91 OFFCURVE",
"856 182 CURVE SMOOTH",
"856 273 OFFCURVE",
"894 392 OFFCURVE",
"968 532 CURVE",
"1363 601 OFFCURVE",
"1641 766 OFFCURVE",
"1641 933 CURVE SMOOTH",
"1641 1016 OFFCURVE",
"1568 1069 OFFCURVE",
"1457 1069 CURVE SMOOTH",
"1351 1069 OFFCURVE",
"1230 1021 OFFCURVE",
"1118 935 CURVE",
"1165 1049 LINE",
"965 1049 LINE {name = hr02;}",
"933 976 LINE",
"883 1044 OFFCURVE",
"839 1069 OFFCURVE",
"767 1069 CURVE SMOOTH",
"446 1069 OFFCURVE",
"35 603 OFFCURVE",
"35 240 CURVE SMOOTH {name = hr01;}",
"35 78 OFFCURVE",
"117 -21 OFFCURVE",
"251 -21 CURVE SMOOTH"
);
},
{
closed = 1;
nodes = (
"241 50 OFFCURVE",
"216 85 OFFCURVE",
"216 161 CURVE SMOOTH",
"216 456 OFFCURVE",
"590 1005 OFFCURVE",
"792 1005 CURVE SMOOTH",
"848 1005 OFFCURVE",
"881 964 OFFCURVE",
"881 895 CURVE SMOOTH",
"881 854 OFFCURVE",
"867 808 OFFCURVE",
"837 737 CURVE SMOOTH",
"687 375 OFFCURVE",
"424 50 OFFCURVE",
"286 50 CURVE SMOOTH"
);
},
{
closed = 1;
nodes = (
"1076 714 LINE SMOOTH",
"1165 886 OFFCURVE",
"1310 1008 OFFCURVE",
"1420 1008 CURVE SMOOTH",
"1462 1008 OFFCURVE",
"1483 987 OFFCURVE",
"1483 948 CURVE SMOOTH",
"1483 812 OFFCURVE",
"1259 646 OFFCURVE",
"1012 599 CURVE"
);
}
);
width = 1602;
},
{
background = {
paths = (
{
closed = 1;
nodes = (
"43 86 OFFCURVE",
"139 -21 OFFCURVE",
"296 -21 CURVE SMOOTH",
"428 -21 OFFCURVE",
"552 79 OFFCURVE",
"725 328 CURVE",
"738 325 LINE",
"702 82 OFFCURVE",
"853 -21 OFFCURVE",
"1048 -21 CURVE SMOOTH",
"1227 -21 OFFCURVE",
"1389 77 OFFCURVE",
"1560 282 CURVE",
"1510 321 LINE",
"1350 147 OFFCURVE",
"1234 73 OFFCURVE",
"1124 73 CURVE SMOOTH",
"1051 73 OFFCURVE",
"1011 124 OFFCURVE",
"1011 215 CURVE SMOOTH",
"1011 297 OFFCURVE",
"1042 403 OFFCURVE",
"1095 514 CURVE",
"1553 596 OFFCURVE",
"1785 724 OFFCURVE",
"1785 892 CURVE SMOOTH",
"1785 1003 OFFCURVE",
"1687 1069 OFFCURVE",
"1520 1069 CURVE SMOOTH",
"1428 1069 OFFCURVE",
"1317 1017 OFFCURVE",
"1193 921 CURVE",
"1225 882 LINE",
"1292 1049 LINE",
"1002 1049 LINE",
"970 976 LINE",
"917 1041 OFFCURVE",
"851 1069 OFFCURVE",
"752 1069 CURVE SMOOTH",
"438 1069 OFFCURVE",
"43 618 OFFCURVE",
"43 260 CURVE SMOOTH"
);
},
{
closed = 1;
nodes = (
"326 463 OFFCURVE",
"638 976 OFFCURVE",
"814 976 CURVE SMOOTH",
"873 976 OFFCURVE",
"905 943 OFFCURVE",
"905 882 CURVE SMOOTH",
"905 848 OFFCURVE",
"896 815 OFFCURVE",
"862 737 CURVE SMOOTH",
"727 419 OFFCURVE",
"472 73 OFFCURVE",
"378 73 CURVE SMOOTH",
"345 73 OFFCURVE",
"326 111 OFFCURVE",
"326 173 CURVE SMOOTH"
);
},
{
closed = 1;
nodes = (
"1161 632 LINE SMOOTH",
"1280 829 OFFCURVE",
"1399 976 OFFCURVE",
"1497 976 CURVE SMOOTH",
"1529 976 OFFCURVE",
"1546 960 OFFCURVE",
"1546 922 CURVE SMOOTH",
"1546 793 OFFCURVE",
"1348 634 OFFCURVE",
"1134 588 CURVE"
);
}
);
};
layerId = "D3934E74-9B53-4E98-B19F-CD3DFEE08352";
paths = (
{
closed = 1;
nodes = (
"428 -21 OFFCURVE",
"552 79 OFFCURVE",
"714 328 CURVE",
"727 325 LINE",
"724 305 OFFCURVE",
"723 287 OFFCURVE",
"723 269 CURVE SMOOTH",
"723 97 OFFCURVE",
"820 -21 OFFCURVE",
"1013 -21 CURVE SMOOTH",
"1193 -21 OFFCURVE",
"1354 77 OFFCURVE",
"1526 282 CURVE",
"1475 321 LINE",
"1315 147 OFFCURVE",
"1200 73 OFFCURVE",
"1089 73 CURVE SMOOTH",
"1017 73 OFFCURVE",
"976 124 OFFCURVE",
"976 215 CURVE SMOOTH",
"976 297 OFFCURVE",
"1008 403 OFFCURVE",
"1061 514 CURVE",
"1519 596 OFFCURVE",
"1750 724 OFFCURVE",
"1750 892 CURVE SMOOTH",
"1750 1003 OFFCURVE",
"1652 1069 OFFCURVE",
"1520 1069 CURVE SMOOTH",
"1426 1069 OFFCURVE",
"1327 1034 OFFCURVE",
"1225 968 CURVE",
"1257 1049 LINE",
"1002 1049 LINE",
"970 976 LINE",
"917 1041 OFFCURVE",
"851 1069 OFFCURVE",
"752 1069 CURVE SMOOTH",
"438 1069 OFFCURVE",
"43 618 OFFCURVE",
"43 260 CURVE SMOOTH",
"43 86 OFFCURVE",
"139 -21 OFFCURVE",
"296 -21 CURVE SMOOTH"
);
},
{
closed = 1;
nodes = (
"345 73 OFFCURVE",
"326 111 OFFCURVE",
"326 173 CURVE SMOOTH",
"326 463 OFFCURVE",
"638 976 OFFCURVE",
"814 976 CURVE SMOOTH",
"873 976 OFFCURVE",
"905 943 OFFCURVE",
"905 882 CURVE SMOOTH",
"905 848 OFFCURVE",
"896 815 OFFCURVE",
"862 737 CURVE SMOOTH",
"727 419 OFFCURVE",
"472 73 OFFCURVE",
"378 73 CURVE SMOOTH"
);
},
{
closed = 1;
nodes = (
"1126 632 LINE SMOOTH",
"1246 829 OFFCURVE",
"1365 976 OFFCURVE",
"1462 976 CURVE SMOOTH",
"1495 976 OFFCURVE",
"1512 960 OFFCURVE",
"1512 922 CURVE SMOOTH",
"1512 793 OFFCURVE",
"1314 634 OFFCURVE",
"1100 588 CURVE"
);
}
);
width = 1742;
}
);
leftKerningGroup = a;
leftMetricsKey = a;
rightKerningGroup = e;
rightMetricsKey = e;
unicode = 00E6;
},
{
glyphname = b;
layers = (
{
background = {
paths = (
{
closed = 1;
nodes = (
"662 -21 OFFCURVE",
"1035 388 OFFCURVE",
"1035 744 CURVE SMOOTH",
"1035 944 OFFCURVE",
"928 1069 OFFCURVE",
"740 1069 CURVE SMOOTH",
"412 1069 OFFCURVE",
"41 659 OFFCURVE",
"41 307 CURVE SMOOTH",
"41 105 OFFCURVE",
"146 -21 OFFCURVE",
"334 -21 CURVE SMOOTH {name = hr00;}"
);
},
{
closed = 1;
nodes = (
"248 50 OFFCURVE",
"222 99 OFFCURVE",
"222 193 CURVE SMOOTH",
"222 503 OFFCURVE",
"555 1000 OFFCURVE",
"763 1000 CURVE SMOOTH",
"831 1000 OFFCURVE",
"859 953 OFFCURVE",
"859 865 CURVE SMOOTH",
"859 572 OFFCURVE",
"509 50 OFFCURVE",
"311 50 CURVE SMOOTH"
);
}
);
};
layerId = master01;
paths = (
{
closed = 1;
nodes = (
"684 -21 OFFCURVE",
"1036 382 OFFCURVE",
"1036 763 CURVE SMOOTH",
"1036 960 OFFCURVE",
"940 1069 OFFCURVE",
"791 1069 CURVE SMOOTH",
"690 1069 OFFCURVE",
"583 1013 OFFCURVE",
"492 914 CURVE",
"484 914 LINE",
"762 1622 LINE",
"382 1622 LINE {name = hr00;}",
"390 1594 LINE",
"544 1569 LINE",
"104 493 LINE SMOOTH",
"68 406 OFFCURVE",
"52 326 OFFCURVE",
"52 260 CURVE SMOOTH",
"52 85 OFFCURVE",
"151 -21 OFFCURVE",
"335 -21 CURVE SMOOTH"
);
},
{
closed = 1;
nodes = (
"257 50 OFFCURVE",
"213 93 OFFCURVE",
"213 162 CURVE SMOOTH",
"213 283 OFFCURVE",
"304 500 OFFCURVE",
"358 614 CURVE SMOOTH",
"461 829 OFFCURVE",
"632 1000 OFFCURVE",
"742 1000 CURVE SMOOTH",
"805 1000 OFFCURVE",
"845 928 OFFCURVE",
"845 823 CURVE SMOOTH",
"845 532 OFFCURVE",
"518 50 OFFCURVE",
"318 50 CURVE SMOOTH"
);
}
);
width = 1092;
},
{
background = {
anchors = (
{
name = bottom;
position = "{388, 0}";
},
{
name = top;
position = "{909, 1289}";
}
);
paths = (
{
closed = 1;
nodes = (
"807 -21 OFFCURVE",
"1155 341 OFFCURVE",
"1155 716 CURVE SMOOTH",
"1155 941 OFFCURVE",
"1020 1069 OFFCURVE",
"796 1069 CURVE SMOOTH",
"420 1069 OFFCURVE",
"73 709 OFFCURVE",
"73 330 CURVE SMOOTH",
"73 106 OFFCURVE",
"207 -21 OFFCURVE",
"433 -21 CURVE SMOOTH {name = hr00;}"
);
},
{
closed = 1;
nodes = (
"373 73 OFFCURVE",
"347 124 OFFCURVE",
"347 207 CURVE SMOOTH",
"347 495 OFFCURVE",
"641 975 OFFCURVE",
"803 975 CURVE SMOOTH",
"856 975 OFFCURVE",
"881 924 OFFCURVE",
"881 841 CURVE SMOOTH",
"881 552 OFFCURVE",
"586 73 OFFCURVE",
"425 73 CURVE SMOOTH"
);
}
);
};
layerId = "D3934E74-9B53-4E98-B19F-CD3DFEE08352";
paths = (
{
closed = 1;
nodes = (
"780 -21 OFFCURVE",
"1145 349 OFFCURVE",
"1145 753 CURVE SMOOTH",
"1145 960 OFFCURVE",
"1047 1067 OFFCURVE",
"897 1067 CURVE SMOOTH",
"783 1067 OFFCURVE",
"664 1004 OFFCURVE",
"550 869 CURVE",
"538 873 LINE",
"865 1622 LINE",
"371 1622 LINE",
"378 1578 LINE",
"542 1552 LINE",
"120 558 LINE SMOOTH",
"76 455 OFFCURVE",
"54 360 OFFCURVE",
"54 280 CURVE SMOOTH",
"54 93 OFFCURVE",
"173 -21 OFFCURVE",
"397 -21 CURVE SMOOTH {name = hr00;}"
);
},
{
closed = 1;
nodes = (
"334 73 OFFCURVE",
"302 111 OFFCURVE",
"302 185 CURVE SMOOTH",
"302 269 OFFCURVE",
"342 411 OFFCURVE",
"397 524 CURVE SMOOTH",
"532 799 OFFCURVE",
"725 975 OFFCURVE",
"800 975 CURVE SMOOTH {name = hr02;}",
"848 975 OFFCURVE",
"869 937 OFFCURVE",
"869 853 CURVE SMOOTH",
"869 545 OFFCURVE",
"556 73 OFFCURVE",
"382 73 CURVE SMOOTH"
);
}
);
width = 1194;
}
);
rightKerningGroup = o;
rightMetricsKey = o;
unicode = 0062;
userData = {
com.typemytype.robofont.guides = (
{
angle = 0;
isGlobal = 0;
magnetic = 5;
x = 0;
y = 508;
}
);
};
},
{
glyphname = c;
layers = (
{
anchors = (
{
name = bottom;
position = "{313, 0}";
},
{
name = top;
position = "{877, 1289}";
}
);
background = {
paths = (
{
closed = 1;
nodes = (
"677 -21 OFFCURVE",
"1050 388 OFFCURVE",
"1050 744 CURVE SMOOTH",
"1050 944 OFFCURVE",
"943 1069 OFFCURVE",
"755 1069 CURVE SMOOTH",
"427 1069 OFFCURVE",
"56 659 OFFCURVE",
"56 307 CURVE SMOOTH",
"56 105 OFFCURVE",
"161 -21 OFFCURVE",
"349 -21 CURVE SMOOTH {name = hr00;}"
);
},
{
closed = 1;
nodes = (
"263 50 OFFCURVE",
"237 99 OFFCURVE",
"237 193 CURVE SMOOTH",
"237 503 OFFCURVE",
"570 1000 OFFCURVE",
"778 1000 CURVE SMOOTH",
"846 1000 OFFCURVE",
"874 953 OFFCURVE",
"874 865 CURVE SMOOTH",
"874 572 OFFCURVE",
"524 50 OFFCURVE",
"326 50 CURVE SMOOTH"
);
}
);
};
layerId = master01;
paths = (
{
closed = 1;
nodes = (
"479 -21 OFFCURVE",
"660 86 OFFCURVE",
"833 289 CURVE",
"789 314 LINE",
"617 138 OFFCURVE",
"472 50 OFFCURVE",
"362 50 CURVE SMOOTH",
"276 50 OFFCURVE",
"245 97 OFFCURVE",
"245 196 CURVE SMOOTH",
"245 501 OFFCURVE",
"557 1008 OFFCURVE",
"795 1008 CURVE SMOOTH",
"844 1008 OFFCURVE",
"868 978 OFFCURVE",
"880 904 CURVE SMOOTH",
"890 839 OFFCURVE",
"919 810 OFFCURVE",
"971 810 CURVE SMOOTH {name = hr01;}",
"1023 810 OFFCURVE",
"1058 841 OFFCURVE",
"1058 888 CURVE SMOOTH",
"1058 987 OFFCURVE",
"956 1069 OFFCURVE",
"819 1069 CURVE SMOOTH",
"687 1069 OFFCURVE",
"522 1003 OFFCURVE",
"380 892 CURVE SMOOTH",
"172 730 OFFCURVE",
"50 500 OFFCURVE",
"50 283 CURVE SMOOTH",
"50 85 OFFCURVE",
"136 -21 OFFCURVE",
"305 -21 CURVE SMOOTH"
);
}
);
width = 1000;
},
{
anchors = (
{
name = bottom;
position = "{348, 0}";
},
{
name = top;
position = "{889, 1289}";
}
);
background = {
paths = (
{
closed = 1;
nodes = (
"554 -21 OFFCURVE",
"715 77 OFFCURVE",
"887 282 CURVE",
"836 321 LINE",
"676 147 OFFCURVE",
"561 73 OFFCURVE",
"450 73 CURVE SMOOTH",
"378 73 OFFCURVE",
"337 124 OFFCURVE",
"337 215 CURVE SMOOTH",
"337 297 OFFCURVE",
"368 403 OFFCURVE",
"421 514 CURVE",
"880 596 OFFCURVE",
"1111 724 OFFCURVE",
"1111 892 CURVE SMOOTH",
"1111 1003 OFFCURVE",
"1013 1069 OFFCURVE",
"846 1069 CURVE SMOOTH",
"444 1069 OFFCURVE",
"63 691 OFFCURVE",
"63 294 CURVE SMOOTH",
"63 107 OFFCURVE",
"190 -21 OFFCURVE",
"374 -21 CURVE SMOOTH"
);
},
{
closed = 1;
nodes = (
"487 632 LINE SMOOTH",
"607 829 OFFCURVE",
"727 976 OFFCURVE",
"823 976 CURVE SMOOTH",
"856 976 OFFCURVE",
"873 960 OFFCURVE",
"873 922 CURVE SMOOTH",
"873 793 OFFCURVE",
"675 636 OFFCURVE",
"461 588 CURVE"
);
}
);
};
layerId = "D3934E74-9B53-4E98-B19F-CD3DFEE08352";
paths = (
{
closed = 1;
nodes = (
"539 -21 OFFCURVE",
"704 67 OFFCURVE",
"886 281 CURVE",
"835 320 LINE",
"666 144 OFFCURVE",
"564 73 OFFCURVE",
"454 73 CURVE SMOOTH",
"359 73 OFFCURVE",
"319 124 OFFCURVE",
"319 215 CURVE SMOOTH",
"319 481 OFFCURVE",
"634 976 OFFCURVE",
"793 976 CURVE SMOOTH",
"844 976 OFFCURVE",
"873 941 OFFCURVE",
"884 864 CURVE SMOOTH",
"896 786 OFFCURVE",
"934 748 OFFCURVE",
"998 748 CURVE SMOOTH",
"1069 748 OFFCURVE",
"1118 793 OFFCURVE",
"1118 856 CURVE SMOOTH",
"1118 979 OFFCURVE",
"990 1069 OFFCURVE",
"812 1069 CURVE SMOOTH",
"675 1069 OFFCURVE",
"509 1005 OFFCURVE",
"362 891 CURVE SMOOTH",
"170 743 OFFCURVE",
"45 514 OFFCURVE",
"45 309 CURVE SMOOTH",
"45 112 OFFCURVE",
"155 -21 OFFCURVE",
"366 -21 CURVE SMOOTH"
);
}
);
width = 1081;
}
);
leftKerningGroup = o;
leftMetricsKey = o;
rightKerningGroup = c;
unicode = 0063;
},
{
glyphname = d;
layers = (
{
anchors = (
{
name = bottom;
position = "{454, 0}";
},
{
name = top;
position = "{1527, 1260}";
}
);
layerId = master01;
paths = (
{
closed = 1;
nodes = (
"396 -21 OFFCURVE",
"506 68 OFFCURVE",
"663 302 CURVE",
"668 295 LINE",
"631 221 OFFCURVE",
"610 169 OFFCURVE",
"610 122 CURVE SMOOTH",
"610 28 OFFCURVE",
"644 -21 OFFCURVE",
"730 -21 CURVE SMOOTH",
"842 -21 OFFCURVE",
"965 71 OFFCURVE",
"1093 245 CURVE",
"1054 273 LINE",
"944 151 OFFCURVE",
"886 97 OFFCURVE",
"845 97 CURVE SMOOTH",
"805 97 OFFCURVE",
"800 132 OFFCURVE",
"831 216 CURVE SMOOTH",
"1362 1622 LINE",
"985 1622 LINE",
"994 1594 LINE",
"1147 1569 LINE",
"918 976 LINE {name = hr01;}",
"868 1043 OFFCURVE",
"824 1069 OFFCURVE",
"748 1069 CURVE SMOOTH",
"418 1069 OFFCURVE",
"38 606 OFFCURVE",
"38 237 CURVE SMOOTH",
"38 66 OFFCURVE",
"111 -21 OFFCURVE",
"253 -21 CURVE SMOOTH"
);
},
{
closed = 1;
nodes = (
"246 50 OFFCURVE",
"216 83 OFFCURVE",
"216 161 CURVE SMOOTH",
"216 448 OFFCURVE",
"583 1005 OFFCURVE",
"782 1005 CURVE SMOOTH",
"834 1005 OFFCURVE",
"866 968 OFFCURVE",
"875 906 CURVE",
"873 867 OFFCURVE",
"862 828 OFFCURVE",
"826 737 CURVE SMOOTH",
"674 366 OFFCURVE",
"424 50 OFFCURVE",
"290 50 CURVE SMOOTH"
);
}
);
width = 1186;
},
{
anchors = (
{
name = bottom;
position = "{565, 0}";
},
{
name = top;
position = "{1610, 1260}";
}
);
background = {
paths = (
{
closed = 1;
nodes = (
"428 -21 OFFCURVE",
"552 79 OFFCURVE",
"714 328 CURVE",
"727 325 LINE",
"676 219 OFFCURVE",
"653 159 OFFCURVE",
"653 105 CURVE SMOOTH",
"653 22 OFFCURVE",
"706 -21 OFFCURVE",
"808 -21 CURVE SMOOTH",
"941 -21 OFFCURVE",
"1056 54 OFFCURVE",
"1225 251 CURVE {name = hr03;}",
"1170 284 LINE",
"1018 128 OFFCURVE",
"973 91 OFFCURVE",
"934 91 CURVE SMOOTH",
"911 91 OFFCURVE",
"904 108 OFFCURVE",
"915 135 CURVE SMOOTH",
"1292 1049 LINE",
"1002 1049 LINE",
"970 976 LINE",
"917 1041 OFFCURVE",
"851 1069 OFFCURVE",
"752 1069 CURVE SMOOTH",
"438 1069 OFFCURVE",
"43 618 OFFCURVE",
"43 260 CURVE SMOOTH",
"43 86 OFFCURVE",
"139 -21 OFFCURVE",
"296 -21 CURVE SMOOTH"
);
},
{
closed = 1;
nodes = (
"345 73 OFFCURVE",
"326 111 OFFCURVE",
"326 173 CURVE SMOOTH",
"326 463 OFFCURVE",
"638 976 OFFCURVE",
"814 976 CURVE SMOOTH",
"873 976 OFFCURVE",
"905 943 OFFCURVE",
"905 882 CURVE SMOOTH",
"905 848 OFFCURVE",
"896 815 OFFCURVE",
"862 737 CURVE SMOOTH",
"725 419 OFFCURVE",
"472 73 OFFCURVE",
"378 73 CURVE SMOOTH"
);
}
);
};
layerId = "D3934E74-9B53-4E98-B19F-CD3DFEE08352";
paths = (
{
closed = 1;
nodes = (
"428 -21 OFFCURVE",
"552 79 OFFCURVE",
"714 328 CURVE",
"727 325 LINE",
"676 219 OFFCURVE",
"653 159 OFFCURVE",
"653 105 CURVE SMOOTH",
"653 22 OFFCURVE",
"706 -21 OFFCURVE",
"808 -21 CURVE SMOOTH",
"941 -21 OFFCURVE",
"1056 54 OFFCURVE",
"1225 251 CURVE {name = hr03;}",
"1170 284 LINE",
"1018 128 OFFCURVE",
"973 91 OFFCURVE",
"934 91 CURVE SMOOTH",
"911 91 OFFCURVE",
"905 108 OFFCURVE",
"915 135 CURVE SMOOTH",
"1528 1622 LINE",
"1039 1622 LINE",
"1046 1578 LINE",
"1210 1552 LINE",
"970 976 LINE",
"917 1041 OFFCURVE",
"851 1069 OFFCURVE",
"752 1069 CURVE SMOOTH",
"438 1069 OFFCURVE",
"43 618 OFFCURVE",
"43 260 CURVE SMOOTH",
"43 86 OFFCURVE",
"139 -21 OFFCURVE",
"296 -21 CURVE SMOOTH"
);
},
{
closed = 1;
nodes = (
"345 73 OFFCURVE",
"326 111 OFFCURVE",
"326 173 CURVE SMOOTH",
"326 463 OFFCURVE",
"638 976 OFFCURVE",
"814 976 CURVE SMOOTH",
"873 976 OFFCURVE",
"905 943 OFFCURVE",
"905 882 CURVE SMOOTH",
"905 848 OFFCURVE",
"896 815 OFFCURVE",
"862 737 CURVE SMOOTH",
"727 419 OFFCURVE",
"472 73 OFFCURVE",
"378 73 CURVE SMOOTH"
);
}
);
width = 1305;
}
);
leftKerningGroup = a;
leftMetricsKey = a;
rightKerningGroup = u;
rightMetricsKey = a;
unicode = 0064;
},
{
glyphname = eth;
layers = (
{
background = {
paths = (
{
closed = 1;
nodes = (
"264 50 OFFCURVE",
"235 96 OFFCURVE",
"235 192 CURVE SMOOTH",
"235 506 OFFCURVE",
"557 982 OFFCURVE",
"769 982 CURVE SMOOTH",
"831 982 OFFCURVE",
"862 938 OFFCURVE",
"862 849 CURVE SMOOTH",
"862 554 OFFCURVE",
"522 50 OFFCURVE",
"324 50 CURVE SMOOTH"
);
},
{
closed = 1;
nodes = (
"1048 1132 OFFCURVE",
"945 1461 OFFCURVE",
"560 1620 CURVE",
"532 1569 LINE",
"761 1453 OFFCURVE",
"897 1224 OFFCURVE",
"902 994 CURVE",
"894 994 LINE",
"868 1044 OFFCURVE",
"821 1069 OFFCURVE",
"745 1069 CURVE SMOOTH {name = hr00;}",
"425 1069 OFFCURVE",
"54 656 OFFCURVE",
"54 299 CURVE SMOOTH",
"54 99 OFFCURVE",
"167 -21 OFFCURVE",
"354 -21 CURVE SMOOTH",
"707 -21 OFFCURVE",
"1048 381 OFFCURVE",
"1048 869 CURVE SMOOTH"
);
},
{
closed = 1;
nodes = (
"511 1200 LINE",
"553 1133 LINE",
"1161 1523 LINE",
"1117 1588 LINE"
);
}
);
};
layerId = master01;
paths = (
{
closed = 1;
nodes = (
"707 -21 OFFCURVE",
"1048 381 OFFCURVE",
"1048 869 CURVE SMOOTH",
"1048 1025 OFFCURVE",
"1012 1204 OFFCURVE",
"902 1358 CURVE",
"1161 1523 LINE",
"1117 1588 LINE",
"853 1419 LINE",
"781 1498 OFFCURVE",
"685 1568 OFFCURVE",
"560 1620 CURVE",
"532 1569 LINE",
"630 1520 OFFCURVE",
"712 1450 OFFCURVE",
"772 1367 CURVE",
"511 1200 LINE",
"553 1133 LINE",
"815 1301 LINE",
"869 1207 OFFCURVE",
"899 1100 OFFCURVE",
"902 994 CURVE",
"894 994 LINE",
"868 1044 OFFCURVE",
"821 1069 OFFCURVE",
"745 1069 CURVE SMOOTH",
"425 1069 OFFCURVE",
"54 656 OFFCURVE",
"54 299 CURVE SMOOTH",
"54 99 OFFCURVE",
"167 -21 OFFCURVE",
"354 -21 CURVE SMOOTH"
);
},
{
closed = 1;
nodes = (
"235 506 OFFCURVE",
"557 982 OFFCURVE",
"769 982 CURVE SMOOTH",
"831 982 OFFCURVE",
"862 938 OFFCURVE",
"862 849 CURVE SMOOTH",
"862 554 OFFCURVE",
"522 50 OFFCURVE",
"324 50 CURVE SMOOTH",
"264 50 OFFCURVE",
"235 96 OFFCURVE",
"235 192 CURVE SMOOTH"
);
}
);
width = 1088;
},
{
background = {
paths = (
{
closed = 1;
nodes = (
"358 73 OFFCURVE",
"329 122 OFFCURVE",
"329 207 CURVE SMOOTH",
"329 487 OFFCURVE",
"620 975 OFFCURVE",
"785 975 CURVE SMOOTH",
"836 975 OFFCURVE",
"864 928 OFFCURVE",
"864 841 CURVE SMOOTH",
"864 560 OFFCURVE",
"575 73 OFFCURVE",
"410 73 CURVE SMOOTH"
);
},
{
closed = 1;
nodes = (
"55 108 OFFCURVE",
"188 -21 OFFCURVE",
"419 -21 CURVE SMOOTH {name = hr00;}",
"838 -21 OFFCURVE",
"1138 359 OFFCURVE",
"1138 851 CURVE SMOOTH",
"1138 1227 OFFCURVE",
"965 1481 OFFCURVE",
"618 1620 CURVE",
"586 1560 LINE",
"806 1443 OFFCURVE",
"902 1274 OFFCURVE",
"921 971 CURVE",
"907 971 LINE",
"875 1033 OFFCURVE",
"818 1069 OFFCURVE",
"723 1069 CURVE SMOOTH",
"431 1069 OFFCURVE",
"55 709 OFFCURVE",
"55 330 CURVE SMOOTH"
);
},
{
closed = 1;
nodes = (
"564 1217 LINE",
"614 1139 LINE",
"1222 1529 LINE",
"1170 1605 LINE"
);
}
);
};
layerId = "D3934E74-9B53-4E98-B19F-CD3DFEE08352";
paths = (
{
closed = 1;
nodes = (
"827 -21 OFFCURVE",
"1138 347 OFFCURVE",
"1138 828 CURVE SMOOTH",
"1138 1027 OFFCURVE",
"1081 1215 OFFCURVE",
"974 1370 CURVE",
"1222 1529 LINE",
"1170 1605 LINE",
"911 1439 LINE",
"835 1512 OFFCURVE",
"737 1572 OFFCURVE",
"618 1620 CURVE",
"571 1549 LINE",
"667 1498 OFFCURVE",
"738 1437 OFFCURVE",
"791 1360 CURVE",
"564 1217 LINE",
"614 1139 LINE",
"836 1279 LINE",
"884 1189 OFFCURVE",
"910 1095 OFFCURVE",
"921 971 CURVE",
"907 971 LINE",
"873 1036 OFFCURVE",
"813 1069 OFFCURVE",
"723 1069 CURVE SMOOTH",
"405 1069 OFFCURVE",
"55 682 OFFCURVE",
"55 330 CURVE SMOOTH",
"55 107 OFFCURVE",
"189 -21 OFFCURVE",
"419 -21 CURVE SMOOTH"
);
},
{
closed = 1;
nodes = (
"358 73 OFFCURVE",
"329 121 OFFCURVE",
"329 207 CURVE SMOOTH",
"329 487 OFFCURVE",
"620 975 OFFCURVE",
"785 975 CURVE SMOOTH",
"836 975 OFFCURVE",
"864 928 OFFCURVE",
"864 841 CURVE SMOOTH",
"864 561 OFFCURVE",
"576 73 OFFCURVE",
"410 73 CURVE SMOOTH"
);
}
);
width = 1184;
}
);
leftKerningGroup = o;
leftMetricsKey = o;
rightMetricsKey = o;
unicode = 00F0;
},
{
glyphname = dcroat;
layers = (
{
components = (
{
name = d;
}
);
layerId = master01;
paths = (
{
closed = 1;
nodes = (
"1362 1310 LINE",
"1398 1393 LINE",
"829 1393 LINE",
"796 1310 LINE"
);
}
);
width = 1193;
},
{
background = {
paths = (
{
closed = 1;
nodes = (
"1362 1310 LINE",
"1398 1393 LINE",
"829 1393 LINE",
"796 1310 LINE"
);
}
);
};
components = (
{
name = d;
}
);
layerId = "D3934E74-9B53-4E98-B19F-CD3DFEE08352";
paths = (
{
closed = 1;
nodes = (
"1549 1253 LINE",
"1603 1382 LINE",
"965 1382 LINE",
"913 1253 LINE"
);
}
);
width = 1305;
}
);
leftKerningGroup = o;
rightKerningGroup = u;
unicode = 0111;
},
{
glyphname = e;
layers = (
{
anchors = (
{
name = bottom;
position = "{304, 0}";
},
{
name = top;
position = "{865, 1289}";
}
);
background = {
paths = (
{
closed = 1;
nodes = (
"674 -21 OFFCURVE",
"1047 388 OFFCURVE",
"1047 744 CURVE SMOOTH",
"1047 944 OFFCURVE",
"940 1069 OFFCURVE",
"752 1069 CURVE SMOOTH",
"424 1069 OFFCURVE",
"53 659 OFFCURVE",
"53 307 CURVE SMOOTH",
"53 105 OFFCURVE",
"158 -21 OFFCURVE",
"345 -21 CURVE SMOOTH {name = hr00;}"
);
},
{
closed = 1;
nodes = (
"259 50 OFFCURVE",
"234 99 OFFCURVE",
"234 193 CURVE SMOOTH",
"234 503 OFFCURVE",
"567 1000 OFFCURVE",
"775 1000 CURVE SMOOTH",
"843 1000 OFFCURVE",
"871 953 OFFCURVE",
"871 865 CURVE SMOOTH",
"871 572 OFFCURVE",
"520 50 OFFCURVE",
"322 50 CURVE SMOOTH"
);
}
);
};
layerId = master01;
paths = (
{
closed = 1;
nodes = (
"453 -21 OFFCURVE",
"624 83 OFFCURVE",
"785 287 CURVE",
"742 314 LINE",
"626 159 OFFCURVE",
"457 50 OFFCURVE",
"335 50 CURVE SMOOTH",
"257 50 OFFCURVE",
"220 91 OFFCURVE",
"220 182 CURVE SMOOTH",
"220 273 OFFCURVE",
"257 392 OFFCURVE",
"333 532 CURVE",
"728 601 OFFCURVE",
"1005 766 OFFCURVE",
"1005 933 CURVE SMOOTH",
"1005 1018 OFFCURVE",
"932 1069 OFFCURVE",
"815 1069 CURVE SMOOTH {name = hr00;}",
"465 1069 OFFCURVE",
"28 611 OFFCURVE",
"28 248 CURVE SMOOTH",
"28 77 OFFCURVE",
"122 -21 OFFCURVE",
"286 -21 CURVE SMOOTH"
);
},
{
closed = 1;
nodes = (
"439 714 LINE SMOOTH",
"529 883 OFFCURVE",
"676 1008 OFFCURVE",
"783 1008 CURVE SMOOTH",
"827 1008 OFFCURVE",
"848 987 OFFCURVE",
"848 948 CURVE SMOOTH",
"848 812 OFFCURVE",
"622 646 OFFCURVE",
"377 599 CURVE"
);
}
);
width = 965;
},
{
anchors = (
{
name = bottom;
position = "{345, 0}";
},
{
name = top;
position = "{823, 1289}";
}
);
background = {
paths = (
{
closed = 1;
nodes = (
"535 -21 OFFCURVE",
"697 77 OFFCURVE",
"861 287 CURVE",
"818 321 LINE",
"658 147 OFFCURVE",
"542 73 OFFCURVE",
"432 73 CURVE SMOOTH",
"359 73 OFFCURVE",
"319 124 OFFCURVE",
"319 215 CURVE SMOOTH",
"319 326 OFFCURVE",
"375 482 OFFCURVE",
"469 632 CURVE SMOOTH",
"591 828 OFFCURVE",
"708 976 OFFCURVE",
"805 976 CURVE SMOOTH",
"837 976 OFFCURVE",
"854 960 OFFCURVE",
"854 922 CURVE SMOOTH",
"854 791 OFFCURVE",
"648 630 OFFCURVE",
"431 586 CURVE",
"395 512 LINE",
"859 595 OFFCURVE",
"1093 723 OFFCURVE",
"1093 892 CURVE SMOOTH",
"1093 1003 OFFCURVE",
"995 1069 OFFCURVE",
"828 1069 CURVE SMOOTH {name = hr00;}",
"426 1069 OFFCURVE",
"45 691 OFFCURVE",
"45 294 CURVE SMOOTH",
"45 107 OFFCURVE",
"172 -21 OFFCURVE",
"356 -21 CURVE SMOOTH"
);
}
);
};
layerId = "D3934E74-9B53-4E98-B19F-CD3DFEE08352";
paths = (
{
closed = 1;
nodes = (
"535 -21 OFFCURVE",
"697 77 OFFCURVE",
"868 282 CURVE",
"818 321 LINE",
"658 147 OFFCURVE",
"542 73 OFFCURVE",
"432 73 CURVE SMOOTH",
"359 73 OFFCURVE",
"319 124 OFFCURVE",
"319 215 CURVE SMOOTH",
"319 297 OFFCURVE",
"350 403 OFFCURVE",
"403 514 CURVE",
"861 596 OFFCURVE",
"1093 724 OFFCURVE",
"1093 892 CURVE SMOOTH",
"1093 1003 OFFCURVE",
"995 1069 OFFCURVE",
"828 1069 CURVE SMOOTH",
"426 1069 OFFCURVE",
"45 691 OFFCURVE",
"45 294 CURVE SMOOTH",
"45 107 OFFCURVE",
"172 -21 OFFCURVE",
"356 -21 CURVE SMOOTH"
);
},
{
closed = 1;
nodes = (
"469 632 LINE SMOOTH",
"591 828 OFFCURVE",
"708 976 OFFCURVE",
"805 976 CURVE SMOOTH",
"837 976 OFFCURVE",
"854 960 OFFCURVE",
"854 922 CURVE SMOOTH",
"854 793 OFFCURVE",
"656 636 OFFCURVE",
"442 588 CURVE"
);
}
);
width = 1085;
}
);
leftKerningGroup = o;
leftMetricsKey = o;
rightKerningGroup = e;
unicode = 0065;
},
{
glyphname = schwa;
layers = (
{
anchors = (
{
name = bottom;
position = "{237, 0}";
},
{
name = top;
position = "{797, 1289}";
}
);
layerId = master01;
paths = (
{
closed = 1;
nodes = (
"450 187 OFFCURVE",
"325 41 OFFCURVE",
"182 41 CURVE SMOOTH",
"138 41 OFFCURVE",
"119 62 OFFCURVE",
"119 101 CURVE SMOOTH",
"119 242 OFFCURVE",
"358 415 OFFCURVE",
"611 455 CURVE",
"660 520 LINE",
"250 455 OFFCURVE",
"-39 287 OFFCURVE",
"-39 117 CURVE SMOOTH",
"-39 31 OFFCURVE",
"33 -21 OFFCURVE",
"151 -21 CURVE {name = hr00;}",
"500 -21 OFFCURVE",
"937 438 OFFCURVE",
"937 801 CURVE SMOOTH",
"937 972 OFFCURVE",
"843 1069 OFFCURVE",
"682 1069 CURVE SMOOTH",
"512 1069 OFFCURVE",
"343 966 OFFCURVE",
"180 762 CURVE",
"223 735 LINE",
"341 890 OFFCURVE",
"508 1000 OFFCURVE",
"632 1000 CURVE SMOOTH",
"708 1000 OFFCURVE",
"746 958 OFFCURVE",
"746 867 CURVE SMOOTH",
"746 772 OFFCURVE",
"705 645 OFFCURVE",
"622 495 CURVE SMOOTH"
);
}
);
width = 965;
},
{
anchors = (
{
name = bottom;
position = "{276, 0}";
},
{
name = top;
position = "{836, 1289}";
}
);
background = {
paths = (
{
closed = 1;
nodes = (
"547 1069 OFFCURVE",
"386 971 OFFCURVE",
"214 766 CURVE",
"265 727 LINE",
"425 900 OFFCURVE",
"540 975 OFFCURVE",
"651 975 CURVE SMOOTH",
"723 975 OFFCURVE",
"763 924 OFFCURVE",
"763 833 CURVE SMOOTH",
"763 751 OFFCURVE",
"732 645 OFFCURVE",
"679 534 CURVE",
"221 451 OFFCURVE",
"-10 324 OFFCURVE",
"-10 155 CURVE SMOOTH",
"-10 45 OFFCURVE",
"88 -21 OFFCURVE",
"254 -21 CURVE SMOOTH",
"656 -21 OFFCURVE",
"1038 357 OFFCURVE",
"1038 754 CURVE SMOOTH",
"1038 941 OFFCURVE",
"911 1069 OFFCURVE",
"727 1069 CURVE SMOOTH"
);
},
{
closed = 1;
nodes = (
"614 416 LINE SMOOTH",
"494 219 OFFCURVE",
"374 71 OFFCURVE",
"278 71 CURVE SMOOTH",
"245 71 OFFCURVE",
"228 88 OFFCURVE",
"228 126 CURVE SMOOTH",
"228 254 OFFCURVE",
"426 412 OFFCURVE",
"640 459 CURVE"
);
}
);
};
layerId = "D3934E74-9B53-4E98-B19F-CD3DFEE08352";
paths = (
{
closed = 1;
nodes = (
"473 191 OFFCURVE",
"375 71 OFFCURVE",
"279 71 CURVE SMOOTH",
"246 71 OFFCURVE",
"229 88 OFFCURVE",
"229 126 CURVE SMOOTH",
"229 263 OFFCURVE",
"453 432 OFFCURVE",
"681 466 CURVE",
"738 545 LINE",
"242 462 OFFCURVE",
"-9 330 OFFCURVE",
"-9 155 CURVE SMOOTH",
"-9 45 OFFCURVE",
"89 -21 OFFCURVE",
"256 -21 CURVE SMOOTH",
"658 -21 OFFCURVE",
"1039 357 OFFCURVE",
"1039 754 CURVE SMOOTH",
"1039 941 OFFCURVE",
"912 1069 OFFCURVE",
"728 1069 CURVE SMOOTH",
"548 1069 OFFCURVE",
"387 971 OFFCURVE",
"215 766 CURVE",
"266 727 LINE",
"426 900 OFFCURVE",
"541 975 OFFCURVE",
"652 975 CURVE SMOOTH",
"724 975 OFFCURVE",
"765 924 OFFCURVE",
"765 833 CURVE SMOOTH",
"765 729 OFFCURVE",
"720 590 OFFCURVE",
"573 354 CURVE SMOOTH"
);
}
);
width = 1085;
}
);
leftMetricsKey = "=|e";
rightKerningGroup = o;
rightMetricsKey = "=|e";
unicode = 0259;
},
{
glyphname = f;
layers = (
{
associatedMasterId = master01;
layerId = "802DC178-2968-4689-BA99-BD2290573E1B";
name = "Jan 8 19, 16:47";
paths = (
{
closed = 1;
nodes = (
"593 1168 LINE SMOOTH",
"689 1470 OFFCURVE",
"826 1589 OFFCURVE",
"956 1589 CURVE SMOOTH",
"1016 1589 OFFCURVE",
"1057 1563 OFFCURVE",
"1057 1520 CURVE SMOOTH",
"1057 1490 OFFCURVE",
"1043 1466 OFFCURVE",
"1043 1429 CURVE SMOOTH",
"1043 1377 OFFCURVE",
"1085 1341 OFFCURVE",
"1135 1341 CURVE SMOOTH",
"1195 1341 OFFCURVE",
"1231 1379 OFFCURVE",
"1231 1437 CURVE SMOOTH",
"1231 1555 OFFCURVE",
"1109 1643 OFFCURVE",
"966 1643 CURVE SMOOTH",
"745 1643 OFFCURVE",
"503 1528 OFFCURVE",
"393 1187 CURVE SMOOTH",
"100 283 LINE SMOOTH",
"-79 -271 OFFCURVE",
"-274 -438 OFFCURVE",
"-379 -438 CURVE SMOOTH",
"-484 -438 OFFCURVE",
"-427 -249 OFFCURVE",
"-561 -249 CURVE SMOOTH",
"-618 -249 OFFCURVE",
"-654 -291 OFFCURVE",
"-654 -350 CURVE SMOOTH",
"-654 -444 OFFCURVE",
"-578 -507 OFFCURVE",
"-438 -507 CURVE SMOOTH",
"-161 -507 OFFCURVE",
"129 -302 OFFCURVE",
"351 402 CURVE SMOOTH"
);
},
{
closed = 1;
nodes = (
"189 1049 LINE",
"165 985 LINE",
"748 985 LINE",
"774 1049 LINE"
);
}
);
width = 641;
},
{
associatedMasterId = master01;
layerId = "BAAEB8E4-1D37-4217-9235-A593962F46F4";
name = "Jan 8 19, 16:50";
paths = (
{
closed = 1;
nodes = (
"-184 -507 OFFCURVE",
"58 -229 OFFCURVE",
"328 402 CURVE SMOOTH",
"580 985 LINE",
"772 985 LINE",
"797 1049 LINE {name = hr01;}",
"603 1049 LINE",
"651 1168 LINE SMOOTH",
"770 1464 OFFCURVE",
"883 1589 OFFCURVE",
"1013 1589 CURVE SMOOTH",
"1073 1589 OFFCURVE",
"1115 1563 OFFCURVE",
"1115 1520 CURVE SMOOTH",
"1115 1490 OFFCURVE",
"1101 1466 OFFCURVE",
"1101 1429 CURVE SMOOTH",
"1101 1377 OFFCURVE",
"1142 1341 OFFCURVE",
"1193 1341 CURVE SMOOTH",
"1253 1341 OFFCURVE",
"1289 1379 OFFCURVE",
"1289 1437 CURVE SMOOTH",
"1289 1555 OFFCURVE",
"1166 1643 OFFCURVE",
"1024 1643 CURVE SMOOTH",
"813 1643 OFFCURVE",
"596 1518 OFFCURVE",
"450 1187 CURVE SMOOTH",
"388 1049 LINE {name = hr02;}",
"212 1049 LINE",
"188 985 LINE",
"362 985 LINE",
"77 283 LINE SMOOTH",
"-140 -256 OFFCURVE",
"-297 -438 OFFCURVE",
"-402 -438 CURVE SMOOTH",
"-507 -438 OFFCURVE",
"-450 -261 OFFCURVE",
"-584 -261 CURVE SMOOTH",
"-641 -261 OFFCURVE",
"-677 -291 OFFCURVE",
"-677 -342 CURVE SMOOTH",
"-677 -440 OFFCURVE",
"-594 -507 OFFCURVE",
"-461 -507 CURVE SMOOTH"
);
}
);
width = 641;
},
{
background = {
paths = (
{
closed = 1;
nodes = (
"591 1103 LINE SMOOTH",
"700 1434 OFFCURVE",
"831 1583 OFFCURVE",
"1012 1583 CURVE SMOOTH",
"1086 1583 OFFCURVE",
"1127 1560 OFFCURVE",
"1127 1520 CURVE SMOOTH",
"1127 1490 OFFCURVE",
"1114 1466 OFFCURVE",
"1114 1429 CURVE SMOOTH",
"1114 1377 OFFCURVE",
"1155 1341 OFFCURVE",
"1206 1341 CURVE SMOOTH",
"1265 1341 OFFCURVE",
"1301 1379 OFFCURVE",
"1301 1437 CURVE SMOOTH",
"1301 1557 OFFCURVE",
"1178 1643 OFFCURVE",
"1008 1643 CURVE SMOOTH",
"715 1643 OFFCURVE",
"503 1460 OFFCURVE",
"383 1103 CURVE SMOOTH",
"108 283 LINE SMOOTH",
"-36 -144 OFFCURVE",
"-241 -440 OFFCURVE",
"-394 -440 CURVE SMOOTH",
"-499 -440 OFFCURVE",
"-438 -249 OFFCURVE",
"-571 -249 CURVE SMOOTH",
"-629 -249 OFFCURVE",
"-664 -291 OFFCURVE",
"-664 -350 CURVE SMOOTH",
"-664 -442 OFFCURVE",
"-587 -507 OFFCURVE",
"-448 -507 CURVE SMOOTH",
"-109 -507 OFFCURVE",
"159 -205 OFFCURVE",
"359 402 CURVE SMOOTH"
);
},
{
closed = 1;
nodes = (
"202 1049 LINE",
"177 985 LINE",
"761 985 LINE",
"786 1049 LINE"
);
}
);
};
layerId = master01;
paths = (
{
closed = 1;
nodes = (
"605 1103 LINE SMOOTH",
"717 1430 OFFCURVE",
"845 1583 OFFCURVE",
"1026 1583 CURVE SMOOTH",
"1100 1583 OFFCURVE",
"1141 1560 OFFCURVE",
"1141 1520 CURVE SMOOTH",
"1141 1490 OFFCURVE",
"1127 1466 OFFCURVE",
"1127 1429 CURVE SMOOTH",
"1127 1377 OFFCURVE",
"1169 1341 OFFCURVE",
"1219 1341 CURVE SMOOTH",
"1279 1341 OFFCURVE",
"1315 1379 OFFCURVE",
"1315 1437 CURVE SMOOTH",
"1315 1557 OFFCURVE",
"1192 1643 OFFCURVE",
"1021 1643 CURVE SMOOTH",
"729 1643 OFFCURVE",
"523 1458 OFFCURVE",
"397 1103 CURVE SMOOTH",
"108 283 LINE SMOOTH",
"-41 -140 OFFCURVE",
"-241 -440 OFFCURVE",
"-394 -440 CURVE SMOOTH",
"-499 -440 OFFCURVE",
"-438 -249 OFFCURVE",
"-571 -249 CURVE SMOOTH",
"-629 -249 OFFCURVE",
"-664 -291 OFFCURVE",
"-664 -350 CURVE SMOOTH",
"-664 -442 OFFCURVE",
"-587 -507 OFFCURVE",
"-448 -507 CURVE SMOOTH",
"-109 -507 OFFCURVE",
"155 -198 OFFCURVE",
"363 402 CURVE SMOOTH"
);
},
{
closed = 1;
nodes = (
"215 1049 LINE",
"191 985 LINE",
"775 985 LINE",
"800 1049 LINE"
);
}
);
width = 629;
},
{
associatedMasterId = master01;
layerId = "CCA3CB14-3C2A-4D99-A472-E35F3E3F9C8D";
name = "Jan 9 19, 10:01";
paths = (
{
closed = 1;
nodes = (
"605 1168 LINE SMOOTH",
"709 1469 OFFCURVE",
"844 1589 OFFCURVE",
"979 1589 CURVE SMOOTH",
"1070 1589 OFFCURVE",
"1115 1563 OFFCURVE",
"1115 1520 CURVE SMOOTH",
"1115 1490 OFFCURVE",
"1101 1466 OFFCURVE",
"1101 1429 CURVE SMOOTH",
"1101 1377 OFFCURVE",
"1142 1341 OFFCURVE",
"1193 1341 CURVE SMOOTH",
"1253 1341 OFFCURVE",
"1289 1379 OFFCURVE",
"1289 1437 CURVE SMOOTH",
"1289 1555 OFFCURVE",
"1162 1643 OFFCURVE",
"989 1643 CURVE SMOOTH",
"763 1643 OFFCURVE",
"523 1527 OFFCURVE",
"404 1187 CURVE SMOOTH",
"100 283 LINE SMOOTH",
"-92 -266 OFFCURVE",
"-274 -438 OFFCURVE",
"-379 -438 CURVE SMOOTH",
"-484 -438 OFFCURVE",
"-427 -249 OFFCURVE",
"-561 -249 CURVE SMOOTH",
"-618 -249 OFFCURVE",
"-654 -291 OFFCURVE",
"-654 -350 CURVE SMOOTH",
"-654 -444 OFFCURVE",
"-578 -507 OFFCURVE",
"-438 -507 CURVE SMOOTH",
"-161 -507 OFFCURVE",
"111 -295 OFFCURVE",
"351 402 CURVE SMOOTH"
);
},
{
closed = 1;
nodes = (
"189 1049 LINE",
"165 985 LINE",
"748 985 LINE",
"774 1049 LINE"
);
}
);
width = 641;
},
{
associatedMasterId = "D3934E74-9B53-4E98-B19F-CD3DFEE08352";
layerId = "335FD8BD-4664-4E45-A52E-9C4646E9ABE7";
name = "Jan 8 19, 16:47";
paths = (
{
closed = 1;
nodes = (
"593 1168 LINE SMOOTH",
"689 1470 OFFCURVE",
"826 1589 OFFCURVE",
"956 1589 CURVE SMOOTH",
"1016 1589 OFFCURVE",
"1057 1563 OFFCURVE",
"1057 1520 CURVE SMOOTH",
"1057 1490 OFFCURVE",
"1043 1466 OFFCURVE",
"1043 1429 CURVE SMOOTH",
"1043 1377 OFFCURVE",
"1085 1341 OFFCURVE",
"1135 1341 CURVE SMOOTH",
"1195 1341 OFFCURVE",
"1231 1379 OFFCURVE",
"1231 1437 CURVE SMOOTH",
"1231 1555 OFFCURVE",
"1109 1643 OFFCURVE",
"966 1643 CURVE SMOOTH",
"745 1643 OFFCURVE",
"503 1528 OFFCURVE",
"393 1187 CURVE SMOOTH",
"100 283 LINE SMOOTH",
"-79 -271 OFFCURVE",
"-274 -438 OFFCURVE",
"-379 -438 CURVE SMOOTH",
"-484 -438 OFFCURVE",
"-427 -249 OFFCURVE",
"-561 -249 CURVE SMOOTH",
"-618 -249 OFFCURVE",
"-654 -291 OFFCURVE",
"-654 -350 CURVE SMOOTH",
"-654 -444 OFFCURVE",
"-578 -507 OFFCURVE",
"-438 -507 CURVE SMOOTH",
"-161 -507 OFFCURVE",
"129 -302 OFFCURVE",
"351 402 CURVE SMOOTH"
);
},
{
closed = 1;
nodes = (
"189 1049 LINE",
"165 985 LINE",
"748 985 LINE",
"774 1049 LINE"
);
}
);
width = 641;
},
{
associatedMasterId = "D3934E74-9B53-4E98-B19F-CD3DFEE08352";
layerId = "139B72F1-E750-4A89-A3EA-1049FF8FCD72";
name = "Jan 8 19, 16:50";
paths = (
{
closed = 1;
nodes = (
"-184 -507 OFFCURVE",
"58 -229 OFFCURVE",
"328 402 CURVE SMOOTH",
"580 985 LINE",
"772 985 LINE",
"797 1049 LINE {name = hr01;}",
"603 1049 LINE",
"651 1168 LINE SMOOTH",
"770 1464 OFFCURVE",
"883 1589 OFFCURVE",
"1013 1589 CURVE SMOOTH",
"1073 1589 OFFCURVE",
"1115 1563 OFFCURVE",
"1115 1520 CURVE SMOOTH",
"1115 1490 OFFCURVE",
"1101 1466 OFFCURVE",
"1101 1429 CURVE SMOOTH",
"1101 1377 OFFCURVE",
"1142 1341 OFFCURVE",
"1193 1341 CURVE SMOOTH",
"1253 1341 OFFCURVE",
"1289 1379 OFFCURVE",
"1289 1437 CURVE SMOOTH",
"1289 1555 OFFCURVE",
"1166 1643 OFFCURVE",
"1024 1643 CURVE SMOOTH",
"813 1643 OFFCURVE",
"596 1518 OFFCURVE",
"450 1187 CURVE SMOOTH",
"388 1049 LINE {name = hr02;}",
"212 1049 LINE",
"188 985 LINE",
"362 985 LINE",
"77 283 LINE SMOOTH",
"-140 -256 OFFCURVE",
"-297 -438 OFFCURVE",
"-402 -438 CURVE SMOOTH",
"-507 -438 OFFCURVE",
"-450 -261 OFFCURVE",
"-584 -261 CURVE SMOOTH",
"-641 -261 OFFCURVE",
"-677 -291 OFFCURVE",
"-677 -342 CURVE SMOOTH",
"-677 -440 OFFCURVE",
"-594 -507 OFFCURVE",
"-461 -507 CURVE SMOOTH"
);
}
);
width = 641;
},
{
layerId = "D3934E74-9B53-4E98-B19F-CD3DFEE08352";
paths = (
{
closed = 1;
nodes = (
"676 1031 LINE SMOOTH",
"814 1420 OFFCURVE",
"911 1551 OFFCURVE",
"1059 1551 CURVE SMOOTH",
"1124 1551 OFFCURVE",
"1170 1527 OFFCURVE",
"1170 1489 CURVE SMOOTH",
"1170 1462 OFFCURVE",
"1152 1430 OFFCURVE",
"1152 1394 CURVE SMOOTH",
"1152 1343 OFFCURVE",
"1191 1298 OFFCURVE",
"1268 1298 CURVE SMOOTH",
"1352 1298 OFFCURVE",
"1392 1351 OFFCURVE",
"1392 1416 CURVE SMOOTH",
"1392 1536 OFFCURVE",
"1268 1643 OFFCURVE",
"1062 1643 CURVE SMOOTH",
"789 1643 OFFCURVE",
"531 1467 OFFCURVE",
"377 1034 CURVE SMOOTH",
"67 164 LINE SMOOTH",
"-97 -297 OFFCURVE",
"-189 -412 OFFCURVE",
"-296 -415 CURVE SMOOTH",
"-434 -418 OFFCURVE",
"-357 -195 OFFCURVE",
"-512 -195 CURVE SMOOTH",
"-592 -195 OFFCURVE",
"-640 -256 OFFCURVE",
"-640 -322 CURVE SMOOTH",
"-640 -432 OFFCURVE",
"-503 -507 OFFCURVE",
"-354 -507 CURVE SMOOTH",
"-73 -507 OFFCURVE",
"221 -254 OFFCURVE",
"410 279 CURVE SMOOTH"
);
},
{
closed = 1;
nodes = (
"225 1049 LINE",
"192 963 LINE",
"854 963 LINE",
"888 1049 LINE"
);
}
);
width = 728;
},
{
associatedMasterId = "D3934E74-9B53-4E98-B19F-CD3DFEE08352";
layerId = "CB55ACAE-54BA-4AF0-B4E6-5A087A0430E7";
name = "Jan 9 19, 10:01";
paths = (
{
closed = 1;
nodes = (
"605 1168 LINE SMOOTH",
"709 1469 OFFCURVE",
"844 1589 OFFCURVE",
"979 1589 CURVE SMOOTH",
"1070 1589 OFFCURVE",
"1115 1563 OFFCURVE",
"1115 1520 CURVE SMOOTH",
"1115 1490 OFFCURVE",
"1101 1466 OFFCURVE",
"1101 1429 CURVE SMOOTH",
"1101 1377 OFFCURVE",
"1142 1341 OFFCURVE",
"1193 1341 CURVE SMOOTH",
"1253 1341 OFFCURVE",
"1289 1379 OFFCURVE",
"1289 1437 CURVE SMOOTH",
"1289 1555 OFFCURVE",
"1162 1643 OFFCURVE",
"989 1643 CURVE SMOOTH",
"763 1643 OFFCURVE",
"523 1527 OFFCURVE",
"404 1187 CURVE SMOOTH",
"100 283 LINE SMOOTH",
"-92 -266 OFFCURVE",
"-274 -438 OFFCURVE",
"-379 -438 CURVE SMOOTH",
"-484 -438 OFFCURVE",
"-427 -249 OFFCURVE",
"-561 -249 CURVE SMOOTH",
"-618 -249 OFFCURVE",
"-654 -291 OFFCURVE",
"-654 -350 CURVE SMOOTH",
"-654 -444 OFFCURVE",
"-578 -507 OFFCURVE",
"-438 -507 CURVE SMOOTH",
"-161 -507 OFFCURVE",
"111 -295 OFFCURVE",
"351 402 CURVE SMOOTH"
);
},
{
closed = 1;
nodes = (
"189 1049 LINE",
"165 985 LINE",
"748 985 LINE",
"774 1049 LINE"
);
}
);
width = 641;
}
);
leftKerningGroup = f;
rightKerningGroup = f;
unicode = 0066;
},
{
glyphname = g;
layers = (
{
anchors = (
{
name = top;
position = "{676, 1289}";
}
);
background = {
paths = (
{
closed = 1;
nodes = (
"496 -21 OFFCURVE",
"869 388 OFFCURVE",
"869 744 CURVE SMOOTH",
"869 944 OFFCURVE",
"762 1069 OFFCURVE",
"575 1069 CURVE SMOOTH",
"246 1069 OFFCURVE",
"-124 659 OFFCURVE",
"-124 307 CURVE SMOOTH",
"-124 105 OFFCURVE",
"-20 -21 OFFCURVE",
"168 -21 CURVE SMOOTH {name = hr00;}"
);
},
{
closed = 1;
nodes = (
"82 50 OFFCURVE",
"56 99 OFFCURVE",
"56 193 CURVE SMOOTH",
"56 503 OFFCURVE",
"389 1000 OFFCURVE",
"598 1000 CURVE SMOOTH",
"666 1000 OFFCURVE",
"693 953 OFFCURVE",
"693 865 CURVE SMOOTH",
"693 572 OFFCURVE",
"343 50 OFFCURVE",
"145 50 CURVE SMOOTH"
);
}
);
};
layerId = master01;
paths = (
{
closed = 1;
nodes = (
"830 958 LINE",
"873 1025 OFFCURVE",
"912 1051 OFFCURVE",
"965 1051 CURVE SMOOTH",
"1014 1051 OFFCURVE",
"1027 996 OFFCURVE",
"1085 996 CURVE SMOOTH",
"1130 996 OFFCURVE",
"1168 1031 OFFCURVE",
"1168 1076 CURVE SMOOTH",
"1168 1130 OFFCURVE",
"1124 1175 OFFCURVE",
"1056 1175 CURVE SMOOTH",
"972 1175 OFFCURVE",
"873 1137 OFFCURVE",
"788 1008 CURVE"
);
},
{
closed = 1;
nodes = (
"90 -448 OFFCURVE",
"-43 -359 OFFCURVE",
"-43 -212 CURVE SMOOTH",
"-43 -89 OFFCURVE",
"51 13 OFFCURVE",
"178 13 CURVE SMOOTH {name = hr04;}",
"197 13 OFFCURVE",
"212 9 OFFCURVE",
"241 0 CURVE SMOOTH",
"494 -85 LINE SMOOTH",
"579 -114 OFFCURVE",
"641 -182 OFFCURVE",
"641 -248 CURVE SMOOTH",
"641 -362 OFFCURVE",
"499 -448 OFFCURVE",
"295 -448 CURVE SMOOTH"
);
},
{
closed = 1;
nodes = (
"395 432 OFFCURVE",
"352 491 OFFCURVE",
"352 594 CURVE SMOOTH",
"352 788 OFFCURVE",
"508 995 OFFCURVE",
"649 995 CURVE SMOOTH",
"725 995 OFFCURVE",
"755 953 OFFCURVE",
"755 862 CURVE SMOOTH",
"755 646 OFFCURVE",
"615 432 OFFCURVE",
"470 432 CURVE SMOOTH"
);
},
{
closed = 1;
nodes = (
"577 -507 OFFCURVE",
"799 -370 OFFCURVE",
"799 -182 CURVE SMOOTH",
"799 -68 OFFCURVE",
"717 32 OFFCURVE",
"592 75 CURVE SMOOTH",
"282 180 LINE SMOOTH",
"215 203 OFFCURVE",
"183 235 OFFCURVE",
"183 281 CURVE SMOOTH {name = hr01;}",
"183 339 OFFCURVE",
"241 370 OFFCURVE",
"364 370 CURVE SMOOTH",
"413 370 OFFCURVE",
"477 364 OFFCURVE",
"518 364 CURVE SMOOTH",
"751 364 OFFCURVE",
"932 525 OFFCURVE",
"932 744 CURVE SMOOTH",
"932 951 OFFCURVE",
"808 1069 OFFCURVE",
"626 1069 CURVE SMOOTH",
"373 1069 OFFCURVE",
"185 890 OFFCURVE",
"185 692 CURVE SMOOTH {name = hr02;}",
"185 587 OFFCURVE",
"230 503 OFFCURVE",
"326 435 CURVE",
"324 427 LINE",
"139 427 OFFCURVE",
"30 352 OFFCURVE",
"30 229 CURVE SMOOTH",
"30 167 OFFCURVE",
"61 105 OFFCURVE",
"116 63 CURVE",
"-74 63 OFFCURVE",
"-215 -55 OFFCURVE",
"-215 -208 CURVE SMOOTH",
"-215 -388 OFFCURVE",
"-20 -507 OFFCURVE",
"267 -507 CURVE SMOOTH"
);
}
);
width = 1009;
},
{
anchors = (
{
name = top;
position = "{780, 1289}";
}
);
associatedMasterId = master01;
layerId = "B5BF7713-81A1-41A7-92F7-04D8C14707DA";
name = "Jan 9 19, 13:59";
paths = (
{
closed = 1;
nodes = (
"565 -507 OFFCURVE",
"788 -370 OFFCURVE",
"788 -182 CURVE SMOOTH",
"788 -68 OFFCURVE",
"706 31 OFFCURVE",
"580 75 CURVE SMOOTH",
"271 180 LINE SMOOTH",
"204 203 OFFCURVE",
"172 235 OFFCURVE",
"172 281 CURVE SMOOTH {name = hr01;}",
"172 339 OFFCURVE",
"229 370 OFFCURVE",
"352 370 CURVE SMOOTH",
"402 370 OFFCURVE",
"465 364 OFFCURVE",
"507 364 CURVE SMOOTH",
"735 364 OFFCURVE",
"920 534 OFFCURVE",
"920 744 CURVE SMOOTH",
"920 797 OFFCURVE",
"912 837 OFFCURVE",
"883 898 CURVE",
"896 927 OFFCURVE",
"927 945 OFFCURVE",
"953 945 CURVE SMOOTH",
"1003 945 OFFCURVE",
"1016 890 OFFCURVE",
"1073 890 CURVE SMOOTH",
"1118 890 OFFCURVE",
"1156 925 OFFCURVE",
"1156 970 CURVE SMOOTH",
"1156 1024 OFFCURVE",
"1112 1069 OFFCURVE",
"1044 1069 CURVE SMOOTH",
"982 1069 OFFCURVE",
"914 1029 OFFCURVE",
"845 948 CURVE",
"780 1029 OFFCURVE",
"696 1069 OFFCURVE",
"588 1069 CURVE SMOOTH",
"362 1069 OFFCURVE",
"168 895 OFFCURVE",
"168 697 CURVE SMOOTH {name = hr02;}",
"168 592 OFFCURVE",
"219 503 OFFCURVE",
"314 435 CURVE",
"312 427 LINE",
"128 427 OFFCURVE",
"18 352 OFFCURVE",
"18 229 CURVE SMOOTH",
"18 167 OFFCURVE",
"50 105 OFFCURVE",
"105 63 CURVE",
"-85 63 OFFCURVE",
"-227 -55 OFFCURVE",
"-227 -208 CURVE SMOOTH",
"-227 -388 OFFCURVE",
"-31 -507 OFFCURVE",
"256 -507 CURVE SMOOTH"
);
},
{
closed = 1;
nodes = (
"78 -448 OFFCURVE",
"-54 -359 OFFCURVE",
"-54 -212 CURVE SMOOTH",
"-54 -89 OFFCURVE",
"39 13 OFFCURVE",
"167 13 CURVE SMOOTH {name = hr04;}",
"185 13 OFFCURVE",
"200 10 OFFCURVE",
"229 0 CURVE SMOOTH",
"482 -85 LINE SMOOTH",
"568 -115 OFFCURVE",
"630 -182 OFFCURVE",
"630 -248 CURVE SMOOTH",
"630 -362 OFFCURVE",
"487 -448 OFFCURVE",
"283 -448 CURVE SMOOTH"
);
},
{
closed = 1;
nodes = (
"383 432 OFFCURVE",
"341 491 OFFCURVE",
"341 594 CURVE SMOOTH",
"341 778 OFFCURVE",
"507 995 OFFCURVE",
"638 995 CURVE SMOOTH",
"714 995 OFFCURVE",
"744 953 OFFCURVE",
"744 862 CURVE SMOOTH",
"744 646 OFFCURVE",
"603 432 OFFCURVE",
"458 432 CURVE SMOOTH"
);
}
);
width = 1043;
},
{
anchors = (
{
name = top;
position = "{827, 1289}";
}
);
background = {
paths = (
{
closed = 1;
nodes = (
"707 986 OFFCURVE",
"740 929 OFFCURVE",
"740 830 CURVE SMOOTH",
"740 648 OFFCURVE",
"610 448 OFFCURVE",
"532 448 CURVE SMOOTH",
"499 448 OFFCURVE",
"469 497 OFFCURVE",
"469 603 CURVE SMOOTH",
"469 785 OFFCURVE",
"576 986 OFFCURVE",
"661 986 CURVE SMOOTH"
);
}
);
};
layerId = "D3934E74-9B53-4E98-B19F-CD3DFEE08352";
paths = (
{
closed = 1;
nodes = (
"899 956 LINE",
"945 1014 OFFCURVE",
"979 1039 OFFCURVE",
"1012 1039 CURVE",
"1080 1039 OFFCURVE",
"1074 938 OFFCURVE",
"1171 938 CURVE",
"1242 938 OFFCURVE",
"1284 989 OFFCURVE",
"1284 1052 CURVE",
"1284 1130 OFFCURVE",
"1223 1186 OFFCURVE",
"1134 1186 CURVE",
"1040 1186 OFFCURVE",
"933 1122 OFFCURVE",
"846 1005 CURVE"
);
},
{
closed = 1;
nodes = (
"167 -403 OFFCURVE",
"30 -319 OFFCURVE",
"30 -189 CURVE",
"30 -91 OFFCURVE",
"127 6 OFFCURVE",
"184 6 CURVE",
"203 6 OFFCURVE",
"227 -2 OFFCURVE",
"265 -17 CURVE",
"397 -70 LINE",
"522 -120 OFFCURVE",
"591 -164 OFFCURVE",
"591 -233 CURVE",
"591 -324 OFFCURVE",
"471 -403 OFFCURVE",
"322 -403 CURVE"
);
},
{
closed = 1;
nodes = (
"479 459 OFFCURVE",
"446 516 OFFCURVE",
"446 615 CURVE",
"446 797 OFFCURVE",
"576 997 OFFCURVE",
"682 997 CURVE",
"734 997 OFFCURVE",
"763 948 OFFCURVE",
"763 849 CURVE",
"763 660 OFFCURVE",
"656 459 OFFCURVE",
"540 459 CURVE"
);
},
{
closed = 1;
nodes = (
"632 -495 OFFCURVE",
"861 -356 OFFCURVE",
"861 -160 CURVE SMOOTH",
"861 -43 OFFCURVE",
"776 32 OFFCURVE",
"623 92 CURVE SMOOTH",
"424 170 LINE SMOOTH",
"306 216 OFFCURVE",
"279 254 OFFCURVE",
"279 296 CURVE SMOOTH {name = hr01;}",
"279 357 OFFCURVE",
"336 386 OFFCURVE",
"428 381 CURVE SMOOTH",
"453 380 OFFCURVE",
"484 377 OFFCURVE",
"547 377 CURVE SMOOTH {name = hr00;}",
"838 377 OFFCURVE",
"1034 515 OFFCURVE",
"1034 729 CURVE SMOOTH",
"1034 924 OFFCURVE",
"869 1080 OFFCURVE",
"630 1080 CURVE SMOOTH",
"375 1080 OFFCURVE",
"168 906 OFFCURVE",
"168 716 CURVE SMOOTH",
"168 615 OFFCURVE",
"227 523 OFFCURVE",
"334 456 CURVE",
"329 447 LINE",
"159 434 OFFCURVE",
"45 357 OFFCURVE",
"45 231 CURVE SMOOTH",
"45 168 OFFCURVE",
"75 111 OFFCURVE",
"131 63 CURVE",
"-76 59 OFFCURVE",
"-249 -41 OFFCURVE",
"-249 -197 CURVE SMOOTH",
"-249 -377 OFFCURVE",
"-13 -495 OFFCURVE",
"295 -495 CURVE SMOOTH"
);
}
);
width = 1132;
},
{
anchors = (
{
name = top;
position = "{780, 1289}";
}
);
associatedMasterId = "D3934E74-9B53-4E98-B19F-CD3DFEE08352";
layerId = "99424A7E-43A4-470D-AA80-DBD7DD0D598D";
name = "Jan 9 19, 13:59";
paths = (
{
closed = 1;
nodes = (
"565 -507 OFFCURVE",
"788 -370 OFFCURVE",
"788 -182 CURVE SMOOTH",
"788 -68 OFFCURVE",
"706 31 OFFCURVE",
"580 75 CURVE SMOOTH",
"271 180 LINE SMOOTH",
"204 203 OFFCURVE",
"172 235 OFFCURVE",
"172 281 CURVE SMOOTH {name = hr01;}",
"172 339 OFFCURVE",
"229 370 OFFCURVE",
"352 370 CURVE SMOOTH",
"402 370 OFFCURVE",
"465 364 OFFCURVE",
"507 364 CURVE SMOOTH",
"735 364 OFFCURVE",
"920 534 OFFCURVE",
"920 744 CURVE SMOOTH",
"920 797 OFFCURVE",
"912 837 OFFCURVE",
"883 898 CURVE",
"896 927 OFFCURVE",
"927 945 OFFCURVE",
"953 945 CURVE SMOOTH",
"1003 945 OFFCURVE",
"1016 890 OFFCURVE",
"1073 890 CURVE SMOOTH",
"1118 890 OFFCURVE",
"1156 925 OFFCURVE",
"1156 970 CURVE SMOOTH",
"1156 1024 OFFCURVE",
"1112 1069 OFFCURVE",
"1044 1069 CURVE SMOOTH",
"982 1069 OFFCURVE",
"914 1029 OFFCURVE",
"845 948 CURVE",
"780 1029 OFFCURVE",
"696 1069 OFFCURVE",
"588 1069 CURVE SMOOTH",
"362 1069 OFFCURVE",
"168 895 OFFCURVE",
"168 697 CURVE SMOOTH {name = hr02;}",
"168 592 OFFCURVE",
"219 503 OFFCURVE",
"314 435 CURVE",
"312 427 LINE",
"128 427 OFFCURVE",
"18 352 OFFCURVE",
"18 229 CURVE SMOOTH",
"18 167 OFFCURVE",
"50 105 OFFCURVE",
"105 63 CURVE",
"-85 63 OFFCURVE",
"-227 -55 OFFCURVE",
"-227 -208 CURVE SMOOTH",
"-227 -388 OFFCURVE",
"-31 -507 OFFCURVE",
"256 -507 CURVE SMOOTH"
);
},
{
closed = 1;
nodes = (
"78 -448 OFFCURVE",
"-54 -359 OFFCURVE",
"-54 -212 CURVE SMOOTH",
"-54 -89 OFFCURVE",
"39 13 OFFCURVE",
"167 13 CURVE SMOOTH {name = hr04;}",
"185 13 OFFCURVE",
"200 10 OFFCURVE",
"229 0 CURVE SMOOTH",
"482 -85 LINE SMOOTH",
"568 -115 OFFCURVE",
"630 -182 OFFCURVE",
"630 -248 CURVE SMOOTH",
"630 -362 OFFCURVE",
"487 -448 OFFCURVE",
"283 -448 CURVE SMOOTH"
);
},
{
closed = 1;
nodes = (
"383 432 OFFCURVE",
"341 491 OFFCURVE",
"341 594 CURVE SMOOTH",
"341 778 OFFCURVE",
"507 995 OFFCURVE",
"638 995 CURVE SMOOTH",
"714 995 OFFCURVE",
"744 953 OFFCURVE",
"744 862 CURVE SMOOTH",
"744 646 OFFCURVE",
"603 432 OFFCURVE",
"458 432 CURVE SMOOTH"
);
}
);
width = 1043;
}
);
leftKerningGroup = g;
rightKerningGroup = g;
unicode = 0067;
},
{
glyphname = h;
layers = (
{
anchors = (
{
name = bottom;
position = "{322, 0}";
},
{
name = top;
position = "{1021, 1289}";
}
);
background = {
paths = (
{
closed = 1;
nodes = (
"755 -21 OFFCURVE",
"890 70 OFFCURVE",
"1031 245 CURVE",
"989 275 LINE",
"888 162 OFFCURVE",
"804 97 OFFCURVE",
"758 97 CURVE SMOOTH {name = hr01;}",
"742 97 OFFCURVE",
"734 105 OFFCURVE",
"734 124 CURVE SMOOTH",
"734 146 OFFCURVE",
"750 192 OFFCURVE",
"773 240 CURVE SMOOTH",
"1005 713 LINE SMOOTH",
"1039 780 OFFCURVE",
"1054 837 OFFCURVE",
"1054 895 CURVE SMOOTH",
"1054 1008 OFFCURVE",
"994 1067 OFFCURVE",
"874 1067 CURVE SMOOTH",
"728 1067 OFFCURVE",
"599 976 OFFCURVE",
"430 752 CURVE",
"421 755 LINE",
"484 873 OFFCURVE",
"508 936 OFFCURVE",
"508 989 CURVE SMOOTH",
"508 1044 OFFCURVE",
"480 1069 OFFCURVE",
"413 1069 CURVE SMOOTH",
"287 1069 OFFCURVE",
"140 982 OFFCURVE",
"39 843 CURVE {name = hr03;}",
"79 812 LINE",
"160 912 OFFCURVE",
"243 980 OFFCURVE",
"288 980 CURVE SMOOTH",
"309 980 OFFCURVE",
"317 968 OFFCURVE",
"317 950 CURVE SMOOTH",
"317 937 OFFCURVE",
"309 917 OFFCURVE",
"294 883 CURVE SMOOTH",
"-86 0 LINE",
"106 0 LINE",
"290 383 LINE SMOOTH",
"461 738 OFFCURVE",
"684 1000 OFFCURVE",
"819 1000 CURVE SMOOTH {name = hr02;}",
"859 1000 OFFCURVE",
"882 978 OFFCURVE",
"882 940 CURVE SMOOTH",
"882 911 OFFCURVE",
"871 873 OFFCURVE",
"857 845 CURVE SMOOTH",
"587 312 LINE SMOOTH",
"541 221 OFFCURVE",
"516 140 OFFCURVE",
"516 85 CURVE SMOOTH",
"516 16 OFFCURVE",
"556 -21 OFFCURVE",
"632 -21 CURVE SMOOTH"
);
}
);
};
layerId = master01;
paths = (
{
closed = 1;
nodes = (
"758 -21 OFFCURVE",
"892 71 OFFCURVE",
"1026 245 CURVE",
"986 275 LINE",
"890 168 OFFCURVE",
"804 97 OFFCURVE",
"760 97 CURVE SMOOTH",
"742 97 OFFCURVE",
"730 107 OFFCURVE",
"730 127 CURVE SMOOTH",
"730 151 OFFCURVE",
"744 185 OFFCURVE",
"770 240 CURVE SMOOTH",
"1002 713 LINE SMOOTH",
"1041 793 OFFCURVE",
"1055 857 OFFCURVE",
"1055 911 CURVE SMOOTH",
"1055 1011 OFFCURVE",
"981 1067 OFFCURVE",
"873 1067 CURVE SMOOTH",
"724 1067 OFFCURVE",
"595 976 OFFCURVE",
"430 752 CURVE",
"419 755 LINE",
"796 1622 LINE",
"417 1622 LINE",
"421 1594 LINE {name = hr02;}",
"572 1569 LINE",
"-78 0 LINE",
"107 0 LINE",
"287 383 LINE SMOOTH",
"451 734 OFFCURVE",
"687 1000 OFFCURVE",
"821 1000 CURVE SMOOTH",
"859 1000 OFFCURVE",
"879 980 OFFCURVE",
"879 944 CURVE SMOOTH",
"879 917 OFFCURVE",
"869 883 OFFCURVE",
"851 845 CURVE SMOOTH",
"586 312 LINE SMOOTH",
"541 221 OFFCURVE",
"516 149 OFFCURVE",
"516 94 CURVE SMOOTH",
"516 18 OFFCURVE",
"548 -21 OFFCURVE",
"633 -21 CURVE SMOOTH {name = hr01;}"
);
}
);
width = 1137;
},
{
anchors = (
{
name = bottom;
position = "{439, 0}";
},
{
name = top;
position = "{1126, 1289}";
}
);
background = {
paths = (
{
closed = 1;
nodes = (
"866 -21 OFFCURVE",
"994 58 OFFCURVE",
"1161 251 CURVE",
"1105 284 LINE",
"970 144 OFFCURVE",
"903 91 OFFCURVE",
"862 91 CURVE SMOOTH {name = hr01;}",
"846 91 OFFCURVE",
"838 99 OFFCURVE",
"838 115 CURVE SMOOTH",
"838 130 OFFCURVE",
"846 154 OFFCURVE",
"861 184 CURVE SMOOTH",
"1124 712 LINE SMOOTH",
"1150 763 OFFCURVE",
"1164 820 OFFCURVE",
"1164 876 CURVE SMOOTH",
"1164 1000 OFFCURVE",
"1095 1067 OFFCURVE",
"973 1067 CURVE SMOOTH",
"824 1067 OFFCURVE",
"697 970 OFFCURVE",
"523 720 CURVE",
"510 723 LINE",
"567 845 OFFCURVE",
"587 909 OFFCURVE",
"587 959 CURVE SMOOTH",
"587 1034 OFFCURVE",
"544 1069 OFFCURVE",
"444 1069 CURVE SMOOTH",
"295 1069 OFFCURVE",
"143 991 OFFCURVE",
"28 856 CURVE {name = hr03;}",
"81 813 LINE",
"140 888 OFFCURVE",
"253 968 OFFCURVE",
"299 968 CURVE SMOOTH",
"312 968 OFFCURVE",
"317 964 OFFCURVE",
"317 953 CURVE SMOOTH",
"317 945 OFFCURVE",
"314 934 OFFCURVE",
"305 912 CURVE SMOOTH",
"-67 0 LINE",
"222 0 LINE",
"410 412 LINE SMOOTH",
"512 638 OFFCURVE",
"792 976 OFFCURVE",
"876 976 CURVE SMOOTH {name = hr02;}",
"896 976 OFFCURVE",
"907 963 OFFCURVE",
"907 940 CURVE SMOOTH",
"907 919 OFFCURVE",
"899 892 OFFCURVE",
"881 854 CURVE SMOOTH",
"636 350 LINE SMOOTH",
"590 256 OFFCURVE",
"565 177 OFFCURVE",
"565 114 CURVE SMOOTH",
"565 22 OFFCURVE",
"617 -21 OFFCURVE",
"729 -21 CURVE SMOOTH"
);
}
);
};
layerId = "D3934E74-9B53-4E98-B19F-CD3DFEE08352";
paths = (
{
closed = 1;
nodes = (
"872 -21 OFFCURVE",
"1001 66 OFFCURVE",
"1161 251 CURVE",
"1105 284 LINE",
"970 144 OFFCURVE",
"903 91 OFFCURVE",
"862 91 CURVE SMOOTH {name = hr01;}",
"846 91 OFFCURVE",
"838 99 OFFCURVE",
"838 115 CURVE SMOOTH",
"838 130 OFFCURVE",
"846 154 OFFCURVE",
"861 184 CURVE SMOOTH",
"1124 712 LINE SMOOTH",
"1150 763 OFFCURVE",
"1164 820 OFFCURVE",
"1164 876 CURVE SMOOTH",
"1164 1000 OFFCURVE",
"1095 1067 OFFCURVE",
"973 1067 CURVE SMOOTH",
"824 1067 OFFCURVE",
"697 970 OFFCURVE",
"524 720 CURVE",
"511 723 LINE",
"898 1622 LINE",
"405 1622 LINE",
"412 1578 LINE",
"577 1552 LINE",
"-67 0 LINE",
"222 0 LINE",
"410 412 LINE SMOOTH",
"516 644 OFFCURVE",
"792 976 OFFCURVE",
"876 976 CURVE SMOOTH {name = hr02;}",
"895 976 OFFCURVE",
"907 964 OFFCURVE",
"907 940 CURVE SMOOTH",
"907 919 OFFCURVE",
"899 890 OFFCURVE",
"881 854 CURVE SMOOTH",
"636 351 LINE SMOOTH",
"588 254 OFFCURVE",
"565 176 OFFCURVE",
"565 114 CURVE SMOOTH",
"565 24 OFFCURVE",
"615 -21 OFFCURVE",
"723 -21 CURVE SMOOTH"
);
}
);
width = 1263;
}
);
leftKerningGroup = h;
rightKerningGroup = i;
rightMetricsKey = n;
unicode = 0068;
},
{
glyphname = hbar;
layers = (
{
components = (
{
name = h;
}
);
layerId = master01;
paths = (
{
closed = 1;
nodes = (
"864 1310 LINE",
"899 1393 LINE",
"332 1393 LINE",
"297 1310 LINE"
);
}
);
width = 1137;
},
{
background = {
paths = (
{
closed = 1;
nodes = (
"887 1310 LINE",
"922 1393 LINE",
"355 1393 LINE",
"320 1310 LINE"
);
}
);
};
components = (
{
name = h;
}
);
layerId = "D3934E74-9B53-4E98-B19F-CD3DFEE08352";
paths = (
{
closed = 1;
nodes = (
"967 1251 LINE",
"1021 1379 LINE",
"327 1379 LINE",
"274 1251 LINE"
);
}
);
width = 1263;
}
);
leftKerningGroup = h;
leftMetricsKey = h;
rightKerningGroup = n;
rightMetricsKey = h;
unicode = 0127;
},
{
glyphname = i;
layers = (
{
anchors = (
{
name = bottom;
position = "{162, 0}";
}
);
background = {
paths = (
{
closed = 1;
nodes = (
"258 -21 OFFCURVE",
"406 75 OFFCURVE",
"530 231 CURVE",
"489 256 LINE",
"360 128 OFFCURVE",
"319 97 OFFCURVE",
"282 97 CURVE SMOOTH",
"258 97 OFFCURVE",
"243 113 OFFCURVE",
"243 135 CURVE SMOOTH",
"243 143 OFFCURVE",
"244 151 OFFCURVE",
"249 161 CURVE SMOOTH",
"532 841 LINE SMOOTH",
"552 888 OFFCURVE",
"563 935 OFFCURVE",
"563 972 CURVE SMOOTH",
"563 1034 OFFCURVE",
"509 1069 OFFCURVE",
"435 1069 CURVE SMOOTH",
"329 1069 OFFCURVE",
"202 1002 OFFCURVE",
"112 892 CURVE",
"157 857 LINE",
"216 933 OFFCURVE",
"284 980 OFFCURVE",
"332 980 CURVE SMOOTH",
"349 980 OFFCURVE",
"357 974 OFFCURVE",
"357 962 CURVE SMOOTH",
"357 953 OFFCURVE",
"354 942 OFFCURVE",
"347 925 CURVE SMOOTH",
"60 219 LINE SMOOTH",
"39 168 OFFCURVE",
"30 124 OFFCURVE",
"30 91 CURVE SMOOTH",
"30 16 OFFCURVE",
"82 -21 OFFCURVE",
"159 -21 CURVE SMOOTH"
);
},
{
closed = 1;
nodes = (
"646 1297 OFFCURVE",
"720 1365 OFFCURVE",
"720 1435 CURVE SMOOTH",
"720 1497 OFFCURVE",
"660 1544 OFFCURVE",
"592 1544 CURVE SMOOTH {name = hr00;}",
"517 1544 OFFCURVE",
"448 1482 OFFCURVE",
"448 1409 CURVE SMOOTH",
"448 1341 OFFCURVE",
"495 1297 OFFCURVE",
"571 1297 CURVE SMOOTH"
);
}
);
};
layerId = master01;
paths = (
{
closed = 1;
nodes = (
"235 -21 OFFCURVE",
"383 75 OFFCURVE",
"507 231 CURVE",
"466 256 LINE",
"337 128 OFFCURVE",
"296 97 OFFCURVE",
"259 97 CURVE SMOOTH",
"235 97 OFFCURVE",
"220 113 OFFCURVE",
"220 135 CURVE SMOOTH",
"220 143 OFFCURVE",
"221 151 OFFCURVE",
"226 161 CURVE SMOOTH",
"544 841 LINE SMOOTH",
"565 888 OFFCURVE",
"575 935 OFFCURVE",
"575 972 CURVE SMOOTH",
"575 1034 OFFCURVE",
"520 1069 OFFCURVE",
"447 1069 CURVE SMOOTH",
"341 1069 OFFCURVE",
"213 1002 OFFCURVE",
"123 892 CURVE",
"168 857 LINE",
"228 933 OFFCURVE",
"296 980 OFFCURVE",
"343 980 CURVE SMOOTH",
"360 980 OFFCURVE",
"368 974 OFFCURVE",
"368 962 CURVE SMOOTH",
"368 953 OFFCURVE",
"366 942 OFFCURVE",
"358 925 CURVE SMOOTH",
"37 219 LINE SMOOTH",
"14 168 OFFCURVE",
"7 124 OFFCURVE",
"7 91 CURVE SMOOTH",
"7 16 OFFCURVE",
"59 -21 OFFCURVE",
"136 -21 CURVE SMOOTH"
);
},
{
closed = 1;
nodes = (
"646 1297 OFFCURVE",
"720 1365 OFFCURVE",
"720 1435 CURVE SMOOTH",
"720 1497 OFFCURVE",
"660 1544 OFFCURVE",
"592 1544 CURVE SMOOTH {name = hr00;}",
"517 1544 OFFCURVE",
"448 1482 OFFCURVE",
"448 1409 CURVE SMOOTH",
"448 1341 OFFCURVE",
"495 1297 OFFCURVE",
"571 1297 CURVE SMOOTH"
);
}
);
width = 623;
},
{
anchors = (
{
name = bottom;
position = "{168, 0}";
}
);
background = {
paths = (
{
closed = 1;
nodes = (
"364 -21 OFFCURVE",
"493 60 OFFCURVE",
"647 240 CURVE",
"592 273 LINE",
"461 137 OFFCURVE",
"402 91 OFFCURVE",
"359 91 CURVE SMOOTH",
"341 91 OFFCURVE",
"330 100 OFFCURVE",
"330 116 CURVE SMOOTH",
"330 122 OFFCURVE",
"332 129 OFFCURVE",
"339 146 CURVE SMOOTH",
"598 782 LINE SMOOTH",
"620 836 OFFCURVE",
"634 895 OFFCURVE",
"634 930 CURVE SMOOTH",
"634 1017 OFFCURVE",
"567 1069 OFFCURVE",
"449 1069 CURVE SMOOTH",
"320 1069 OFFCURVE",
"202 1006 OFFCURVE",
"92 886 CURVE",
"145 844 LINE",
"206 917 OFFCURVE",
"282 968 OFFCURVE",
"328 968 CURVE SMOOTH",
"344 968 OFFCURVE",
"352 962 OFFCURVE",
"352 948 CURVE SMOOTH",
"352 940 OFFCURVE",
"350 929 OFFCURVE",
"343 911 CURVE SMOOTH",
"81 266 LINE SMOOTH",
"59 212 OFFCURVE",
"44 153 OFFCURVE",
"44 117 CURVE SMOOTH",
"44 32 OFFCURVE",
"109 -21 OFFCURVE",
"221 -21 CURVE SMOOTH"
);
},
{
closed = 1;
nodes = (
"735 1256 OFFCURVE",
"823 1339 OFFCURVE",
"823 1424 CURVE SMOOTH",
"823 1497 OFFCURVE",
"753 1557 OFFCURVE",
"668 1557 CURVE SMOOTH {name = hr00;}",
"576 1557 OFFCURVE",
"494 1480 OFFCURVE",
"494 1393 CURVE SMOOTH",
"494 1310 OFFCURVE",
"553 1256 OFFCURVE",
"644 1256 CURVE SMOOTH"
);
}
);
};
layerId = "D3934E74-9B53-4E98-B19F-CD3DFEE08352";
paths = (
{
closed = 1;
nodes = (
"341 -21 OFFCURVE",
"470 60 OFFCURVE",
"624 240 CURVE",
"569 273 LINE",
"438 137 OFFCURVE",
"379 91 OFFCURVE",
"336 91 CURVE SMOOTH",
"318 91 OFFCURVE",
"307 100 OFFCURVE",
"307 116 CURVE SMOOTH",
"307 122 OFFCURVE",
"307 129 OFFCURVE",
"316 146 CURVE SMOOTH",
"621 782 LINE SMOOTH",
"646 836 OFFCURVE",
"658 895 OFFCURVE",
"658 930 CURVE SMOOTH",
"658 1017 OFFCURVE",
"590 1069 OFFCURVE",
"472 1069 CURVE SMOOTH",
"343 1069 OFFCURVE",
"225 1006 OFFCURVE",
"115 886 CURVE",
"168 844 LINE",
"229 917 OFFCURVE",
"305 968 OFFCURVE",
"351 968 CURVE SMOOTH",
"367 968 OFFCURVE",
"375 962 OFFCURVE",
"375 948 CURVE SMOOTH",
"375 940 OFFCURVE",
"375 929 OFFCURVE",
"366 911 CURVE SMOOTH",
"58 266 LINE SMOOTH",
"32 212 OFFCURVE",
"21 153 OFFCURVE",
"21 117 CURVE SMOOTH",
"21 32 OFFCURVE",
"86 -21 OFFCURVE",
"198 -21 CURVE SMOOTH"
);
},
{
closed = 1;
nodes = (
"735 1256 OFFCURVE",
"823 1339 OFFCURVE",
"823 1424 CURVE SMOOTH",
"823 1497 OFFCURVE",
"753 1557 OFFCURVE",
"668 1557 CURVE SMOOTH {name = hr00;}",
"576 1557 OFFCURVE",
"494 1480 OFFCURVE",
"494 1393 CURVE SMOOTH",
"494 1310 OFFCURVE",
"553 1256 OFFCURVE",
"644 1256 CURVE SMOOTH"
);
}
);
width = 731;
}
);
leftKerningGroup = i;
leftMetricsKey = n;
rightKerningGroup = i;
rightMetricsKey = n;
unicode = 0069;
},
{
glyphname = dotlessi;
layers = (
{
anchors = (
{
name = bottom;
position = "{174, 0}";
},
{
name = top;
position = "{575, 1289}";
}
);
layerId = master01;
paths = (
{
closed = 1;
nodes = (
"269 -21 OFFCURVE",
"418 75 OFFCURVE",
"541 231 CURVE",
"501 256 LINE",
"372 128 OFFCURVE",
"330 97 OFFCURVE",
"294 97 CURVE SMOOTH",
"269 97 OFFCURVE",
"254 113 OFFCURVE",
"254 135 CURVE SMOOTH",
"254 143 OFFCURVE",
"256 151 OFFCURVE",
"260 161 CURVE SMOOTH",
"544 841 LINE SMOOTH",
"563 888 OFFCURVE",
"575 935 OFFCURVE",
"575 972 CURVE SMOOTH",
"575 1034 OFFCURVE",
"520 1069 OFFCURVE",
"447 1069 CURVE SMOOTH {name = hr00;}",
"341 1069 OFFCURVE",
"213 1002 OFFCURVE",
"123 892 CURVE",
"168 857 LINE",
"228 933 OFFCURVE",
"296 980 OFFCURVE",
"343 980 CURVE SMOOTH",
"371 980 OFFCURVE",
"374 965 OFFCURVE",
"358 925 CURVE SMOOTH",
"71 219 LINE SMOOTH",
"51 168 OFFCURVE",
"41 124 OFFCURVE",
"41 91 CURVE SMOOTH",
"41 16 OFFCURVE",
"93 -21 OFFCURVE",
"170 -21 CURVE SMOOTH"
);
}
);
width = 658;
},
{
anchors = (
{
name = bottom;
position = "{177, 0}";
},
{
name = top;
position = "{590, 1289}";
}
);
background = {
paths = (
{
closed = 1;
nodes = (
"273 -21 OFFCURVE",
"421 75 OFFCURVE",
"545 231 CURVE",
"504 256 LINE",
"375 128 OFFCURVE",
"334 97 OFFCURVE",
"297 97 CURVE SMOOTH",
"273 97 OFFCURVE",
"258 113 OFFCURVE",
"258 135 CURVE SMOOTH",
"258 143 OFFCURVE",
"259 151 OFFCURVE",
"264 161 CURVE SMOOTH",
"547 841 LINE SMOOTH",
"567 888 OFFCURVE",
"578 935 OFFCURVE",
"578 972 CURVE SMOOTH",
"578 1034 OFFCURVE",
"524 1069 OFFCURVE",
"450 1069 CURVE SMOOTH {name = hr00;}",
"344 1069 OFFCURVE",
"216 1002 OFFCURVE",
"127 892 CURVE",
"172 857 LINE",
"231 933 OFFCURVE",
"299 980 OFFCURVE",
"347 980 CURVE SMOOTH",
"374 980 OFFCURVE",
"378 965 OFFCURVE",
"362 925 CURVE SMOOTH",
"75 219 LINE SMOOTH",
"54 168 OFFCURVE",
"45 124 OFFCURVE",
"45 91 CURVE SMOOTH",
"45 16 OFFCURVE",
"97 -21 OFFCURVE",
"174 -21 CURVE SMOOTH"
);
}
);
};
layerId = "D3934E74-9B53-4E98-B19F-CD3DFEE08352";
paths = (
{
closed = 1;
nodes = (
"387 -21 OFFCURVE",
"516 60 OFFCURVE",
"670 240 CURVE",
"615 273 LINE",
"484 137 OFFCURVE",
"425 91 OFFCURVE",
"382 91 CURVE SMOOTH",
"364 91 OFFCURVE",
"354 100 OFFCURVE",
"354 116 CURVE SMOOTH",
"354 122 OFFCURVE",
"355 129 OFFCURVE",
"362 146 CURVE SMOOTH",
"621 782 LINE SMOOTH",
"643 836 OFFCURVE",
"658 895 OFFCURVE",
"658 930 CURVE SMOOTH",
"658 1017 OFFCURVE",
"590 1069 OFFCURVE",
"472 1069 CURVE SMOOTH",
"343 1069 OFFCURVE",
"225 1006 OFFCURVE",
"115 886 CURVE",
"168 844 LINE",
"229 917 OFFCURVE",
"305 968 OFFCURVE",
"351 968 CURVE SMOOTH",
"382 968 OFFCURVE",
"379 944 OFFCURVE",
"366 911 CURVE SMOOTH",
"104 266 LINE SMOOTH",
"82 212 OFFCURVE",
"67 153 OFFCURVE",
"67 117 CURVE SMOOTH",
"67 32 OFFCURVE",
"132 -21 OFFCURVE",
"244 -21 CURVE SMOOTH"
);
}
);
width = 777;
}
);
leftKerningGroup = i;
leftMetricsKey = i;
rightKerningGroup = i;
rightMetricsKey = i;
unicode = 0131;
},
{
glyphname = iogonek;
layers = (
{
anchors = (
{
name = _bottom;
position = "{243, 0}";
}
);
background = {
paths = (
{
closed = 1;
nodes = (
"33 -507 OFFCURVE",
"126 -466 OFFCURVE",
"215 -392 CURVE {name = hr00;}",
"205 -357 LINE",
"144 -388 OFFCURVE",
"112 -398 OFFCURVE",
"76 -398 CURVE SMOOTH",
"26 -398 OFFCURVE",
"3 -380 OFFCURVE",
"3 -341 CURVE SMOOTH",
"3 -258 OFFCURVE",
"109 -127 OFFCURVE",
"269 0 CURVE",
"195 0 LINE",
"-29 -117 OFFCURVE",
"-188 -281 OFFCURVE",
"-188 -404 CURVE SMOOTH",
"-188 -471 OFFCURVE",
"-140 -507 OFFCURVE",
"-55 -507 CURVE SMOOTH"
);
}
);
};
components = (
{
alignment = -1;
name = i;
}
);
layerId = master01;
paths = (
{
closed = 1;
nodes = (
"78 -507 OFFCURVE",
"170 -466 OFFCURVE",
"260 -392 CURVE {name = hr00;}",
"250 -357 LINE",
"189 -388 OFFCURVE",
"157 -398 OFFCURVE",
"121 -398 CURVE SMOOTH",
"71 -398 OFFCURVE",
"48 -380 OFFCURVE",
"48 -341 CURVE SMOOTH",
"48 -258 OFFCURVE",
"193 -97 OFFCURVE",
"406 89 CURVE",
"240 0 LINE",
"5 -117 OFFCURVE",
"-143 -281 OFFCURVE",
"-143 -404 CURVE SMOOTH",
"-143 -471 OFFCURVE",
"-96 -507 OFFCURVE",
"-10 -507 CURVE SMOOTH"
);
}
);
width = 659;
},
{
anchors = (
{
name = _bottom;
position = "{180, 0}";
}
);
background = {
paths = (
{
closed = 1;
nodes = (
"218 -507 OFFCURVE",
"328 -459 OFFCURVE",
"436 -368 CURVE {name = hr00;}",
"426 -321 LINE",
"362 -354 OFFCURVE",
"324 -365 OFFCURVE",
"282 -365 CURVE SMOOTH",
"226 -365 OFFCURVE",
"196 -345 OFFCURVE",
"196 -307 CURVE SMOOTH",
"196 -233 OFFCURVE",
"304 -101 OFFCURVE",
"538 105 CURVE",
"334 0 LINE",
"82 -121 OFFCURVE",
"-46 -249 OFFCURVE",
"-46 -383 CURVE SMOOTH",
"-46 -464 OFFCURVE",
"9 -507 OFFCURVE",
"113 -507 CURVE SMOOTH"
);
}
);
};
components = (
{
name = i;
}
);
layerId = "D3934E74-9B53-4E98-B19F-CD3DFEE08352";
paths = (
{
closed = 1;
nodes = (
"218 -507 OFFCURVE",
"328 -459 OFFCURVE",
"436 -368 CURVE {name = hr00;}",
"426 -321 LINE",
"362 -354 OFFCURVE",
"324 -365 OFFCURVE",
"282 -365 CURVE SMOOTH",
"226 -365 OFFCURVE",
"196 -334 OFFCURVE",
"196 -296 CURVE SMOOTH",
"196 -208 OFFCURVE",
"294 -97 OFFCURVE",
"517 88 CURVE",
"394 30 LINE",
"63 -106 OFFCURVE",
"-46 -246 OFFCURVE",
"-46 -355 CURVE SMOOTH",
"-46 -444 OFFCURVE",
"17 -507 OFFCURVE",
"124 -507 CURVE SMOOTH"
);
}
);
width = 797;
}
);
leftKerningGroup = i;
leftMetricsKey = i;
rightKerningGroup = i;
rightMetricsKey = i;
unicode = 012F;
},
{
glyphname = j;
layers = (
{
background = {
paths = (
{
closed = 1;
nodes = (
"-114 -507 OFFCURVE",
"41 -383 OFFCURVE",
"142 -161 CURVE SMOOTH",
"394 402 LINE SMOOTH",
"533 714 OFFCURVE",
"596 903 OFFCURVE",
"596 974 CURVE SMOOTH",
"596 1033 OFFCURVE",
"555 1069 OFFCURVE",
"472 1069 CURVE SMOOTH",
"365 1069 OFFCURVE",
"246 1005 OFFCURVE",
"152 892 CURVE {name = hr02;}",
"193 857 LINE",
"252 933 OFFCURVE",
"310 974 OFFCURVE",
"357 974 CURVE SMOOTH",
"377 974 OFFCURVE",
"386 968 OFFCURVE",
"386 948 CURVE SMOOTH",
"386 906 OFFCURVE",
"359 828 OFFCURVE",
"229 500 CURVE SMOOTH {name = hr01;}",
"9 -55 LINE SMOOTH",
"-107 -349 OFFCURVE",
"-174 -438 OFFCURVE",
"-252 -438 CURVE SMOOTH",
"-379 -438 OFFCURVE",
"-312 -261 OFFCURVE",
"-450 -261 CURVE SMOOTH",
"-512 -261 OFFCURVE",
"-541 -295 OFFCURVE",
"-541 -355 CURVE SMOOTH",
"-541 -448 OFFCURVE",
"-444 -507 OFFCURVE",
"-310 -507 CURVE SMOOTH"
);
}
);
};
layerId = master01;
paths = (
{
closed = 1;
nodes = (
"-90 -507 OFFCURVE",
"96 -348 OFFCURVE",
"228 -20 CURVE SMOOTH",
"532 731 LINE SMOOTH",
"592 880 OFFCURVE",
"596 924 OFFCURVE",
"596 974 CURVE SMOOTH",
"596 1035 OFFCURVE",
"553 1069 OFFCURVE",
"472 1069 CURVE SMOOTH",
"363 1069 OFFCURVE",
"245 1003 OFFCURVE",
"152 892 CURVE {name = hr02;}",
"193 857 LINE",
"252 933 OFFCURVE",
"310 974 OFFCURVE",
"357 974 CURVE SMOOTH",
"378 974 OFFCURVE",
"386 967 OFFCURVE",
"386 948 CURVE SMOOTH",
"386 905 OFFCURVE",
"356 819 OFFCURVE",
"229 500 CURVE SMOOTH {name = hr01;}",
"9 -55 LINE SMOOTH",
"-102 -339 OFFCURVE",
"-170 -438 OFFCURVE",
"-259 -438 CURVE SMOOTH",
"-379 -438 OFFCURVE",
"-312 -261 OFFCURVE",
"-450 -261 CURVE SMOOTH",
"-512 -261 OFFCURVE",
"-541 -295 OFFCURVE",
"-541 -349 CURVE SMOOTH",
"-541 -448 OFFCURVE",
"-444 -507 OFFCURVE",
"-310 -507 CURVE SMOOTH"
);
},
{
closed = 1;
nodes = (
"686 1297 OFFCURVE",
"753 1360 OFFCURVE",
"753 1429 CURVE SMOOTH",
"753 1492 OFFCURVE",
"699 1544 OFFCURVE",
"629 1544 CURVE SMOOTH",
"550 1544 OFFCURVE",
"488 1482 OFFCURVE",
"488 1409 CURVE SMOOTH",
"488 1346 OFFCURVE",
"534 1297 OFFCURVE",
"607 1297 CURVE SMOOTH"
);
}
);
width = 668;
},
{
background = {
paths = (
{
closed = 0;
nodes = (
"-242 -435 LINE SMOOTH",
"-324 -435 OFFCURVE",
"-371 -406 OFFCURVE",
"-383 -321 CURVE SMOOTH",
"-395 -246 OFFCURVE",
"-432 -207 OFFCURVE",
"-496 -207 CURVE SMOOTH",
"-567 -207 OFFCURVE",
"-616 -252 OFFCURVE",
"-616 -314 CURVE SMOOTH",
"-616 -433 OFFCURVE",
"-436 -527 OFFCURVE",
"-227 -527 CURVE SMOOTH"
);
}
);
};
layerId = "D3934E74-9B53-4E98-B19F-CD3DFEE08352";
paths = (
{
closed = 1;
nodes = (
"-31 -507 OFFCURVE",
"207 -337 OFFCURVE",
"404 146 CURVE SMOOTH",
"663 782 LINE SMOOTH",
"685 836 OFFCURVE",
"700 895 OFFCURVE",
"700 930 CURVE SMOOTH",
"700 1017 OFFCURVE",
"632 1069 OFFCURVE",
"515 1069 CURVE SMOOTH",
"386 1069 OFFCURVE",
"267 1006 OFFCURVE",
"158 886 CURVE",
"211 844 LINE",
"272 917 OFFCURVE",
"348 968 OFFCURVE",
"394 968 CURVE SMOOTH",
"410 968 OFFCURVE",
"418 962 OFFCURVE",
"418 948 CURVE SMOOTH",
"418 940 OFFCURVE",
"417 929 OFFCURVE",
"409 911 CURVE SMOOTH",
"126 215 LINE SMOOTH",
"-78 -287 OFFCURVE",
"-170 -412 OFFCURVE",
"-278 -415 CURVE SMOOTH",
"-416 -418 OFFCURVE",
"-339 -207 OFFCURVE",
"-497 -207 CURVE SMOOTH",
"-573 -207 OFFCURVE",
"-616 -256 OFFCURVE",
"-616 -316 CURVE SMOOTH",
"-616 -432 OFFCURVE",
"-461 -507 OFFCURVE",
"-304 -507 CURVE SMOOTH"
);
},
{
closed = 1;
nodes = (
"800 1256 OFFCURVE",
"889 1339 OFFCURVE",
"889 1424 CURVE SMOOTH",
"889 1497 OFFCURVE",
"819 1557 OFFCURVE",
"734 1557 CURVE SMOOTH {name = hr00;}",
"641 1557 OFFCURVE",
"560 1480 OFFCURVE",
"560 1393 CURVE SMOOTH",
"560 1310 OFFCURVE",
"618 1256 OFFCURVE",
"709 1256 CURVE SMOOTH"
);
}
);
width = 752;
}
);
leftKerningGroup = j;
rightKerningGroup = j;
unicode = 006A;
},
{
glyphname = dotlessj;
layers = (
{
anchors = (
{
name = top;
position = "{595, 1289}";
}
);
background = {
paths = (
{
closed = 1;
nodes = (
"-114 -507 OFFCURVE",
"41 -383 OFFCURVE",
"142 -161 CURVE SMOOTH",
"394 402 LINE SMOOTH",
"533 714 OFFCURVE",
"596 903 OFFCURVE",
"596 974 CURVE SMOOTH",
"596 1033 OFFCURVE",
"555 1069 OFFCURVE",
"472 1069 CURVE SMOOTH",
"365 1069 OFFCURVE",
"246 1005 OFFCURVE",
"152 892 CURVE {name = hr02;}",
"193 857 LINE",
"252 933 OFFCURVE",
"310 974 OFFCURVE",
"357 974 CURVE SMOOTH",
"377 974 OFFCURVE",
"386 968 OFFCURVE",
"386 948 CURVE SMOOTH",
"386 906 OFFCURVE",
"359 828 OFFCURVE",
"229 500 CURVE SMOOTH {name = hr01;}",
"9 -55 LINE SMOOTH",
"-107 -349 OFFCURVE",
"-174 -438 OFFCURVE",
"-252 -438 CURVE SMOOTH",
"-379 -438 OFFCURVE",
"-312 -261 OFFCURVE",
"-450 -261 CURVE SMOOTH",
"-512 -261 OFFCURVE",
"-541 -295 OFFCURVE",
"-541 -355 CURVE SMOOTH",
"-541 -448 OFFCURVE",
"-444 -507 OFFCURVE",
"-310 -507 CURVE SMOOTH"
);
}
);
};
layerId = master01;
paths = (
{
closed = 1;
nodes = (
"-90 -507 OFFCURVE",
"96 -348 OFFCURVE",
"228 -20 CURVE SMOOTH",
"532 731 LINE SMOOTH",
"592 880 OFFCURVE",
"596 924 OFFCURVE",
"596 974 CURVE SMOOTH",
"596 1035 OFFCURVE",
"553 1069 OFFCURVE",
"472 1069 CURVE SMOOTH",
"363 1069 OFFCURVE",
"245 1003 OFFCURVE",
"152 892 CURVE {name = hr02;}",
"193 857 LINE",
"252 933 OFFCURVE",
"310 974 OFFCURVE",
"357 974 CURVE SMOOTH",
"378 974 OFFCURVE",
"386 967 OFFCURVE",
"386 948 CURVE SMOOTH",
"386 902 OFFCURVE",
"378 874 OFFCURVE",
"229 500 CURVE SMOOTH {name = hr01;}",
"9 -55 LINE SMOOTH",
"-102 -339 OFFCURVE",
"-170 -438 OFFCURVE",
"-259 -438 CURVE SMOOTH",
"-379 -438 OFFCURVE",
"-312 -261 OFFCURVE",
"-450 -261 CURVE SMOOTH",
"-512 -261 OFFCURVE",
"-541 -295 OFFCURVE",
"-541 -349 CURVE SMOOTH",
"-541 -448 OFFCURVE",
"-444 -507 OFFCURVE",
"-310 -507 CURVE SMOOTH"
);
}
);
width = 668;
},
{
anchors = (
{
name = top;
position = "{618, 1289}";
}
);
background = {
paths = (
{
closed = 1;
nodes = (
"-114 -507 OFFCURVE",
"41 -383 OFFCURVE",
"142 -161 CURVE SMOOTH",
"394 402 LINE SMOOTH",
"533 714 OFFCURVE",
"596 903 OFFCURVE",
"596 974 CURVE SMOOTH",
"596 1033 OFFCURVE",
"555 1069 OFFCURVE",
"472 1069 CURVE SMOOTH",
"365 1069 OFFCURVE",
"246 1005 OFFCURVE",
"152 892 CURVE {name = hr02;}",
"193 857 LINE",
"252 933 OFFCURVE",
"310 974 OFFCURVE",
"357 974 CURVE SMOOTH",
"377 974 OFFCURVE",
"386 968 OFFCURVE",
"386 948 CURVE SMOOTH",
"386 906 OFFCURVE",
"359 828 OFFCURVE",
"229 500 CURVE SMOOTH {name = hr01;}",
"9 -55 LINE SMOOTH",
"-107 -349 OFFCURVE",
"-174 -438 OFFCURVE",
"-252 -438 CURVE SMOOTH",
"-379 -438 OFFCURVE",
"-312 -261 OFFCURVE",
"-450 -261 CURVE SMOOTH",
"-512 -261 OFFCURVE",
"-541 -295 OFFCURVE",
"-541 -355 CURVE SMOOTH",
"-541 -448 OFFCURVE",
"-444 -507 OFFCURVE",
"-310 -507 CURVE SMOOTH"
);
}
);
};
layerId = "D3934E74-9B53-4E98-B19F-CD3DFEE08352";
paths = (
{
closed = 1;
nodes = (
"-31 -507 OFFCURVE",
"207 -337 OFFCURVE",
"404 146 CURVE SMOOTH",
"663 782 LINE SMOOTH",
"685 836 OFFCURVE",
"700 895 OFFCURVE",
"700 930 CURVE SMOOTH",
"700 1017 OFFCURVE",
"632 1069 OFFCURVE",
"515 1069 CURVE SMOOTH",
"386 1069 OFFCURVE",
"267 1006 OFFCURVE",
"158 886 CURVE",
"211 844 LINE",
"272 917 OFFCURVE",
"348 968 OFFCURVE",
"394 968 CURVE SMOOTH",
"410 968 OFFCURVE",
"418 962 OFFCURVE",
"418 948 CURVE SMOOTH",
"418 940 OFFCURVE",
"417 929 OFFCURVE",
"409 911 CURVE SMOOTH",
"126 215 LINE SMOOTH",
"-78 -287 OFFCURVE",
"-170 -412 OFFCURVE",
"-278 -415 CURVE SMOOTH",
"-416 -418 OFFCURVE",
"-339 -207 OFFCURVE",
"-497 -207 CURVE SMOOTH",
"-573 -207 OFFCURVE",
"-616 -256 OFFCURVE",
"-616 -316 CURVE SMOOTH",
"-616 -432 OFFCURVE",
"-462 -507 OFFCURVE",
"-304 -507 CURVE SMOOTH"
);
}
);
width = 752;
}
);
leftKerningGroup = j;
leftMetricsKey = j;
rightKerningGroup = j;
rightMetricsKey = j;
unicode = 0237;
},
{
glyphname = k;
layers = (
{
anchors = (
{
name = bottom;
position = "{322, 0}";
}
);
layerId = master01;
paths = (
{
closed = 1;
nodes = (
"774 -21 OFFCURVE",
"882 47 OFFCURVE",
"934 136 CURVE",
"894 159 LINE",
"846 97 OFFCURVE",
"801 66 OFFCURVE",
"760 66 CURVE SMOOTH",
"719 66 OFFCURVE",
"691 105 OFFCURVE",
"637 219 CURVE SMOOTH",
"502 503 LINE",
"785 580 OFFCURVE",
"1023 770 OFFCURVE",
"1023 920 CURVE SMOOTH",
"1023 1016 OFFCURVE",
"958 1069 OFFCURVE",
"836 1069 CURVE SMOOTH",
"714 1069 OFFCURVE",
"580 1008 OFFCURVE",
"497 914 CURVE",
"489 914 LINE",
"795 1622 LINE",
"417 1622 LINE",
"421 1594 LINE",
"570 1569 LINE",
"-90 0 LINE",
"108 0 LINE",
"296 465 LINE",
"312 465 LINE",
"448 177 LINE SMOOTH {name = hr01;}",
"512 40 OFFCURVE",
"582 -21 OFFCURVE",
"677 -21 CURVE SMOOTH"
);
},
{
closed = 1;
nodes = (
"397 706 OFFCURVE",
"469 812 OFFCURVE",
"565 896 CURVE SMOOTH",
"630 952 OFFCURVE",
"690 982 OFFCURVE",
"750 982 CURVE SMOOTH",
"799 982 OFFCURVE",
"824 956 OFFCURVE",
"824 903 CURVE SMOOTH",
"824 727 OFFCURVE",
"593 547 OFFCURVE",
"330 531 CURVE"
);
}
);
width = 1038;
},
{
anchors = (
{
name = bottom;
position = "{485, 0}";
}
);
background = {
paths = (
{
closed = 1;
nodes = (
"529 753 OFFCURVE",
"757 975 OFFCURVE",
"859 975 CURVE SMOOTH {name = hr02;}",
"898 975 OFFCURVE",
"919 950 OFFCURVE",
"919 900 CURVE SMOOTH",
"919 743 OFFCURVE",
"712 553 OFFCURVE",
"406 508 CURVE",
"367 433 LINE",
"836 502 OFFCURVE",
"1161 704 OFFCURVE",
"1161 917 CURVE SMOOTH",
"1161 1014 OFFCURVE",
"1092 1067 OFFCURVE",
"973 1067 CURVE SMOOTH",
"841 1067 OFFCURVE",
"700 1001 OFFCURVE",
"588 869 CURVE",
"576 873 LINE",
"898 1622 LINE",
"405 1622 LINE",
"412 1578 LINE",
"577 1552 LINE",
"-67 0 LINE",
"222 0 LINE",
"435 524 LINE SMOOTH"
);
},
{
closed = 1;
nodes = (
"405 465 LINE",
"539 159 LINE SMOOTH {name = hr01;}",
"590 43 OFFCURVE",
"687 -21 OFFCURVE",
"803 -21 CURVE SMOOTH",
"917 -21 OFFCURVE",
"1017 41 OFFCURVE",
"1110 170 CURVE",
"1057 204 LINE",
"1001 129 OFFCURVE",
"953 91 OFFCURVE",
"919 91 CURVE SMOOTH {name = hr01;}",
"884 91 OFFCURVE",
"861 114 OFFCURVE",
"813 226 CURVE SMOOTH",
"684 524 LINE"
);
}
);
};
layerId = "D3934E74-9B53-4E98-B19F-CD3DFEE08352";
paths = (
{
closed = 1;
nodes = (
"917 -21 OFFCURVE",
"1017 41 OFFCURVE",
"1110 170 CURVE",
"1057 204 LINE",
"1001 129 OFFCURVE",
"953 91 OFFCURVE",
"919 91 CURVE SMOOTH {name = hr01;}",
"884 91 OFFCURVE",
"861 114 OFFCURVE",
"813 226 CURVE SMOOTH",
"691 508 LINE",
"979 605 OFFCURVE",
"1161 758 OFFCURVE",
"1161 917 CURVE SMOOTH",
"1161 1014 OFFCURVE",
"1092 1067 OFFCURVE",
"973 1067 CURVE SMOOTH",
"841 1067 OFFCURVE",
"700 1001 OFFCURVE",
"588 869 CURVE",
"576 873 LINE",
"898 1622 LINE",
"405 1622 LINE",
"412 1578 LINE",
"577 1552 LINE",
"-67 0 LINE",
"222 0 LINE",
"401 438 LINE",
"416 441 LINE",
"539 159 LINE SMOOTH {name = hr01;}",
"590 43 OFFCURVE",
"687 -21 OFFCURVE",
"803 -21 CURVE SMOOTH"
);
},
{
closed = 1;
nodes = (
"481 638 OFFCURVE",
"575 769 OFFCURVE",
"667 859 CURVE SMOOTH",
"738 929 OFFCURVE",
"810 975 OFFCURVE",
"859 975 CURVE SMOOTH {name = hr02;}",
"898 975 OFFCURVE",
"919 950 OFFCURVE",
"919 900 CURVE SMOOTH",
"919 747 OFFCURVE",
"722 563 OFFCURVE",
"431 511 CURVE"
);
}
);
width = 1223;
}
);
leftKerningGroup = h;
leftMetricsKey = h;
rightKerningGroup = k;
unicode = 006B;
},
{
glyphname = kgreenlandic;
layers = (
{
layerId = master01;
paths = (
{
closed = 1;
nodes = (
"823 -21 OFFCURVE",
"933 47 OFFCURVE",
"983 136 CURVE",
"944 159 LINE",
"896 97 OFFCURVE",
"851 66 OFFCURVE",
"810 66 CURVE SMOOTH",
"768 66 OFFCURVE",
"742 105 OFFCURVE",
"687 219 CURVE SMOOTH",
"552 503 LINE",
"836 580 OFFCURVE",
"1073 770 OFFCURVE",
"1073 920 CURVE SMOOTH",
"1073 1016 OFFCURVE",
"1008 1069 OFFCURVE",
"887 1069 CURVE SMOOTH",
"763 1069 OFFCURVE",
"630 1008 OFFCURVE",
"549 914 CURVE",
"540 914 LINE",
"601 1049 LINE",
"223 1049 LINE",
"227 1019 LINE",
"375 995 LINE",
"-39 0 LINE",
"159 0 LINE",
"347 465 LINE",
"362 465 LINE",
"500 177 LINE SMOOTH {name = hr01;}",
"565 41 OFFCURVE",
"631 -21 OFFCURVE",
"727 -21 CURVE SMOOTH"
);
},
{
closed = 1;
nodes = (
"448 706 OFFCURVE",
"518 812 OFFCURVE",
"615 896 CURVE SMOOTH",
"681 952 OFFCURVE",
"740 982 OFFCURVE",
"799 982 CURVE SMOOTH",
"849 982 OFFCURVE",
"875 956 OFFCURVE",
"875 903 CURVE SMOOTH",
"875 727 OFFCURVE",
"644 547 OFFCURVE",
"380 531 CURVE"
);
}
);
width = 1087;
},
{
layerId = "D3934E74-9B53-4E98-B19F-CD3DFEE08352";
paths = (
{
closed = 1;
nodes = (
"956 -21 OFFCURVE",
"1056 41 OFFCURVE",
"1149 170 CURVE",
"1096 204 LINE",
"1040 129 OFFCURVE",
"993 91 OFFCURVE",
"958 91 CURVE SMOOTH {name = hr01;}",
"924 91 OFFCURVE",
"900 114 OFFCURVE",
"852 226 CURVE SMOOTH",
"730 508 LINE",
"1018 605 OFFCURVE",
"1200 758 OFFCURVE",
"1200 917 CURVE SMOOTH",
"1200 1014 OFFCURVE",
"1131 1067 OFFCURVE",
"1012 1067 CURVE SMOOTH",
"880 1067 OFFCURVE",
"739 1001 OFFCURVE",
"628 869 CURVE",
"615 873 LINE",
"699 1049 LINE",
"206 1049 LINE",
"213 1004 LINE",
"378 979 LINE",
"-28 0 LINE",
"261 0 LINE",
"440 438 LINE",
"455 441 LINE",
"578 159 LINE SMOOTH {name = hr01;}",
"629 43 OFFCURVE",
"727 -21 OFFCURVE",
"842 -21 CURVE SMOOTH"
);
},
{
closed = 1;
nodes = (
"520 638 OFFCURVE",
"614 769 OFFCURVE",
"706 859 CURVE SMOOTH",
"777 929 OFFCURVE",
"849 975 OFFCURVE",
"898 975 CURVE SMOOTH {name = hr02;}",
"937 975 OFFCURVE",
"958 950 OFFCURVE",
"958 900 CURVE SMOOTH",
"958 747 OFFCURVE",
"761 563 OFFCURVE",
"470 511 CURVE"
);
}
);
width = 1262;
}
);
rightKerningGroup = k;
rightMetricsKey = k;
unicode = 0138;
},
{
glyphname = l;
layers = (
{
anchors = (
{
name = bottom;
position = "{91, 0}";
},
{
name = top;
position = "{917, 1260}";
},
{
name = topcap;
position = "{753, 1696}";
}
);
background = {
paths = (
{
closed = 1;
nodes = (
"223 -21 OFFCURVE",
"372 75 OFFCURVE",
"495 231 CURVE",
"455 256 LINE",
"326 128 OFFCURVE",
"284 97 OFFCURVE",
"248 97 CURVE SMOOTH",
"223 97 OFFCURVE",
"208 113 OFFCURVE",
"208 135 CURVE SMOOTH",
"208 143 OFFCURVE",
"210 151 OFFCURVE",
"214 161 CURVE SMOOTH",
"497 841 LINE SMOOTH",
"517 888 OFFCURVE",
"529 935 OFFCURVE",
"529 972 CURVE SMOOTH",
"529 1034 OFFCURVE",
"474 1069 OFFCURVE",
"401 1069 CURVE SMOOTH",
"295 1069 OFFCURVE",
"167 1002 OFFCURVE",
"77 892 CURVE",
"122 857 LINE",
"182 933 OFFCURVE",
"250 980 OFFCURVE",
"297 980 CURVE SMOOTH",
"314 980 OFFCURVE",
"322 974 OFFCURVE",
"322 962 CURVE SMOOTH",
"322 953 OFFCURVE",
"319 942 OFFCURVE",
"312 925 CURVE SMOOTH",
"25 219 LINE SMOOTH",
"5 168 OFFCURVE",
"-5 124 OFFCURVE",
"-5 91 CURVE SMOOTH",
"-5 16 OFFCURVE",
"47 -21 OFFCURVE",
"124 -21 CURVE SMOOTH"
);
},
{
closed = 1;
nodes = (
"611 1297 OFFCURVE",
"685 1365 OFFCURVE",
"685 1435 CURVE SMOOTH",
"685 1497 OFFCURVE",
"625 1544 OFFCURVE",
"557 1544 CURVE SMOOTH {name = hr00;}",
"482 1544 OFFCURVE",
"413 1482 OFFCURVE",
"413 1409 CURVE SMOOTH",
"413 1341 OFFCURVE",
"461 1297 OFFCURVE",
"537 1297 CURVE SMOOTH"
);
}
);
};
layerId = master01;
paths = (
{
closed = 1;
nodes = (
"215 -21 OFFCURVE",
"366 70 OFFCURVE",
"499 231 CURVE",
"455 256 LINE",
"327 120 OFFCURVE",
"278 97 OFFCURVE",
"246 97 CURVE SMOOTH",
"227 97 OFFCURVE",
"205 112 OFFCURVE",
"205 132 CURVE SMOOTH",
"205 177 OFFCURVE",
"240 256 OFFCURVE",
"389 603 CURVE SMOOTH",
"827 1622 LINE",
"434 1622 LINE {name = hr00;}",
"439 1594 LINE",
"590 1569 LINE",
"319 922 LINE SMOOTH",
"43 261 OFFCURVE",
"7 174 OFFCURVE",
"7 104 CURVE SMOOTH",
"7 28 OFFCURVE",
"45 -21 OFFCURVE",
"108 -21 CURVE SMOOTH"
);
}
);
width = 644;
},
{
anchors = (
{
name = bottom;
position = "{128, 0}";
},
{
name = top;
position = "{919, 1260}";
},
{
name = topcap;
position = "{750, 1696}";
}
);
background = {
paths = (
{
closed = 1;
nodes = (
"316 -21 OFFCURVE",
"444 60 OFFCURVE",
"599 240 CURVE",
"544 273 LINE",
"412 137 OFFCURVE",
"354 91 OFFCURVE",
"311 91 CURVE SMOOTH",
"292 91 OFFCURVE",
"282 100 OFFCURVE",
"282 116 CURVE SMOOTH",
"282 122 OFFCURVE",
"283 129 OFFCURVE",
"290 146 CURVE SMOOTH",
"549 782 LINE SMOOTH",
"571 836 OFFCURVE",
"586 895 OFFCURVE",
"586 930 CURVE SMOOTH",
"586 1017 OFFCURVE",
"518 1069 OFFCURVE",
"401 1069 CURVE SMOOTH",
"272 1069 OFFCURVE",
"153 1006 OFFCURVE",
"44 886 CURVE",
"97 844 LINE",
"158 917 OFFCURVE",
"234 968 OFFCURVE",
"280 968 CURVE SMOOTH",
"296 968 OFFCURVE",
"304 962 OFFCURVE",
"304 948 CURVE SMOOTH",
"304 940 OFFCURVE",
"302 929 OFFCURVE",
"295 911 CURVE SMOOTH",
"32 266 LINE SMOOTH",
"10 212 OFFCURVE",
"-5 153 OFFCURVE",
"-5 117 CURVE SMOOTH",
"-5 32 OFFCURVE",
"61 -21 OFFCURVE",
"173 -21 CURVE SMOOTH"
);
}
);
};
layerId = "D3934E74-9B53-4E98-B19F-CD3DFEE08352";
paths = (
{
closed = 1;
nodes = (
"304 -21 OFFCURVE",
"446 61 OFFCURVE",
"600 240 CURVE",
"545 273 LINE",
"420 145 OFFCURVE",
"351 91 OFFCURVE",
"310 91 CURVE SMOOTH {name = hr01;}",
"292 91 OFFCURVE",
"286 98 OFFCURVE",
"286 117 CURVE SMOOTH",
"286 145 OFFCURVE",
"340 281 OFFCURVE",
"484 616 CURVE SMOOTH",
"917 1622 LINE",
"405 1622 LINE",
"412 1578 LINE",
"577 1552 LINE",
"266 804 LINE SMOOTH",
"40 257 OFFCURVE",
"2 158 OFFCURVE",
"2 92 CURVE SMOOTH",
"2 20 OFFCURVE",
"51 -21 OFFCURVE",
"152 -21 CURVE SMOOTH"
);
}
);
width = 696;
}
);
leftKerningGroup = h;
rightKerningGroup = u;
unicode = 006C;
},
{
glyphname = lslash;
layers = (
{
components = (
{
name = l;
transform = "{1, 0, 0, 1, 71, 0}";
}
);
layerId = master01;
paths = (
{
closed = 1;
nodes = (
"816 912 LINE",
"820 1010 LINE",
"37 638 LINE",
"37 542 LINE"
);
}
);
width = 715;
},
{
background = {
paths = (
{
closed = 1;
nodes = (
"914 912 LINE",
"918 1010 LINE",
"135 638 LINE",
"135 542 LINE"
);
}
);
};
components = (
{
name = l;
transform = "{1, 0, 0, 1, 121, 0}";
}
);
layerId = "D3934E74-9B53-4E98-B19F-CD3DFEE08352";
paths = (
{
closed = 1;
nodes = (
"1006 896 LINE",
"1010 1040 LINE",
"43 654 LINE",
"43 512 LINE"
);
}
);
width = 955;
}
);
leftKerningGroup = h;
rightKerningGroup = u;
unicode = 0142;
},
{
glyphname = m;
layers = (
{
layerId = master01;
paths = (
{
closed = 1;
nodes = (
"1339 -21 OFFCURVE",
"1479 73 OFFCURVE",
"1612 245 CURVE",
"1571 275 LINE",
"1476 167 OFFCURVE",
"1388 97 OFFCURVE",
"1344 97 CURVE SMOOTH",
"1301 97 OFFCURVE",
"1302 126 OFFCURVE",
"1354 240 CURVE SMOOTH {name = hr01;}",
"1567 713 LINE SMOOTH",
"1601 786 OFFCURVE",
"1614 837 OFFCURVE",
"1614 892 CURVE SMOOTH",
"1614 1005 OFFCURVE",
"1555 1067 OFFCURVE",
"1443 1067 CURVE SMOOTH",
"1300 1067 OFFCURVE",
"1171 970 OFFCURVE",
"1028 752 CURVE",
"1021 755 LINE",
"1057 815 OFFCURVE",
"1073 871 OFFCURVE",
"1073 922 CURVE SMOOTH",
"1073 1018 OFFCURVE",
"1017 1067 OFFCURVE",
"912 1067 CURVE SMOOTH",
"769 1067 OFFCURVE",
"648 976 OFFCURVE",
"493 752 CURVE",
"482 755 LINE",
"546 869 OFFCURVE",
"571 937 OFFCURVE",
"571 989 CURVE SMOOTH",
"571 1044 OFFCURVE",
"541 1069 OFFCURVE",
"477 1069 CURVE SMOOTH",
"350 1069 OFFCURVE",
"204 982 OFFCURVE",
"102 843 CURVE {name = hr04;}",
"143 812 LINE",
"216 911 OFFCURVE",
"302 980 OFFCURVE",
"350 980 CURVE SMOOTH",
"387 980 OFFCURVE",
"389 948 OFFCURVE",
"357 883 CURVE SMOOTH",
"-23 0 LINE",
"169 0 LINE",
"349 383 LINE SMOOTH",
"517 743 OFFCURVE",
"724 1000 OFFCURVE",
"852 1000 CURVE SMOOTH",
"892 1000 OFFCURVE",
"917 976 OFFCURVE",
"917 940 CURVE SMOOTH",
"917 917 OFFCURVE",
"906 881 OFFCURVE",
"890 845 CURVE SMOOTH",
"502 0 LINE",
"716 0 LINE",
"898 409 LINE SMOOTH",
"1044 737 OFFCURVE",
"1261 1000 OFFCURVE",
"1385 1000 CURVE SMOOTH {name = hr02;}",
"1450 1000 OFFCURVE",
"1461 941 OFFCURVE",
"1416 845 CURVE SMOOTH",
"1169 312 LINE SMOOTH",
"1120 208 OFFCURVE",
"1099 135 OFFCURVE",
"1099 83 CURVE SMOOTH",
"1099 16 OFFCURVE",
"1140 -21 OFFCURVE",
"1216 -21 CURVE SMOOTH"
);
}
);
width = 1723;
},
{
background = {
paths = (
{
closed = 0;
nodes = (
"486 412 LINE SMOOTH",
"586 638 OFFCURVE",
"868 976 OFFCURVE",
"952 976 CURVE SMOOTH {name = hr02;}",
"989 976 OFFCURVE",
"996 932 OFFCURVE",
"957 854 CURVE SMOOTH",
"701 350 LINE SMOOTH",
"653 254 OFFCURVE",
"630 176 OFFCURVE",
"630 114 CURVE SMOOTH",
"630 22 OFFCURVE",
"682 -21 OFFCURVE",
"793 -21 CURVE SMOOTH",
"942 -21 OFFCURVE",
"1070 58 OFFCURVE",
"1237 251 CURVE",
"1181 284 LINE",
"1046 144 OFFCURVE",
"979 91 OFFCURVE",
"938 91 CURVE SMOOTH {name = hr01;}",
"906 91 OFFCURVE",
"906 123 OFFCURVE",
"937 184 CURVE SMOOTH",
"1206 712 LINE SMOOTH",
"1232 763 OFFCURVE",
"1246 820 OFFCURVE",
"1246 876 CURVE SMOOTH",
"1246 1000 OFFCURVE",
"1177 1067 OFFCURVE",
"1049 1067 CURVE SMOOTH",
"900 1067 OFFCURVE",
"773 970 OFFCURVE",
"600 720 CURVE"
);
}
);
};
layerId = "D3934E74-9B53-4E98-B19F-CD3DFEE08352";
paths = (
{
closed = 1;
nodes = (
"1537 -21 OFFCURVE",
"1665 58 OFFCURVE",
"1832 251 CURVE",
"1777 284 LINE",
"1641 144 OFFCURVE",
"1574 91 OFFCURVE",
"1534 91 CURVE SMOOTH {name = hr01;}",
"1502 91 OFFCURVE",
"1502 123 OFFCURVE",
"1533 184 CURVE SMOOTH",
"1795 712 LINE SMOOTH",
"1822 763 OFFCURVE",
"1835 820 OFFCURVE",
"1835 876 CURVE SMOOTH",
"1835 1000 OFFCURVE",
"1766 1067 OFFCURVE",
"1644 1067 CURVE SMOOTH",
"1484 1067 OFFCURVE",
"1356 970 OFFCURVE",
"1184 720 CURVE",
"1171 723 LINE",
"1200 786 OFFCURVE",
"1214 844 OFFCURVE",
"1214 897 CURVE SMOOTH",
"1214 1004 OFFCURVE",
"1158 1067 OFFCURVE",
"1051 1067 CURVE SMOOTH",
"902 1067 OFFCURVE",
"773 970 OFFCURVE",
"600 720 CURVE",
"587 723 LINE",
"639 828 OFFCURVE",
"663 902 OFFCURVE",
"663 956 CURVE SMOOTH",
"663 1034 OFFCURVE",
"620 1069 OFFCURVE",
"520 1069 CURVE SMOOTH",
"371 1069 OFFCURVE",
"219 991 OFFCURVE",
"104 856 CURVE {name = hr03;}",
"157 813 LINE",
"216 888 OFFCURVE",
"329 968 OFFCURVE",
"375 968 CURVE SMOOTH",
"396 968 OFFCURVE",
"397 956 OFFCURVE",
"381 912 CURVE SMOOTH",
"9 0 LINE",
"298 0 LINE",
"486 412 LINE SMOOTH",
"588 638 OFFCURVE",
"868 976 OFFCURVE",
"963 976 CURVE SMOOTH {name = hr02;}",
"976 976 OFFCURVE",
"983 966 OFFCURVE",
"983 945 CURVE SMOOTH",
"983 921 OFFCURVE",
"974 894 OFFCURVE",
"957 854 CURVE SMOOTH",
"577 0 LINE",
"886 0 LINE",
"1070 412 LINE SMOOTH",
"1170 638 OFFCURVE",
"1452 976 OFFCURVE",
"1548 976 CURVE SMOOTH {name = hr02;}",
"1584 976 OFFCURVE",
"1590 933 OFFCURVE",
"1552 854 CURVE SMOOTH",
"1307 351 LINE SMOOTH",
"1260 254 OFFCURVE",
"1237 176 OFFCURVE",
"1237 114 CURVE SMOOTH",
"1237 22 OFFCURVE",
"1289 -21 OFFCURVE",
"1396 -21 CURVE SMOOTH"
);
}
);
width = 1935;
}
);
leftKerningGroup = i;
leftMetricsKey = n;
rightKerningGroup = i;
rightMetricsKey = n;
unicode = 006D;
},
{
glyphname = n;
layers = (
{
anchors = (
{
name = bottom;
position = "{347, 0}";
},
{
name = top;
position = "{917, 1289}";
}
);
background = {
paths = (
{
closed = 1;
nodes = (
"785 -21 OFFCURVE",
"1158 388 OFFCURVE",
"1158 744 CURVE SMOOTH",
"1158 944 OFFCURVE",
"1051 1069 OFFCURVE",
"864 1069 CURVE SMOOTH",
"535 1069 OFFCURVE",
"165 659 OFFCURVE",
"165 307 CURVE SMOOTH",
"165 105 OFFCURVE",
"269 -21 OFFCURVE",
"457 -21 CURVE SMOOTH {name = hr00;}"
);
},
{
closed = 1;
nodes = (
"371 50 OFFCURVE",
"345 99 OFFCURVE",
"345 193 CURVE SMOOTH",
"345 503 OFFCURVE",
"678 1000 OFFCURVE",
"887 1000 CURVE SMOOTH",
"955 1000 OFFCURVE",
"982 953 OFFCURVE",
"982 865 CURVE SMOOTH",
"982 572 OFFCURVE",
"632 50 OFFCURVE",
"434 50 CURVE SMOOTH"
);
}
);
};
layerId = master01;
paths = (
{
closed = 1;
nodes = (
"819 -21 OFFCURVE",
"953 70 OFFCURVE",
"1094 245 CURVE",
"1052 275 LINE",
"951 162 OFFCURVE",
"867 97 OFFCURVE",
"821 97 CURVE SMOOTH {name = hr01;}",
"805 97 OFFCURVE",
"797 105 OFFCURVE",
"797 124 CURVE SMOOTH",
"797 146 OFFCURVE",
"813 192 OFFCURVE",
"836 240 CURVE SMOOTH",
"1069 713 LINE SMOOTH",
"1102 780 OFFCURVE",
"1117 837 OFFCURVE",
"1117 895 CURVE SMOOTH",
"1117 1008 OFFCURVE",
"1057 1067 OFFCURVE",
"937 1067 CURVE SMOOTH",
"791 1067 OFFCURVE",
"662 976 OFFCURVE",
"493 752 CURVE",
"485 755 LINE",
"547 873 OFFCURVE",
"571 936 OFFCURVE",
"571 989 CURVE SMOOTH",
"571 1044 OFFCURVE",
"544 1069 OFFCURVE",
"477 1069 CURVE SMOOTH",
"350 1069 OFFCURVE",
"204 982 OFFCURVE",
"102 843 CURVE {name = hr03;}",
"143 812 LINE",
"223 912 OFFCURVE",
"306 980 OFFCURVE",
"351 980 CURVE SMOOTH",
"372 980 OFFCURVE",
"380 968 OFFCURVE",
"380 950 CURVE SMOOTH",
"380 937 OFFCURVE",
"372 917 OFFCURVE",
"357 883 CURVE SMOOTH",
"-23 0 LINE",
"169 0 LINE",
"354 383 LINE SMOOTH",
"524 738 OFFCURVE",
"747 1000 OFFCURVE",
"882 1000 CURVE SMOOTH {name = hr02;}",
"922 1000 OFFCURVE",
"945 978 OFFCURVE",
"945 940 CURVE SMOOTH",
"945 911 OFFCURVE",
"934 873 OFFCURVE",
"920 845 CURVE SMOOTH",
"651 312 LINE SMOOTH",
"605 221 OFFCURVE",
"579 140 OFFCURVE",
"579 85 CURVE SMOOTH",
"579 16 OFFCURVE",
"620 -21 OFFCURVE",
"696 -21 CURVE SMOOTH"
);
}
);
width = 1204;
},
{
anchors = (
{
name = bottom;
position = "{487, 0}";
},
{
name = top;
position = "{892, 1289}";
}
);
background = {
paths = (
{
closed = 1;
nodes = (
"920 -21 OFFCURVE",
"1048 58 OFFCURVE",
"1215 251 CURVE",
"1160 284 LINE",
"1024 144 OFFCURVE",
"957 91 OFFCURVE",
"917 91 CURVE SMOOTH {name = hr01;}",
"900 91 OFFCURVE",
"892 99 OFFCURVE",
"892 115 CURVE SMOOTH",
"892 130 OFFCURVE",
"900 154 OFFCURVE",
"915 184 CURVE SMOOTH",
"1178 712 LINE SMOOTH",
"1204 763 OFFCURVE",
"1218 820 OFFCURVE",
"1218 876 CURVE SMOOTH",
"1218 1000 OFFCURVE",
"1149 1067 OFFCURVE",
"1027 1067 CURVE SMOOTH",
"879 1067 OFFCURVE",
"751 970 OFFCURVE",
"577 720 CURVE",
"564 723 LINE",
"621 845 OFFCURVE",
"641 909 OFFCURVE",
"641 959 CURVE SMOOTH",
"641 1034 OFFCURVE",
"598 1069 OFFCURVE",
"499 1069 CURVE SMOOTH",
"349 1069 OFFCURVE",
"197 991 OFFCURVE",
"82 856 CURVE {name = hr03;}",
"135 813 LINE",
"195 888 OFFCURVE",
"307 968 OFFCURVE",
"354 968 CURVE SMOOTH",
"366 968 OFFCURVE",
"371 964 OFFCURVE",
"371 953 CURVE SMOOTH",
"371 945 OFFCURVE",
"367 934 OFFCURVE",
"359 912 CURVE SMOOTH",
"-13 0 LINE",
"276 0 LINE",
"464 412 LINE SMOOTH",
"567 638 OFFCURVE",
"846 976 OFFCURVE",
"930 976 CURVE SMOOTH {name = hr02;}",
"950 976 OFFCURVE",
"962 963 OFFCURVE",
"962 940 CURVE SMOOTH",
"962 919 OFFCURVE",
"953 892 OFFCURVE",
"935 854 CURVE SMOOTH",
"690 350 LINE SMOOTH",
"644 256 OFFCURVE",
"620 177 OFFCURVE",
"620 114 CURVE SMOOTH",
"620 22 OFFCURVE",
"671 -21 OFFCURVE",
"783 -21 CURVE SMOOTH"
);
}
);
};
layerId = "D3934E74-9B53-4E98-B19F-CD3DFEE08352";
paths = (
{
closed = 1;
nodes = (
"943 -21 OFFCURVE",
"1059 58 OFFCURVE",
"1215 251 CURVE",
"1160 284 LINE",
"1035 144 OFFCURVE",
"980 91 OFFCURVE",
"940 91 CURVE SMOOTH {name = hr01;}",
"924 91 OFFCURVE",
"915 99 OFFCURVE",
"915 115 CURVE SMOOTH",
"915 130 OFFCURVE",
"924 154 OFFCURVE",
"938 184 CURVE SMOOTH",
"1201 712 LINE SMOOTH",
"1227 763 OFFCURVE",
"1241 820 OFFCURVE",
"1241 876 CURVE SMOOTH",
"1241 1000 OFFCURVE",
"1172 1067 OFFCURVE",
"1039 1067 CURVE SMOOTH",
"879 1067 OFFCURVE",
"751 970 OFFCURVE",
"577 720 CURVE",
"564 723 LINE",
"621 845 OFFCURVE",
"641 909 OFFCURVE",
"641 959 CURVE SMOOTH",
"641 1034 OFFCURVE",
"598 1069 OFFCURVE",
"502 1069 CURVE SMOOTH",
"344 1069 OFFCURVE",
"200 973 OFFCURVE",
"93 833 CURVE {name = hr03;}",
"146 790 LINE",
"195 865 OFFCURVE",
"319 968 OFFCURVE",
"356 968 CURVE SMOOTH",
"366 968 OFFCURVE",
"371 964 OFFCURVE",
"371 953 CURVE SMOOTH",
"371 945 OFFCURVE",
"367 934 OFFCURVE",
"359 912 CURVE SMOOTH",
"-13 0 LINE",
"276 0 LINE",
"464 412 LINE SMOOTH",
"567 638 OFFCURVE",
"846 976 OFFCURVE",
"953 976 CURVE SMOOTH {name = hr02;}",
"973 976 OFFCURVE",
"985 963 OFFCURVE",
"985 940 CURVE SMOOTH",
"985 919 OFFCURVE",
"976 892 OFFCURVE",
"958 854 CURVE SMOOTH",
"713 350 LINE SMOOTH",
"667 256 OFFCURVE",
"643 177 OFFCURVE",
"643 114 CURVE SMOOTH",
"643 22 OFFCURVE",
"694 -21 OFFCURVE",
"806 -21 CURVE SMOOTH"
);
}
);
width = 1317;
}
);
leftKerningGroup = i;
rightKerningGroup = i;
unicode = 006E;
},
{
glyphname = eng;
layers = (
{
background = {
paths = (
{
closed = 1;
nodes = (
"408 -507 OFFCURVE",
"563 -383 OFFCURVE",
"663 -161 CURVE SMOOTH",
"915 402 LINE SMOOTH",
"1055 714 OFFCURVE",
"1118 903 OFFCURVE",
"1118 974 CURVE SMOOTH",
"1118 1033 OFFCURVE",
"1077 1069 OFFCURVE",
"994 1069 CURVE SMOOTH",
"887 1069 OFFCURVE",
"768 1005 OFFCURVE",
"674 892 CURVE {name = hr02;}",
"715 857 LINE",
"774 933 OFFCURVE",
"831 974 OFFCURVE",
"879 974 CURVE SMOOTH",
"898 974 OFFCURVE",
"907 968 OFFCURVE",
"907 948 CURVE SMOOTH",
"907 906 OFFCURVE",
"881 828 OFFCURVE",
"751 500 CURVE SMOOTH {name = hr01;}",
"531 -55 LINE SMOOTH",
"415 -349 OFFCURVE",
"348 -438 OFFCURVE",
"269 -438 CURVE SMOOTH",
"143 -438 OFFCURVE",
"210 -261 OFFCURVE",
"71 -261 CURVE SMOOTH",
"9 -261 OFFCURVE",
"-20 -295 OFFCURVE",
"-20 -355 CURVE SMOOTH",
"-20 -448 OFFCURVE",
"77 -507 OFFCURVE",
"212 -507 CURVE SMOOTH"
);
}
);
};
layerId = master01;
paths = (
{
closed = 1;
nodes = (
"409 -507 OFFCURVE",
"562 -383 OFFCURVE",
"664 -161 CURVE SMOOTH",
"1069 713 LINE SMOOTH",
"1101 782 OFFCURVE",
"1117 837 OFFCURVE",
"1117 896 CURVE SMOOTH",
"1117 1008 OFFCURVE",
"1057 1067 OFFCURVE",
"937 1067 CURVE SMOOTH",
"791 1067 OFFCURVE",
"662 976 OFFCURVE",
"493 752 CURVE",
"485 755 LINE",
"547 873 OFFCURVE",
"571 936 OFFCURVE",
"571 989 CURVE SMOOTH",
"571 1044 OFFCURVE",
"544 1069 OFFCURVE",
"477 1069 CURVE SMOOTH {name = hr02;}",
"350 1069 OFFCURVE",
"204 982 OFFCURVE",
"102 843 CURVE",
"143 812 LINE",
"223 912 OFFCURVE",
"306 980 OFFCURVE",
"351 980 CURVE SMOOTH",
"372 980 OFFCURVE",
"380 966 OFFCURVE",
"380 952 CURVE SMOOTH",
"380 936 OFFCURVE",
"372 917 OFFCURVE",
"357 883 CURVE SMOOTH",
"-23 0 LINE",
"169 0 LINE",
"354 383 LINE SMOOTH",
"524 738 OFFCURVE",
"747 1000 OFFCURVE",
"882 1000 CURVE SMOOTH {name = hr03;}",
"922 1000 OFFCURVE",
"945 978 OFFCURVE",
"945 940 CURVE SMOOTH",
"945 911 OFFCURVE",
"932 873 OFFCURVE",
"920 845 CURVE SMOOTH",
"532 -55 LINE SMOOTH",
"408 -344 OFFCURVE",
"351 -438 OFFCURVE",
"266 -438 CURVE SMOOTH",
"149 -438 OFFCURVE",
"208 -261 OFFCURVE",
"73 -261 CURVE SMOOTH {name = hr01;}",
"12 -261 OFFCURVE",
"-18 -297 OFFCURVE",
"-18 -351 CURVE SMOOTH",
"-18 -450 OFFCURVE",
"78 -507 OFFCURVE",
"213 -507 CURVE SMOOTH"
);
}
);
width = 1158;
},
{
layerId = "D3934E74-9B53-4E98-B19F-CD3DFEE08352";
paths = (
{
closed = 1;
nodes = (
"545 -507 OFFCURVE",
"750 -333 OFFCURVE",
"957 146 CURVE SMOOTH",
"1201 712 LINE SMOOTH",
"1224 763 OFFCURVE",
"1241 820 OFFCURVE",
"1241 880 CURVE SMOOTH",
"1241 1000 OFFCURVE",
"1172 1067 OFFCURVE",
"1039 1067 CURVE SMOOTH",
"879 1067 OFFCURVE",
"751 970 OFFCURVE",
"577 720 CURVE",
"564 723 LINE",
"621 845 OFFCURVE",
"641 909 OFFCURVE",
"641 959 CURVE SMOOTH",
"641 1034 OFFCURVE",
"598 1069 OFFCURVE",
"502 1069 CURVE SMOOTH",
"344 1069 OFFCURVE",
"200 973 OFFCURVE",
"93 833 CURVE {name = hr03;}",
"146 790 LINE",
"195 865 OFFCURVE",
"319 968 OFFCURVE",
"356 968 CURVE SMOOTH",
"366 968 OFFCURVE",
"371 964 OFFCURVE",
"371 953 CURVE SMOOTH",
"371 945 OFFCURVE",
"368 934 OFFCURVE",
"359 912 CURVE SMOOTH",
"-13 0 LINE",
"276 0 LINE",
"464 412 LINE SMOOTH",
"567 638 OFFCURVE",
"846 976 OFFCURVE",
"952 976 CURVE SMOOTH {name = hr02;}",
"973 976 OFFCURVE",
"985 963 OFFCURVE",
"985 941 CURVE SMOOTH",
"985 919 OFFCURVE",
"973 892 OFFCURVE",
"958 854 CURVE SMOOTH",
"705 215 LINE SMOOTH",
"504 -289 OFFCURVE",
"405 -412 OFFCURVE",
"298 -415 CURVE SMOOTH",
"160 -418 OFFCURVE",
"237 -207 OFFCURVE",
"78 -207 CURVE SMOOTH",
"2 -207 OFFCURVE",
"-40 -256 OFFCURVE",
"-40 -316 CURVE SMOOTH",
"-40 -432 OFFCURVE",
"114 -507 OFFCURVE",
"272 -507 CURVE SMOOTH"
);
}
);
width = 1279;
}
);
leftKerningGroup = i;
leftMetricsKey = n;
unicode = 014B;
},
